<svg width="21" height="20" viewBox="0 0 21 20" fill="none" xmlns="http://www.w3.org/2000/svg">
<g id="Arrow Right Alt">
<path id="Vector" d="M14.5097 10.625H5.04175C4.86439 10.625 4.71591 10.5652 4.59633 10.4454C4.47661 10.3259 4.41675 10.1774 4.41675 10C4.41675 9.82267 4.47661 9.67419 4.59633 9.55461C4.71591 9.43489 4.86439 9.37503 5.04175 9.37503H14.5097L11.7661 6.63148C11.6422 6.50746 11.5811 6.36239 11.5826 6.19628C11.5842 6.03016 11.6454 5.88246 11.7661 5.75315C11.8954 5.62399 12.0439 5.55725 12.2115 5.55294C12.3793 5.54864 12.5279 5.61114 12.6572 5.74044L16.3895 9.47273C16.4675 9.55079 16.5225 9.63308 16.5545 9.71961C16.5865 9.80614 16.6026 9.89961 16.6026 10C16.6026 10.1004 16.5865 10.1939 16.5545 10.2804C16.5225 10.367 16.4675 10.4493 16.3895 10.5273L12.6572 14.2596C12.5331 14.3835 12.386 14.4447 12.2157 14.4432C12.0453 14.4415 11.8954 14.3761 11.7661 14.2469C11.6454 14.1176 11.5829 13.9712 11.5786 13.8077C11.5743 13.6443 11.6368 13.4979 11.7661 13.3686L14.5097 10.625Z" fill="#ADADAD"/>
</g>
</svg>
