<svg width="24" height="24" viewBox="0 0 24 24" fill="none" xmlns="http://www.w3.org/2000/svg">
<g id="Component 9">
<g id="Union">
<path d="M3.69231 5.58333C3.69231 4.56999 4.51803 3.75 5.53846 3.75H18.4615C19.482 3.75 20.3077 4.56999 20.3077 5.58333V7.88216L7.85336 20.25H5.53846C4.51803 20.25 3.69231 19.43 3.69231 18.4167V5.58333Z" fill="#1F1814"/>
<path d="M9.15865 20.25L20.3077 9.17839V11.7708L11.7692 20.25H9.15865Z" fill="#1F1814"/>
<path d="M13.0745 20.25L20.3077 13.0671V15.6613L15.6851 20.25H13.0745Z" fill="#1F1814"/>
<path d="M16.9904 20.25L20.3077 16.9575V18.4167C20.3077 19.43 19.482 20.25 18.4615 20.25H16.9904Z" fill="#1F1814"/>
<path fill-rule="evenodd" clip-rule="evenodd" d="M24 15.6667C24 15.9388 23.881 16.1823 23.6899 16.3506C23.5276 16.4956 23.3113 16.5833 23.0769 16.5833V19.3333C23.0769 21.3582 21.4255 23 19.3846 23H4.61538C2.57452 23 0.923077 21.3582 0.923077 19.3333V16.5833C0.414663 16.5833 0 16.1733 0 15.6667V8.33333C0 7.82666 0.414663 7.41667 0.923077 7.41667V4.66667C0.923077 2.64176 2.57452 1 4.61538 1H19.3846C21.4255 1 23.0769 2.64176 23.0769 4.66667V7.41667C23.5853 7.41667 24 7.82666 24 8.33333V15.6667ZM22.1538 8.33333H23.0769V15.6667H22.1538V19.3333C22.1538 20.8516 20.9171 22.0833 19.3846 22.0833H4.61538C3.08293 22.0833 1.84615 20.8516 1.84615 19.3333V15.6667H0.923077V8.33333H1.84615V4.66667C1.84615 3.71598 2.33293 2.87988 3.07212 2.38574C3.51202 2.09033 4.04207 1.91667 4.61538 1.91667H19.3846C20.9171 1.91667 22.1538 3.14844 22.1538 4.66667V8.33333Z" fill="#1F1814"/>
</g>
</g>
</svg>
