<svg width="20" height="20" viewBox="0 0 20 20" fill="none" xmlns="http://www.w3.org/2000/svg">
<g id="Icon/20/deployed_code">
<mask id="mask0_923_18192" style="mask-type:alpha" maskUnits="userSpaceOnUse" x="0" y="0" width="20" height="20">
<rect id="Bounding box" width="20" height="20" fill="#D9D9D9"/>
</mask>
<g mask="url(#mask0_923_18192)">
<path id="deployed_code" d="M9.45817 16.1825V10.3171L4.49982 7.44688V13.168C4.49982 13.2108 4.5105 13.2508 4.53188 13.2882C4.55324 13.3256 4.58529 13.3577 4.62802 13.3844L9.45817 16.1825ZM10.5415 16.1825L15.3716 13.4052C15.4143 13.3785 15.4464 13.3465 15.4678 13.3091C15.4891 13.2717 15.4998 13.2316 15.4998 13.1889V7.46771L10.5415 10.3171V16.1825ZM9.99982 9.36517L15.104 6.43248L10.1072 3.5719C10.0645 3.54519 10.0217 3.53183 9.97898 3.53183C9.93625 3.53183 9.89351 3.54519 9.85077 3.5719L4.89563 6.43248L9.99982 9.36517ZM4.08638 14.3363C3.87559 14.215 3.71125 14.0528 3.59336 13.8495C3.47546 13.6462 3.4165 13.4234 3.4165 13.1809V6.81869C3.4165 6.57619 3.47546 6.35331 3.59336 6.15004C3.71125 5.94677 3.87559 5.7845 4.08638 5.66325L9.30911 2.64083C9.51851 2.51797 9.74875 2.45654 9.99982 2.45654C10.2509 2.45654 10.4811 2.51797 10.6905 2.64083L15.9133 5.66325C16.124 5.7845 16.2884 5.94677 16.4063 6.15004C16.5242 6.35331 16.5831 6.57619 16.5831 6.81869V13.1809C16.5831 13.4234 16.5242 13.6462 16.4063 13.8495C16.2884 14.0528 16.124 14.215 15.9133 14.3363L10.6697 17.3795C10.4585 17.5024 10.2347 17.5638 9.99844 17.5638C9.76218 17.5638 9.53934 17.5024 9.32994 17.3795L4.08638 14.3363Z" fill="#1C1B1F"/>
</g>
</g>
</svg>
