<svg width="21" height="20" viewBox="0 0 21 20" fill="none" xmlns="http://www.w3.org/2000/svg">
<path fill-rule="evenodd" clip-rule="evenodd" d="M17.6687 2.1051C17.6687 1.86287 17.8643 1.6665 18.1057 1.6665H18.9797C19.221 1.6665 19.4167 1.86287 19.4167 2.1051V17.8946C19.4167 18.1368 19.221 18.3332 18.9797 18.3332H18.1057C17.8643 18.3332 17.6687 18.1368 17.6687 17.8946V14.3794L14.408 16.6951C14.1128 16.9048 13.76 17.0174 13.3984 17.0174H12.4248V18.3332H11.1138V17.0174H10.2398V18.3332H8.92886V17.0174H8.05488V18.3332H6.7439V17.0174H5.86992V18.3332H4.55894V17.0174H3.24797C2.28259 17.0174 1.5 16.2319 1.5 15.263V6.96216C1.5 6.45397 1.71955 5.97075 2.10185 5.63754L5.15835 2.97346C5.47633 2.69631 5.88332 2.5437 6.30447 2.5437H17.6687V2.1051ZM13.3984 16.5788C13.6696 16.5788 13.9342 16.4943 14.1556 16.3371L17.6687 13.8421V12.6545L13.4625 15.548C13.317 15.648 13.1448 15.7016 12.9684 15.7016H3.68496C3.20227 15.7016 2.81098 15.3089 2.81098 14.8244V7.34281C2.81098 7.09162 2.91827 6.85248 3.10567 6.68599L6.03901 4.07986C6.19882 3.93787 6.40487 3.85949 6.6183 3.85949H17.6687V2.98229H6.30447C5.98861 2.98229 5.68337 3.09675 5.44488 3.30462L2.38838 5.9687C2.10166 6.2186 1.93699 6.58102 1.93699 6.96216V15.263C1.93699 15.9897 2.52394 16.5788 3.24797 16.5788H13.3984ZM13.4931 5.84545H16.722V6.77137H13.4931V5.84545ZM16.722 7.6973H13.4931V8.62323H16.722V7.6973ZM10.7255 10.4751C10.7255 12.0092 9.48642 13.2529 7.95791 13.2529C6.4294 13.2529 5.1903 12.0092 5.1903 10.4751C5.1903 8.94095 6.4294 7.6973 7.95791 7.6973C9.48642 7.6973 10.7255 8.94095 10.7255 10.4751Z" fill="#1F1F1F"/>
</svg>
