<svg width="36" height="36" viewBox="0 0 36 36" fill="none" xmlns="http://www.w3.org/2000/svg">
<g id="Icon/20/hard_drive">
<mask id="mask0_863_2797" style="mask-type:alpha" maskUnits="userSpaceOnUse" x="0" y="0" width="36" height="36">
<rect id="Bounding box" width="36" height="36" fill="#D9D9D9"/>
</mask>
<g mask="url(#mask0_863_2797)">
<path id="hard_drive" d="M6.76165 23.8671H29.2385C29.3731 23.8671 29.4837 23.8238 29.5702 23.7372C29.6568 23.6507 29.7001 23.5401 29.7001 23.4055V17.1401H6.30006V23.4055C6.30006 23.5401 6.34334 23.6507 6.42989 23.7372C6.51644 23.8238 6.62702 23.8671 6.76165 23.8671ZM26.1849 21.7786C26.5803 21.7786 26.9169 21.6402 27.1948 21.3634C27.4726 21.0867 27.6116 20.7506 27.6116 20.3553C27.6116 19.9599 27.4732 19.6233 27.1964 19.3454C26.9197 19.0675 26.5836 18.9286 26.1883 18.9286C25.7929 18.9286 25.4563 19.067 25.1785 19.3437C24.9006 19.6205 24.7617 19.9565 24.7617 20.3519C24.7617 20.7472 24.9 21.0839 25.1768 21.3618C25.4535 21.6396 25.7895 21.7786 26.1849 21.7786ZM31.65 15.0027H28.7799L25.5415 11.8152H10.4251L7.18273 15.0027H4.3501L8.977 10.5431C9.19815 10.3123 9.45032 10.1417 9.73352 10.0311C10.0167 9.92052 10.3145 9.86523 10.627 9.86523H25.3356C25.6586 9.86523 25.9664 9.92323 26.2591 10.0392C26.5517 10.1552 26.8064 10.3232 27.0231 10.5431L31.65 15.0027ZM6.76165 25.817C6.09847 25.817 5.53076 25.5809 5.05851 25.1086C4.58624 24.6364 4.3501 24.0686 4.3501 23.4055V15.0027H31.65V23.4055C31.65 24.0686 31.4139 24.6364 30.9416 25.1086C30.4694 25.5809 29.9016 25.817 29.2385 25.817H6.76165Z" fill="#FFFFFF"/>
</g>
</g>
</svg>
