<svg width="48" height="48" viewBox="0 0 48 48" fill="none" xmlns="http://www.w3.org/2000/svg">
<path fill-rule="evenodd" clip-rule="evenodd" d="M11.1667 9.33333C10.1541 9.33333 9.33333 10.1541 9.33333 11.1667V20.3333C9.33333 21.3459 10.1541 22.1667 11.1667 22.1667H33.1667C34.1792 22.1667 35 21.3459 35 20.3333V11.1667C35 10.1541 34.1792 9.33333 33.1667 9.33333H11.1667ZM26.75 12.0833C25.7375 12.0833 24.9167 12.9041 24.9167 13.9167V17.5833C24.9167 18.5959 25.7375 19.4167 26.75 19.4167H30.4167C31.4292 19.4167 32.25 18.5959 32.25 17.5833V13.9167C32.25 12.9041 31.4292 12.0833 30.4167 12.0833H26.75Z" fill="#DBDBDB"/>
<path d="M9.33333 27.6667C9.33333 26.6541 10.1541 25.8333 11.1667 25.8333H36.8333C37.8459 25.8333 38.6667 26.6541 38.6667 27.6667V36.8333C38.6667 37.8459 37.8459 38.6667 36.8333 38.6667H11.1667C10.1541 38.6667 9.33333 37.8459 9.33333 36.8333V27.6667Z" fill="#DBDBDB"/>
<path fill-rule="evenodd" clip-rule="evenodd" d="M2 9.33333C2 5.28325 5.28325 2 9.33333 2H31.9624C33.9074 2 35.7726 2.77262 37.1479 4.14788L43.8521 10.8521C45.2274 12.2274 46 14.0926 46 16.0376V38.6667C46 42.7168 42.7168 46 38.6667 46H9.33333C5.28325 46 2 42.7168 2 38.6667V9.33333ZM3.83333 38.6667V9.33333C3.83333 6.29577 6.29577 3.83333 9.33333 3.83333H31.9624C33.4211 3.83333 34.8201 4.4128 35.8515 5.44425L42.5558 12.1485C43.5872 13.1799 44.1667 14.5789 44.1667 16.0376V38.6667C44.1667 41.7042 41.7042 44.1667 38.6667 44.1667H9.33333C6.29577 44.1667 3.83333 41.7042 3.83333 38.6667Z" fill="#DBDBDB"/>
</svg>
