<svg width="36" height="36" viewBox="0 0 36 36" fill="none" xmlns="http://www.w3.org/2000/svg">
<g id="Icon/20/memory_alt">
<mask id="mask0_863_2788" style="mask-type:alpha" maskUnits="userSpaceOnUse" x="0" y="0" width="36" height="36">
<rect id="Bounding box" width="36" height="36" fill="#D9D9D9"/>
</mask>
<g mask="url(#mask0_863_2788)">
<path id="memory_alt" d="M11.2427 21.2248C11.5168 21.2248 11.7491 21.1314 11.9395 20.9445C12.1298 20.7577 12.225 20.5261 12.225 20.2499V15.7499C12.225 15.4736 12.1323 15.2421 11.9468 15.0552C11.7614 14.8683 11.5316 14.7749 11.2574 14.7749C10.9833 14.7749 10.751 14.8683 10.5607 15.0552C10.3703 15.2421 10.2751 15.4736 10.2751 15.7499V20.2499C10.2751 20.5261 10.3678 20.7577 10.5533 20.9445C10.7387 21.1314 10.9685 21.2248 11.2427 21.2248ZM17.9927 21.2248C18.2668 21.2248 18.4991 21.1314 18.6895 20.9445C18.8798 20.7577 18.975 20.5261 18.975 20.2499V15.7499C18.975 15.4736 18.8823 15.2421 18.6968 15.0552C18.5114 14.8683 18.2816 14.7749 18.0074 14.7749C17.7333 14.7749 17.501 14.8683 17.3107 15.0552C17.1203 15.2421 17.0251 15.4736 17.0251 15.7499V20.2499C17.0251 20.5261 17.1178 20.7577 17.3033 20.9445C17.4887 21.1314 17.7185 21.2248 17.9927 21.2248ZM24.7427 21.2248C25.0168 21.2248 25.2491 21.1314 25.4395 20.9445C25.6298 20.7577 25.725 20.5261 25.725 20.2499V15.7499C25.725 15.4736 25.6323 15.2421 25.4468 15.0552C25.2614 14.8683 25.0316 14.7749 24.7574 14.7749C24.4833 14.7749 24.251 14.8683 24.0607 15.0552C23.8703 15.2421 23.7751 15.4736 23.7751 15.7499V20.2499C23.7751 20.5261 23.8678 20.7577 24.0533 20.9445C24.2387 21.1314 24.4685 21.2248 24.7427 21.2248ZM6.76165 25.1999H29.2385C29.3539 25.1999 29.4597 25.1518 29.5558 25.0556C29.652 24.9595 29.7001 24.8537 29.7001 24.7383V11.2615C29.7001 11.1461 29.652 11.0403 29.5558 10.9441C29.4597 10.8479 29.3539 10.7999 29.2385 10.7999H6.76165C6.64625 10.7999 6.54046 10.8479 6.44428 10.9441C6.34813 11.0403 6.30006 11.1461 6.30006 11.2615V24.7383C6.30006 24.8537 6.34813 24.9595 6.44428 25.0556C6.54046 25.1518 6.64625 25.1999 6.76165 25.1999ZM6.76165 27.1498C6.08645 27.1498 5.51572 26.9167 5.04947 26.4505C4.58322 25.9842 4.3501 25.4135 4.3501 24.7383V11.2615C4.3501 10.5863 4.58322 10.0155 5.04947 9.54928C5.51572 9.08303 6.08645 8.8499 6.76165 8.8499H8.4751V7.13278C8.4751 6.85878 8.56782 6.62646 8.75327 6.43584C8.93872 6.24521 9.16852 6.1499 9.44267 6.1499C9.71682 6.1499 9.94908 6.24334 10.1395 6.43022C10.3298 6.61709 10.425 6.84865 10.425 7.1249V8.8499H17.0251V7.13278C17.0251 6.85878 17.1178 6.62646 17.3033 6.43584C17.4887 6.24521 17.7185 6.1499 17.9927 6.1499C18.2668 6.1499 18.4991 6.24334 18.6895 6.43022C18.8798 6.61709 18.975 6.84865 18.975 7.1249V8.8499H24.6751V7.13278C24.6751 6.85878 24.7678 6.62646 24.9533 6.43584C25.1387 6.24521 25.3685 6.1499 25.6427 6.1499C25.9168 6.1499 26.1491 6.24334 26.3395 6.43022C26.5298 6.61709 26.625 6.84865 26.625 7.1249V8.8499H29.2385C29.9137 8.8499 30.4844 9.08303 30.9506 9.54928C31.4169 10.0155 31.65 10.5863 31.65 11.2615V24.7383C31.65 25.4135 31.4169 25.9842 30.9506 26.4505C30.4844 26.9167 29.9137 27.1498 29.2385 27.1498H26.625V28.867C26.625 29.141 26.5323 29.3733 26.3468 29.5639C26.1614 29.7545 25.9316 29.8498 25.6574 29.8498C25.3833 29.8498 25.151 29.7564 24.9607 29.5695C24.7703 29.3826 24.6751 29.1511 24.6751 28.8748V27.1498H18.975V28.867C18.975 29.141 18.8823 29.3733 18.6968 29.5639C18.5114 29.7545 18.2816 29.8498 18.0074 29.8498C17.7333 29.8498 17.501 29.7564 17.3107 29.5695C17.1203 29.3826 17.0251 29.1511 17.0251 28.8748V27.1498H10.425V28.867C10.425 29.141 10.3323 29.3733 10.1468 29.5639C9.9614 29.7545 9.7316 29.8498 9.45745 29.8498C9.1833 29.8498 8.95104 29.7564 8.76066 29.5695C8.57029 29.3826 8.4751 29.1511 8.4751 28.8748V27.1498H6.76165Z" fill="#FFFFFF"/>
</g>
</g>
</svg>
