<svg width="36" height="36" viewBox="0 0 36 36" fill="none" xmlns="http://www.w3.org/2000/svg">
<g id="Icon/20/memory">
<mask id="mask0_863_2778" style="mask-type:alpha" maskUnits="userSpaceOnUse" x="0" y="0" width="36" height="36">
<rect id="Bounding box" width="36" height="36" fill="#D9D9D9"/>
</mask>
<g mask="url(#mask0_863_2778)">
<path id="memory" d="M15.1499 19.644V16.3557C15.1499 16.014 15.2655 15.7277 15.4966 15.4966C15.7277 15.2655 16.014 15.1499 16.3557 15.1499H19.644C19.9857 15.1499 20.272 15.2655 20.5031 15.4966C20.7343 15.7277 20.8498 16.014 20.8498 16.3557V19.644C20.8498 19.9857 20.7343 20.272 20.5031 20.5031C20.272 20.7343 19.9857 20.8498 19.644 20.8498H16.3557C16.014 20.8498 15.7277 20.7343 15.4966 20.5031C15.2655 20.272 15.1499 19.9857 15.1499 19.644ZM17.0999 18.8999H18.8999V17.0999H17.0999V18.8999ZM13.8749 28.5287V26.2498H12.1614C11.5037 26.2498 10.9374 26.0123 10.4624 25.5373C9.98739 25.0623 9.74989 24.496 9.74989 23.8383V22.1248H7.47106C7.19481 22.1248 6.96326 22.0321 6.77641 21.8466C6.58953 21.6612 6.49609 21.4314 6.49609 21.1572C6.49609 20.8831 6.58953 20.6508 6.77641 20.4605C6.96326 20.2701 7.19481 20.1749 7.47106 20.1749H9.74989V15.8248H7.47106C7.19481 15.8248 6.96326 15.7321 6.77641 15.5466C6.58953 15.3612 6.49609 15.1314 6.49609 14.8572C6.49609 14.5831 6.58953 14.3508 6.77641 14.1605C6.96326 13.9701 7.19481 13.8749 7.47106 13.8749H9.74989V12.1614C9.74989 11.5037 9.98739 10.9374 10.4624 10.4624C10.9374 9.98739 11.5037 9.74989 12.1614 9.74989H13.8749V7.47106C13.8749 7.19481 13.9676 6.96326 14.1531 6.77641C14.3385 6.58953 14.5683 6.49609 14.8425 6.49609C15.1166 6.49609 15.3489 6.58953 15.5393 6.77641C15.7296 6.96326 15.8248 7.19481 15.8248 7.47106V9.74989H20.1749V7.47106C20.1749 7.19481 20.2676 6.96326 20.4531 6.77641C20.6385 6.58953 20.8683 6.49609 21.1425 6.49609C21.4166 6.49609 21.6489 6.58953 21.8393 6.77641C22.0296 6.96326 22.1248 7.19481 22.1248 7.47106V9.74989H23.8383C24.496 9.74989 25.0623 9.98739 25.5373 10.4624C26.0123 10.9374 26.2498 11.5037 26.2498 12.1614V13.8749H28.5287C28.8049 13.8749 29.0365 13.9676 29.2233 14.1531C29.4102 14.3385 29.5036 14.5683 29.5036 14.8425C29.5036 15.1166 29.4102 15.3489 29.2233 15.5393C29.0365 15.7296 28.8049 15.8248 28.5287 15.8248H26.2498V20.1749H28.5287C28.8049 20.1749 29.0365 20.2676 29.2233 20.4531C29.4102 20.6385 29.5036 20.8683 29.5036 21.1425C29.5036 21.4166 29.4102 21.6489 29.2233 21.8393C29.0365 22.0296 28.8049 22.1248 28.5287 22.1248H26.2498V23.8383C26.2498 24.496 26.0123 25.0623 25.5373 25.5373C25.0623 26.0123 24.496 26.2498 23.8383 26.2498H22.1248V28.5287C22.1248 28.8049 22.0321 29.0365 21.8466 29.2233C21.6612 29.4102 21.4314 29.5036 21.1572 29.5036C20.8831 29.5036 20.6508 29.4102 20.4605 29.2233C20.2701 29.0365 20.1749 28.8049 20.1749 28.5287V26.2498H15.8248V28.5287C15.8248 28.8049 15.7321 29.0365 15.5466 29.2233C15.3612 29.4102 15.1314 29.5036 14.8572 29.5036C14.5831 29.5036 14.3508 29.4102 14.1605 29.2233C13.9701 29.0365 13.8749 28.8049 13.8749 28.5287ZM23.8383 24.2999C23.9537 24.2999 24.0595 24.2518 24.1556 24.1556C24.2518 24.0595 24.2999 23.9537 24.2999 23.8383V12.1614C24.2999 12.046 24.2518 11.9403 24.1556 11.8441C24.0595 11.7479 23.9537 11.6999 23.8383 11.6999H12.1614C12.046 11.6999 11.9403 11.7479 11.8441 11.8441C11.7479 11.9403 11.6999 12.046 11.6999 12.1614V23.8383C11.6999 23.9537 11.7479 24.0595 11.8441 24.1556C11.9403 24.2518 12.046 24.2999 12.1614 24.2999H23.8383Z" fill="white"/>
</g>
</g>
</svg>
