<svg width="48" height="48" viewBox="0 0 48 48" fill="none" xmlns="http://www.w3.org/2000/svg">
<path d="M7.38461 11.1667C7.38461 9.13997 9.03606 7.5 11.0769 7.5H36.9231C38.9639 7.5 40.6154 9.13997 40.6154 11.1667V15.7643L15.7067 40.5H11.0769C9.03606 40.5 7.38461 38.86 7.38461 36.8333V11.1667Z" fill="#DBDBDB"/>
<path d="M18.3173 40.5L40.6154 18.3568V23.5417L23.5385 40.5H18.3173Z" fill="#DBDBDB"/>
<path d="M26.149 40.5L40.6154 26.1341V31.3226L31.3702 40.5H26.149Z" fill="#DBDBDB"/>
<path d="M33.9808 40.5L40.6154 33.915V36.8333C40.6154 38.86 38.9639 40.5 36.9231 40.5H33.9808Z" fill="#DBDBDB"/>
<path fill-rule="evenodd" clip-rule="evenodd" d="M48 31.3333C48 31.8776 47.762 32.3646 47.3798 32.7012C47.0553 32.9912 46.6226 33.1667 46.1538 33.1667V38.6667C46.1538 42.7165 42.851 46 38.7692 46H9.23077C5.14904 46 1.84615 42.7165 1.84615 38.6667V33.1667C0.829327 33.1667 0 32.3467 0 31.3333V16.6667C0 15.6533 0.829327 14.8333 1.84615 14.8333V9.33333C1.84615 5.28353 5.14904 2 9.23077 2H38.7692C42.851 2 46.1538 5.28353 46.1538 9.33333V14.8333C47.1707 14.8333 48 15.6533 48 16.6667V31.3333ZM44.3077 16.6667H46.1538V31.3333H44.3077V38.6667C44.3077 41.7031 41.8341 44.1667 38.7692 44.1667H9.23077C6.16587 44.1667 3.69231 41.7031 3.69231 38.6667V31.3333H1.84615V16.6667H3.69231V9.33333C3.69231 7.43197 4.66586 5.75977 6.14423 4.77148C7.02404 4.18066 8.08413 3.83333 9.23077 3.83333H38.7692C41.8341 3.83333 44.3077 6.29688 44.3077 9.33333V16.6667Z" fill="#DBDBDB"/>
</svg>
