<svg width="48" height="48" viewBox="0 0 48 48" fill="none" xmlns="http://www.w3.org/2000/svg">
<path fill-rule="evenodd" clip-rule="evenodd" d="M5.82093 31.889C5.06319 31.1313 5.06319 29.9028 5.82093 29.145L29.145 5.82093C29.9028 5.06319 31.1313 5.06319 31.889 5.82093L42.1791 16.111C42.9368 16.8687 42.9368 18.0972 42.1791 18.855L18.855 42.1791C18.0972 42.9368 16.8687 42.9368 16.111 42.1791L5.82093 31.889ZM15.1625 27.0685C14.6734 26.5785 13.7918 26.6657 13.1934 27.2634L11.0262 29.4277C10.4278 30.0254 10.3391 30.9071 10.8282 31.3971L16.584 37.1641C17.073 37.6541 17.9546 37.5668 18.5531 36.9691L20.7202 34.8048C21.3186 34.2071 21.4073 33.3254 20.9183 32.8354L15.1625 27.0685ZM20.5803 21.6576C20.0913 21.1676 19.2097 21.2549 18.6112 21.8526L16.4441 24.0169C15.8457 24.6146 15.757 25.4963 16.246 25.9863L22.0018 31.7532C22.4909 32.2432 23.3725 32.1559 23.9709 31.5583L26.1381 29.3939C26.7365 28.7963 26.8252 27.9146 26.3361 27.4246L20.5803 21.6576ZM21.8619 18.6061C21.2635 19.2037 21.1748 20.0854 21.6639 20.5754L27.4197 26.3424C27.9087 26.8324 28.7903 26.7451 29.3888 26.1474L31.5559 23.9831C32.1544 23.3854 32.243 22.5037 31.754 22.0137L25.9982 16.2468C25.5091 15.7568 24.6275 15.8441 24.0291 16.4417L21.8619 18.6061ZM31.416 10.8359C30.927 10.3459 30.0454 10.4332 29.4469 11.0309L27.2798 13.1952C26.6814 13.7929 26.5927 14.6746 27.0817 15.1646L32.8375 20.9315C33.3266 21.4216 34.2082 21.3343 34.8066 20.7366L36.9738 18.5723C37.5722 17.9746 37.6609 17.0929 37.1718 16.6029L31.416 10.8359Z" fill="#1F1814"/>
<path fill-rule="evenodd" clip-rule="evenodd" d="M13.367 46.2951C15.6402 48.5683 19.3258 48.5683 21.599 46.2951L22.971 44.9231L25.029 46.9811C25.7867 47.7388 27.0153 47.7388 27.773 46.9811L46.9811 27.773C47.7388 27.0153 47.7388 25.7867 46.9811 25.029L44.9231 22.971L46.2951 21.599C48.5683 19.3258 48.5683 15.6402 46.2951 13.367L34.633 1.70491C32.3598 -0.568303 28.6742 -0.568304 26.401 1.70491L1.70491 26.401C-0.568303 28.6742 -0.568303 32.3598 1.70491 34.633L13.367 46.2951ZM27.773 3.07692L3.07692 27.773C1.56144 29.2885 1.56144 31.7456 3.07692 33.261L14.739 44.9231C16.2544 46.4386 18.7115 46.4386 20.227 44.9231L44.9231 20.227C46.4386 18.7115 46.4386 16.2544 44.9231 14.739L33.261 3.07692C31.7456 1.56144 29.2885 1.56144 27.773 3.07692Z" fill="#1F1814"/>
</svg>
