<svg width="48" height="48" viewBox="0 0 48 48" fill="none" xmlns="http://www.w3.org/2000/svg">
<path d="M24.4998 4.6841C24.1904 4.50546 23.8092 4.50546 23.4998 4.6841L17.0278 8.4207C16.7184 8.59933 16.5278 8.92946 16.5278 9.28673V16.7599C16.5278 17.1172 16.7184 17.4473 17.0278 17.626L23.4998 21.3626C23.8092 21.5412 24.1904 21.5412 24.4998 21.3626L30.9718 17.626C31.2812 17.4473 31.4718 17.1172 31.4718 16.7599V9.28673C31.4718 8.92946 31.2812 8.59933 30.9718 8.4207L24.4998 4.6841Z" fill="#1F1814"/>
<path fill-rule="evenodd" clip-rule="evenodd" d="M22.7678 1.40952C23.5305 0.969167 24.4702 0.969166 25.2329 1.40952L33.442 6.14907C34.2048 6.58942 34.6746 7.40322 34.6746 8.28393V17.763C34.6746 18.6437 34.2048 19.4575 33.442 19.8979L25.2329 24.6374C24.4702 25.0778 23.5305 25.0778 22.7678 24.6374L14.5586 19.8979C13.7959 19.4575 13.3261 18.6437 13.3261 17.763V8.28393C13.3261 7.40322 13.7959 6.58942 14.5586 6.14907L22.7678 1.40952ZM24.6166 2.47694L32.8258 7.2165C33.2071 7.43667 33.442 7.84358 33.442 8.28393V17.763C33.442 18.2034 33.2071 18.6103 32.8258 18.8305L24.6166 23.57C24.2353 23.7902 23.7654 23.7902 23.3841 23.57L15.1749 18.8305C14.7936 18.6103 14.5586 18.2034 14.5586 17.763V8.28393C14.5586 7.84358 14.7936 7.43667 15.1749 7.2165L23.3841 2.47694C23.7654 2.25677 24.2353 2.25677 24.6166 2.47694Z" fill="#1F1814"/>
<path d="M12.1742 25.6376C11.8648 25.459 11.4836 25.459 11.1742 25.6376L4.70226 29.3742C4.39286 29.5528 4.20226 29.8829 4.20226 30.2402V37.7134C4.20226 38.0707 4.39286 38.4008 4.70226 38.5794L11.1742 42.316C11.4836 42.4947 11.8648 42.4947 12.1742 42.316L18.6462 38.5794C18.9556 38.4008 19.1462 38.0707 19.1462 37.7134V30.2402C19.1462 29.8829 18.9556 29.5528 18.6462 29.3742L12.1742 25.6376Z" fill="#1F1814"/>
<path fill-rule="evenodd" clip-rule="evenodd" d="M10.4422 22.363C11.2049 21.9227 12.1446 21.9227 12.9073 22.363L21.1165 27.1026C21.8792 27.5429 22.349 28.3567 22.349 29.2374V38.7165C22.349 39.5972 21.8792 40.411 21.1165 40.8514L12.9073 45.5909C12.1446 46.0313 11.2049 46.0313 10.4422 45.5909L2.23305 40.8514C1.47034 40.411 1.00049 39.5972 1.00049 38.7165V29.2374C1.00049 28.3567 1.47034 27.5429 2.23305 27.1026L10.4422 22.363ZM12.291 23.4304L20.5002 28.17C20.8815 28.3902 21.1165 28.7971 21.1165 29.2374V38.7165C21.1165 39.1569 20.8815 39.5638 20.5002 39.784L12.291 44.5235C11.9097 44.7437 11.4398 44.7437 11.0585 44.5235L2.84933 39.784C2.46797 39.5638 2.23305 39.1569 2.23305 38.7165V29.2374C2.23305 28.7971 2.46797 28.3902 2.84933 28.17L11.0585 23.4304C11.4398 23.2103 11.9097 23.2103 12.291 23.4304Z" fill="#1F1814"/>
<path d="M35.8254 25.6376C36.1348 25.459 36.516 25.459 36.8254 25.6376L43.2974 29.3742C43.6068 29.5528 43.7974 29.8829 43.7974 30.2402V37.7134C43.7974 38.0707 43.6068 38.4008 43.2974 38.5794L36.8254 42.316C36.516 42.4947 36.1348 42.4947 35.8254 42.316L29.3534 38.5794C29.044 38.4008 28.8534 38.0707 28.8534 37.7134V30.2402C28.8534 29.8829 29.044 29.5528 29.3534 29.3742L35.8254 25.6376Z" fill="#1F1814"/>
<path fill-rule="evenodd" clip-rule="evenodd" d="M37.5585 22.363C36.7958 21.9227 35.8561 21.9227 35.0934 22.363L26.8842 27.1026C26.1215 27.5429 25.6517 28.3567 25.6517 29.2374V38.7165C25.6517 39.5972 26.1215 40.411 26.8842 40.8514L35.0934 45.5909C35.8561 46.0313 36.7958 46.0313 37.5585 45.5909L45.7676 40.8514C46.5303 40.411 47.0002 39.5972 47.0002 38.7165V29.2374C47.0002 28.3567 46.5303 27.5429 45.7676 27.1026L37.5585 22.363ZM45.1513 28.17L36.9422 23.4304C36.5608 23.2103 36.091 23.2103 35.7096 23.4304L27.5005 28.17C27.1191 28.3902 26.8842 28.7971 26.8842 29.2374V38.7165C26.8842 39.1569 27.1191 39.5638 27.5005 39.784L35.7096 44.5235C36.091 44.7437 36.5608 44.7437 36.9422 44.5235L45.1513 39.784C45.5327 39.5638 45.7676 39.1569 45.7676 38.7165V29.2374C45.7676 28.7971 45.5327 28.3902 45.1513 28.17Z" fill="#1F1814"/>
</svg>
