<svg width="36" height="36" viewBox="0 0 36 36" fill="none" xmlns="http://www.w3.org/2000/svg">
<g id="package_2">
<mask id="mask0_863_2806" style="mask-type:alpha" maskUnits="userSpaceOnUse" x="0" y="0" width="36" height="36">
<rect id="Bounding box" width="36" height="36" fill="#D9D9D9"/>
</mask>
<g mask="url(#mask0_863_2806)">
<path id="package_2_2" d="M17.0249 29.129V18.5712L8.09986 13.4049V23.7029C8.09986 23.7799 8.1191 23.852 8.15758 23.9193C8.19603 23.9866 8.25372 24.0443 8.33064 24.0924L17.0249 29.129ZM18.9748 29.129L27.6691 24.1299C27.746 24.0818 27.8037 24.0241 27.8422 23.9568C27.8806 23.8895 27.8999 23.8174 27.8999 23.7404V13.4424L18.9748 18.5712V29.129ZM16.7941 31.2837L7.35568 25.8058C6.97625 25.5876 6.68044 25.2955 6.46824 24.9296C6.25601 24.5637 6.1499 24.1625 6.1499 23.726V12.2741C6.1499 11.8376 6.25601 11.4364 6.46824 11.0706C6.68044 10.7047 6.97625 10.4126 7.35568 10.1943L16.7941 4.71649C17.1743 4.49534 17.577 4.38477 18.0023 4.38477C18.4276 4.38477 18.8287 4.49534 19.2056 4.71649L28.6441 10.1943C29.0235 10.4126 29.3193 10.7047 29.5315 11.0706C29.7437 11.4364 29.8498 11.8376 29.8498 12.2741V23.726C29.8498 24.1625 29.7437 24.5637 29.5315 24.9296C29.3193 25.2955 29.0235 25.5876 28.6441 25.8058L19.2056 31.2837C18.8254 31.5048 18.4227 31.6154 17.9974 31.6154C17.5721 31.6154 17.171 31.5048 16.7941 31.2837ZM23.4835 13.6876L27.1874 11.579L18.1931 6.4299C18.1162 6.38183 18.0393 6.35779 17.9624 6.35779C17.8854 6.35779 17.8085 6.38183 17.7316 6.4299L14.3998 8.3799L23.4835 13.6876ZM17.9999 16.8578L21.6374 14.7636L12.3749 9.52219L8.81233 11.579L17.9999 16.8578Z" fill="#FFFFFF"/>
</g>
</g>
</svg>
