<svg width="32" height="32" viewBox="0 0 32 32" fill="none" xmlns="http://www.w3.org/2000/svg">
<g id="supervisor_account">
<mask id="mask0_2254_750" style="mask-type:alpha" maskUnits="userSpaceOnUse" x="0" y="0" width="32" height="32">
<rect id="Bounding box" width="32" height="32" fill="#D9D9D9"/>
</mask>
<g mask="url(#mask0_2254_750)">
<path id="supervisor_account_2" d="M23.1309 18.2775C22.3396 18.2775 21.6627 17.9988 21.1003 17.4414C20.5379 16.884 20.2567 16.2096 20.2567 15.4183C20.2567 14.627 20.5354 13.9501 21.0928 13.3878C21.6502 12.8254 22.3245 12.5442 23.1159 12.5442C23.9072 12.5442 24.584 12.8229 25.1464 13.3802C25.7088 13.9376 25.99 14.612 25.99 15.4033C25.99 16.1946 25.7113 16.8715 25.1539 17.4339C24.5966 17.9963 23.9222 18.2775 23.1309 18.2775ZM17.8567 23.6057V23.2441C17.8567 23.0578 17.8834 22.8893 17.9366 22.7386C17.9899 22.588 18.0727 22.4479 18.1849 22.3185C18.8789 21.7271 19.6464 21.2835 20.4875 20.9878C21.3285 20.692 22.2071 20.5442 23.1234 20.5442C24.0396 20.5442 24.9182 20.692 25.7593 20.9878C26.6003 21.2835 27.3678 21.7271 28.0618 22.3185C28.1741 22.4479 28.2568 22.588 28.3101 22.7386C28.3634 22.8893 28.39 23.0578 28.39 23.2441V23.6057C28.39 23.9093 28.2873 24.1639 28.0819 24.3693C27.8764 24.5748 27.6219 24.6775 27.3182 24.6775H18.9285C18.6248 24.6775 18.3703 24.5748 18.1649 24.3693C17.9594 24.1639 17.8567 23.9093 17.8567 23.6057ZM12.5439 15.5903C11.3939 15.5903 10.4175 15.1889 9.61473 14.3862C8.81197 13.5834 8.4106 12.607 8.4106 11.457C8.4106 10.307 8.81197 9.33065 9.61473 8.5279C10.4175 7.72512 11.3939 7.32373 12.5439 7.32373C13.6939 7.32373 14.6702 7.72512 15.473 8.5279C16.2758 9.33065 16.6772 10.307 16.6772 11.457C16.6772 12.607 16.2758 13.5834 15.473 14.3862C14.6702 15.1889 13.6939 15.5903 12.5439 15.5903ZM3.6106 22.3786C3.6106 21.8955 3.73452 21.4515 3.98236 21.0465C4.23023 20.6415 4.5687 20.3203 4.99776 20.0827C6.14305 19.4058 7.35501 18.8912 8.63363 18.5391C9.91227 18.187 11.2157 18.0109 12.5439 18.0109C13.5798 18.0109 14.599 18.1194 15.6015 18.3365C16.6041 18.5536 17.5789 18.8852 18.5259 19.3314C18.1088 19.3972 17.725 19.5186 17.3746 19.6955C17.0242 19.8724 16.6849 20.0715 16.3567 20.2929C15.7379 20.1365 15.108 20.0059 14.4669 19.9012C13.8259 19.7965 13.1849 19.7442 12.5439 19.7442C11.3816 19.7442 10.2389 19.8869 9.11576 20.1724C7.99263 20.4578 6.92593 20.9117 5.91566 21.5339C5.77037 21.6262 5.63875 21.7417 5.5208 21.8803C5.40284 22.0189 5.34386 22.1855 5.34386 22.3801V22.9442H14.9439V23.4185C14.9439 23.6553 14.9671 23.884 15.0135 24.1043C15.0599 24.3247 15.1538 24.5157 15.2951 24.6775H5.3695C4.88045 24.6775 4.46504 24.5066 4.12326 24.1648C3.78148 23.823 3.6106 23.4076 3.6106 22.9185V22.3786ZM12.551 13.857C13.2129 13.857 13.7772 13.6213 14.2439 13.1499C14.7105 12.6786 14.9439 12.1119 14.9439 11.4499C14.9439 10.788 14.7082 10.2237 14.2368 9.75703C13.7654 9.29036 13.1987 9.05703 12.5368 9.05703C11.8748 9.05703 11.3105 9.29272 10.8439 9.7641C10.3772 10.2355 10.1439 10.8022 10.1439 11.4641C10.1439 12.1261 10.3796 12.6904 10.851 13.157C11.3223 13.6237 11.889 13.857 12.551 13.857Z" fill="#DBDBDB"/>
</g>
</g>
</svg>
