<svg width="32" height="32" viewBox="0 0 32 32" fill="none" xmlns="http://www.w3.org/2000/svg">
<g id="icon/Traffic">
<rect width="32" height="32" rx="16" fill="#BFFFF4"/>
<g id="Union">
<path d="M22.0278 22.1591C22.3552 22.4786 22.9027 22.4902 23.224 22.135C24.7025 20.5003 25.6 18.3522 25.6 16.0001C25.6 13.648 24.7025 11.4999 23.224 9.86516C22.9027 9.50995 22.3552 9.52161 22.0278 9.84111C21.694 10.167 21.7064 10.6798 21.9999 11.0101C23.1878 12.3472 23.9064 14.0914 23.9064 16.0001C23.9064 17.9088 23.1878 19.653 21.9999 20.99C21.7064 21.3204 21.694 21.8332 22.0278 22.1591Z" fill="#00BE9E"/>
<path d="M9.97216 22.1591C9.64483 22.4786 9.09727 22.4902 8.776 22.135C7.29747 20.5003 6.39999 18.3522 6.39999 16.0001C6.39999 13.648 7.29747 11.4999 8.77599 9.86516C9.09727 9.50995 9.64483 9.52161 9.97216 9.84111C10.306 10.167 10.2936 10.6798 10 11.0101C8.8122 12.3472 8.09364 14.0914 8.09364 16.0001C8.09364 17.9088 8.8122 19.653 10 20.99C10.2936 21.3204 10.306 21.8332 9.97216 22.1591Z" fill="#00BE9E"/>
<path d="M12.4685 18.6018C12.7347 18.9359 12.7557 19.4422 12.4199 19.7699C12.0949 20.0871 11.5396 20.1063 11.2252 19.7313C10.3731 18.7152 9.8616 17.4156 9.8616 16.0001C9.8616 14.5846 10.3731 13.285 11.2252 12.2689C11.5396 11.8939 12.0949 11.9131 12.4199 12.2303C12.7557 12.558 12.7347 13.0643 12.4685 13.3984C11.896 14.1168 11.5552 15.0192 11.5552 16.0001C11.5552 16.981 11.896 17.8834 12.4685 18.6018Z" fill="#00BE9E"/>
<path d="M19.5801 19.7699C19.2443 19.4422 19.2653 18.9359 19.5315 18.6018C20.104 17.8834 20.4447 16.981 20.4447 16.0001C20.4447 15.0192 20.104 14.1168 19.5315 13.3984C19.2653 13.0643 19.2443 12.558 19.5801 12.2303C19.9051 11.9131 20.4604 11.8939 20.7748 12.2689C21.6269 13.285 22.1384 14.5846 22.1384 16.0001C22.1384 17.4156 21.6269 18.7152 20.7748 19.7313C20.4604 20.1063 19.9051 20.0871 19.5801 19.7699Z" fill="#00BE9E"/>
</g>
<path id="Union_2" d="M16 18.4001C17.3255 18.4001 18.4 17.3256 18.4 16.0001C18.4 14.6746 17.3255 13.6001 16 13.6001C14.6745 13.6001 13.6 14.6746 13.6 16.0001C13.6 17.3256 14.6745 18.4001 16 18.4001Z" fill="#00967D"/>
</g>
</svg>
