<svg width="28" height="28" viewBox="0 0 28 28" fill="none" xmlns="http://www.w3.org/2000/svg">
<g id="visibility">
<mask id="mask0_2254_3450" style="mask-type:alpha" maskUnits="userSpaceOnUse" x="0" y="0" width="28" height="28">
<rect id="Bounding box" width="28" height="28" fill="#D9D9D9"/>
</mask>
<g mask="url(#mask0_2254_3450)">
<path id="visibility_2" d="M14.0027 18.4061C15.2274 18.4061 16.2675 17.9775 17.1231 17.1202C17.9786 16.2628 18.4064 15.2218 18.4064 13.9971C18.4064 12.7724 17.9778 11.7323 17.1205 10.8767C16.2631 10.0211 15.2221 9.59336 13.9974 9.59336C12.7727 9.59336 11.7325 10.022 10.877 10.8793C10.0214 11.7366 9.59365 12.7777 9.59365 14.0024C9.59365 15.2271 10.0223 16.2672 10.8796 17.1228C11.7369 17.9784 12.778 18.4061 14.0027 18.4061ZM14 16.7997C13.2223 16.7997 12.5611 16.5275 12.0167 15.9831C11.4723 15.4386 11.2 14.7775 11.2 13.9997C11.2 13.222 11.4723 12.5609 12.0167 12.0164C12.5611 11.472 13.2223 11.1997 14 11.1997C14.7778 11.1997 15.4389 11.472 15.9834 12.0164C16.5278 12.5609 16.8 13.222 16.8 13.9997C16.8 14.7775 16.5278 15.4386 15.9834 15.9831C15.4389 16.5275 14.7778 16.7997 14 16.7997ZM14 21.8164C11.6218 21.8164 9.42912 21.1856 7.42187 19.9239C5.4146 18.6623 3.80371 17.0016 2.58919 14.942C2.49197 14.794 2.42578 14.642 2.39062 14.486C2.35547 14.3301 2.33789 14.17 2.33789 14.0059C2.33789 13.8417 2.35547 13.6797 2.39062 13.5196C2.42578 13.3596 2.49197 13.2055 2.58919 13.0575C3.80371 10.9978 5.4146 9.33722 7.42187 8.07559C9.42912 6.81393 11.6218 6.18311 14 6.18311C16.3782 6.18311 18.5709 6.81393 20.5782 8.07559C22.5855 9.33722 24.1964 10.9978 25.4109 13.0575C25.5081 13.2055 25.5743 13.3575 25.6094 13.5135C25.6446 13.6694 25.6622 13.8294 25.6622 13.9936C25.6622 14.1577 25.6446 14.3198 25.6094 14.4799C25.5743 14.6399 25.5081 14.794 25.4109 14.942C24.1964 17.0016 22.5855 18.6623 20.5782 19.9239C18.5709 21.1856 16.3782 21.8164 14 21.8164Z" fill="#1F1F1F"/>
</g>
</g>
</svg>
