<svg width="24" height="24" viewBox="0 0 24 24" fill="none" xmlns="http://www.w3.org/2000/svg">
<path d="M23.6641 2.97566L18.6646 0.0893066C18.5633 0.0308008 18.4483 0 18.3313 0C18.2143 0 18.0994 0.0308008 17.998 0.0893066L12.9986 2.97566C12.8968 3.03438 12.8124 3.11895 12.7539 3.22079C12.6954 3.32263 12.6648 3.43813 12.6653 3.55559V4.59548L12.332 4.40216C12.2306 4.34366 12.1157 4.31286 11.9987 4.31286C11.8817 4.31286 11.7667 4.34366 11.6654 4.40216L11.3321 4.59548V3.55559C11.3326 3.43813 11.302 3.32263 11.2434 3.22079C11.1849 3.11895 11.1005 3.03438 10.9988 2.97566L5.99934 0.0893066C5.89801 0.0308008 5.78306 0 5.66605 0C5.54904 0 5.43408 0.0308008 5.33275 0.0893066L0.333302 2.97566C0.231577 3.03438 0.147177 3.11895 0.0886476 3.22079C0.0301185 3.32263 -0.000461072 3.43813 5.25468e-06 3.55559V9.33495C-0.000461072 9.45241 0.0301185 9.56791 0.0886476 9.66975C0.147177 9.77159 0.231577 9.85616 0.333302 9.91489L5.33275 12.7946C5.43408 12.8531 5.54904 12.8839 5.66605 12.8839C5.78306 12.8839 5.89801 12.8531 5.99934 12.7946L6.33264 12.6013V13.6411C6.33409 13.7401 6.35758 13.8376 6.4014 13.9264C6.44521 14.0151 6.50826 14.093 6.58594 14.1544C6.50826 14.2158 6.44521 14.2937 6.4014 14.3825C6.35758 14.4713 6.33409 14.5687 6.33264 14.6677V20.4404C6.33217 20.5579 6.36275 20.6734 6.42128 20.7752C6.47981 20.877 6.56421 20.9616 6.66594 21.0203L11.6654 23.9067C11.7667 23.9652 11.8817 23.996 11.9987 23.996C12.1157 23.996 12.2306 23.9652 12.332 23.9067L17.3314 21.027C17.4332 20.9683 17.5176 20.8837 17.5761 20.7819C17.6346 20.68 17.6652 20.5645 17.6647 20.4471V14.6677C17.6643 14.5676 17.6412 14.4688 17.5974 14.3788C17.5535 14.2888 17.49 14.2098 17.4114 14.1478C17.4891 14.0864 17.5521 14.0085 17.596 13.9197C17.6398 13.8309 17.6633 13.7335 17.6647 13.6345V12.6013L17.998 12.7946C18.0994 12.8531 18.2143 12.8839 18.3313 12.8839C18.4483 12.8839 18.5633 12.8531 18.6646 12.7946L23.6641 9.90823C23.7648 9.85006 23.8486 9.76654 23.9071 9.66597C23.9655 9.5654 23.9967 9.45128 23.9974 9.33495V3.55559C23.9978 3.43813 23.9672 3.32263 23.9087 3.22079C23.8502 3.11895 23.7658 3.03438 23.6641 2.97566ZM5.66605 11.4481L1.33319 8.94166V3.94222L5.66605 1.43582L9.9989 3.94222V5.3354L6.66594 7.26185C6.56421 7.32058 6.47981 7.40515 6.42128 7.50699C6.36275 7.60883 6.33217 7.72433 6.33264 7.84179V11.0348L5.66605 11.4481ZM9.9989 6.11531V8.92167L6.99923 10.6681V7.86845L9.9989 6.11531ZM16.3315 20.0404L11.9987 22.5668L7.66583 20.0604V15.061L7.89247 14.9277L11.6654 17.1008C11.7667 17.1593 11.8817 17.1901 11.9987 17.1901C12.1157 17.1901 12.2306 17.1593 12.332 17.1008L16.1049 14.9277L16.3315 15.061V20.0404ZM8.55906 14.541L11.9987 12.5413L15.4383 14.541L11.9987 16.5408L8.55906 14.541ZM16.9981 13.6411L16.7715 13.7745L12.332 11.2081C12.2306 11.1496 12.1157 11.1188 11.9987 11.1188C11.8817 11.1188 11.7667 11.1496 11.6654 11.2081L7.22587 13.7745L6.99923 13.6411V12.2146L10.9988 9.90823C11.0995 9.85006 11.1833 9.76654 11.2418 9.66597C11.3003 9.5654 11.3314 9.45128 11.3321 9.33495V5.3354L11.9987 4.95544L12.6653 5.3354V9.33495C12.6648 9.45241 12.6954 9.56791 12.7539 9.66975C12.8124 9.77159 12.8968 9.85616 12.9986 9.91489L16.9981 12.2213V13.6411ZM16.9981 10.6748L13.9985 8.94166V6.13531L16.9981 7.86845V10.6748ZM22.6642 8.94166L18.3313 11.4481L17.6647 11.0614V7.86845C17.6652 7.75099 17.6346 7.63549 17.5761 7.53365C17.5176 7.43181 17.4332 7.34724 17.3314 7.28851L13.9985 5.3354V3.94222L18.3313 1.43582L22.6642 3.94222V8.94166Z" fill="#226FFF"/>
</svg>
