<svg width="420" height="151" viewBox="0 0 420 151" fill="none" xmlns="http://www.w3.org/2000/svg">
<path d="M144 13.7315C144 6.70008 149.7 1 156.731 1H336.269C343.3 1 349 6.70008 349 13.7315V150H144V13.7315Z" stroke="black" stroke-width="2"/>
<path d="M165 13L165 150" stroke="black" stroke-width="2"/>
<path d="M144.079 13.7305H349.268" stroke="black" stroke-width="2"/>
<circle cx="159.782" cy="7.78904" r="2.47068" fill="#FF4D4D" stroke="black"/>
<circle cx="169.118" cy="7.78904" r="2.47068" fill="#FEBE01" stroke="black"/>
<circle cx="178.455" cy="7.78904" r="2.47068" fill="#29CC5F" stroke="black"/>
<circle cx="154.265" cy="46.4098" r="4.24383" fill="#FEBE01"/>
<circle cx="154.265" cy="62.5368" r="4.24383" fill="#FEBE01"/>
<circle cx="154.265" cy="97.3356" r="4.24383" fill="#FEBE01"/>
<path d="M175.484 44.166C175.484 43.0614 176.38 42.166 177.484 42.166H203.616C204.72 42.166 205.616 43.0614 205.616 44.166V47.8049C205.616 48.9095 204.72 49.8049 203.616 49.8049H177.484C176.38 49.8049 175.484 48.9095 175.484 47.8049V44.166Z" fill="#FEBE01"/>
<path d="M192.036 61.141C192.036 60.0364 192.931 59.141 194.036 59.141H241.81C242.915 59.141 243.81 60.0364 243.81 61.141V64.7799C243.81 65.8845 242.915 66.7799 241.81 66.7799H194.036C192.931 66.7799 192.036 65.8845 192.036 64.7799V61.141Z" fill="#FEBE01"/>
<path d="M228.956 111C228.956 109.896 229.852 109 230.956 109H278.731C279.836 109 280.731 109.896 280.731 111V114.639C280.731 115.744 279.836 116.639 278.731 116.639H230.956C229.852 116.639 228.956 115.744 228.956 114.639V111Z" fill="#FEBE01"/>
<path d="M175.484 95.0917C175.484 93.9871 176.38 93.0917 177.484 93.0917H193.006C194.111 93.0917 195.006 93.9871 195.006 95.0917V98.7306C195.006 99.8352 194.111 100.731 193.006 100.731H177.484C176.38 100.731 175.484 99.8352 175.484 98.7306V95.0917Z" fill="#FEBE01"/>
<g opacity="0.3">
<path d="M246.781 61.141C246.781 60.0364 247.676 59.141 248.781 59.141H264.302C265.407 59.141 266.302 60.0364 266.302 61.141V64.7799C266.302 65.8845 265.407 66.7799 264.302 66.7799H248.781C247.676 66.7799 246.781 65.8845 246.781 64.7799V61.141Z" fill="#DBDBDB"/>
<path d="M200.948 95.0917C200.948 93.9871 201.843 93.0917 202.948 93.0917H250.722C251.827 93.0917 252.722 93.9871 252.722 95.0917V98.7306C252.722 99.8352 251.827 100.731 250.722 100.731H202.948C201.843 100.731 200.948 99.8352 200.948 98.7306V95.0917Z" fill="#DBDBDB"/>
<path d="M268 44.166C268 43.0614 268.895 42.166 270 42.166H286.37C287.475 42.166 288.37 43.0614 288.37 44.166V47.8049C288.37 48.9095 287.475 49.8049 286.37 49.8049H270C268.895 49.8049 268 48.9095 268 47.8049V44.166Z" fill="#DBDBDB"/>
<path d="M211.557 44.166C211.557 43.0614 212.452 42.166 213.557 42.166H260.059C261.163 42.166 262.059 43.0614 262.059 44.166V47.8049C262.059 48.9095 261.163 49.8049 260.059 49.8049H213.557C212.452 49.8049 211.557 48.9095 211.557 47.8049V44.166Z" fill="#DBDBDB"/>
<path d="M192.036 78.1167C192.036 77.0121 192.931 76.1167 194.036 76.1167H221.44C222.545 76.1167 223.44 77.0121 223.44 78.1167V81.7556C223.44 82.8602 222.545 83.7556 221.44 83.7556H194.036C192.931 83.7556 192.036 82.8602 192.036 81.7556V78.1167Z" fill="#DBDBDB"/>
<path d="M192.036 128.193C192.036 127.089 192.931 126.193 194.036 126.193H239.688C240.793 126.193 241.688 127.089 241.688 128.193V131.832C241.688 132.937 240.793 133.832 239.688 133.832H194.036C192.931 133.832 192.036 132.937 192.036 131.832V128.193Z" fill="#DBDBDB"/>
<path d="M192.036 111.001C192.036 109.896 192.931 109.001 194.036 109.001H220.167C221.271 109.001 222.167 109.896 222.167 111.001V114.639C222.167 115.744 221.271 116.639 220.167 116.639H194.036C192.931 116.639 192.036 115.744 192.036 114.639V111.001Z" fill="#DBDBDB"/>
</g>
<path d="M68.9495 75.3305L68.7318 75.4627C68.1664 75.806 67.429 75.6586 66.9931 75.1678C63.9672 71.7613 54.753 63.8721 49.9577 66.0035C47.43 67.127 49.9357 82.1923 51.9011 87.458C52.0617 87.8883 52.003 88.3647 51.7357 88.7419C48.9637 92.653 43.2041 103.477 48.0979 111.419C48.2473 111.662 48.3225 111.943 48.3106 112.229C48.2238 114.301 48.2925 123.147 55.5494 125.738" stroke="black" stroke-width="2.19321" stroke-linecap="round" stroke-linejoin="round"/>
<path d="M91.9651 65.9142C93.2887 64.276 101.249 55.4836 104.537 57.031C107.825 58.5783 109.639 73.4587 107.203 78.9744C110.028 80.3305 113.442 86.8381 112.08 90.2275C118.902 89.0845 125.966 93.0943 129.308 102.23C133.219 112.919 128.122 128.918 111.458 131.104" stroke="black" stroke-width="2.19321" stroke-linecap="round" stroke-linejoin="round"/>
<path d="M103.182 115.26C100.963 117.34 94.5259 115.938 93.1373 110.249" stroke="black" stroke-width="2.19321" stroke-linecap="round"/>
<ellipse cx="7.54017" cy="7.50076" rx="7.54017" ry="7.50076" transform="matrix(-0.883226 0.468947 0.524053 0.851686 118.458 93.2285)" fill="black"/>
<path d="M68.9442 75.2828C68.8444 71.3302 72.68 65.0606 77.1661 64.6366C81.6523 64.2125 79.0166 65.8672 79.3294 67.5154C81.0593 65.7797 87.0901 64.0036 90.944 65.8663C94.7979 67.7291 91.1503 69.551 89.6484 70.844C91.3206 70.8824 94.2722 73.5761 94.7708 77.1297C95.2694 80.6832 88.4501 78.0341 84.7194 77.1297C85.4768 78.2797 87.0292 82.7709 84.7194 83.9816C82.4096 85.1924 77.1661 82.7059 75.9613 81.3639" stroke="black" stroke-width="2.19321" stroke-linecap="round" stroke-linejoin="round"/>
<path d="M83.876 132.568C81.2016 132.875 74.9775 133.014 71.4759 131.113" stroke="black" stroke-width="2.19321" stroke-linecap="round" stroke-linejoin="round"/>
<path d="M66.5018 110.107C68.4523 110.107 72.6835 111.308 74.0039 116.109" stroke="black" stroke-width="2.19321" stroke-linecap="round" stroke-linejoin="round"/>
<path d="M69.6727 137.801C71.4589 132.443 70.139 132.29 70.8497 128.973C71.8702 124.211 66.3022 114.691 59.6684 117.498C55.8467 119.115 54.489 122.775 55.3644 124.945C55.5707 125.456 55.6352 126.054 55.393 126.549C54.0841 129.225 53.0266 134.143 53.2326 136.858C53.2508 137.097 53.2131 137.336 53.1154 137.555C51.3021 141.621 52.2687 144.665 55.4839 148.533" stroke="black" stroke-width="2.19321" stroke-linecap="round" stroke-linejoin="round"/>
<path d="M126.467 122.501C128.468 121.07 131.337 119.286 135.006 118.646C135.218 118.609 135.419 118.523 135.587 118.388C137.861 116.555 140.316 114.187 143.107 113.791" stroke="black" stroke-width="2.19321" stroke-linecap="round" stroke-linejoin="round"/>
<path d="M127.643 149.573C127.643 149.573 127.643 146.354 128.667 141.965C128.759 141.569 129.047 141.25 129.419 141.087C135.368 138.47 142.679 130.369 143.533 128.092" stroke="black" stroke-width="2.19321" stroke-linecap="round" stroke-linejoin="round"/>
<path d="M91.6592 88.7376C82.9347 88.9487 76.4344 92.1364 73.6044 94.1687C73.1613 94.4869 73.0249 95.0759 73.2516 95.5721C77.8917 105.726 83.8615 104.461 87.697 103.731C91.446 103.017 94.1753 95.5057 92.8122 89.6083C92.6897 89.0784 92.2029 88.7245 91.6592 88.7376Z" fill="black" stroke="black" stroke-width="1.09661" stroke-linecap="round" stroke-linejoin="round"/>
<path d="M93.1364 94.1782C93.0739 92.3027 97.826 88.9263 102.702 90.09" stroke="black" stroke-width="2.19321" stroke-linecap="round" stroke-linejoin="round"/>
<path d="M113.978 81.9812C105.606 82.1033 102.171 83.9081 99.8908 85.6766C99.44 86.0264 99.3117 86.6509 99.5791 87.155C103.793 95.1016 108.636 95.0524 112.079 93.6029C115.591 92.1242 116.662 88.374 115.15 82.8535C115.006 82.329 114.522 81.9732 113.978 81.9812Z" fill="black" stroke="black" stroke-width="1.09661" stroke-linecap="round" stroke-linejoin="round"/>
<rect y="149" width="420" height="2" rx="1" fill="black"/>
</svg>
