<svg width="22" height="22" viewBox="0 0 22 22" fill="none" xmlns="http://www.w3.org/2000/svg">
<path fill-rule="evenodd" clip-rule="evenodd" d="M4.58333 3.66667C4.07707 3.66667 3.66667 4.07707 3.66667 4.58333V9.16667C3.66667 9.67293 4.07707 10.0833 4.58333 10.0833H15.5833C16.0896 10.0833 16.5 9.67293 16.5 9.16667V4.58333C16.5 4.07707 16.0896 3.66667 15.5833 3.66667H4.58333ZM12.375 5.04167C11.8687 5.04167 11.4583 5.45207 11.4583 5.95833V7.79167C11.4583 8.29793 11.8687 8.70833 12.375 8.70833H14.2083C14.7146 8.70833 15.125 8.29793 15.125 7.79167V5.95833C15.125 5.45207 14.7146 5.04167 14.2083 5.04167H12.375Z" fill="#1F1814"/>
<path d="M3.66667 12.8333C3.66667 12.3271 4.07707 11.9167 4.58333 11.9167H17.4167C17.9229 11.9167 18.3333 12.3271 18.3333 12.8333V17.4167C18.3333 17.9229 17.9229 18.3333 17.4167 18.3333H4.58333C4.07707 18.3333 3.66667 17.9229 3.66667 17.4167V12.8333Z" fill="#1F1814"/>
<path fill-rule="evenodd" clip-rule="evenodd" d="M0 3.66667C0 1.64162 1.64162 0 3.66667 0H14.9812C15.9537 0 16.8863 0.386308 17.5739 1.07394L20.9261 4.42606C21.6137 5.11369 22 6.04632 22 7.01878V18.3333C22 20.3584 20.3584 22 18.3333 22H3.66667C1.64162 22 0 20.3584 0 18.3333V3.66667ZM0.916667 18.3333V3.66667C0.916667 2.14788 2.14788 0.916667 3.66667 0.916667H14.9812C15.7106 0.916667 16.41 1.2064 16.9258 1.72212L20.2779 5.07424C20.7936 5.58996 21.0833 6.28944 21.0833 7.01878V18.3333C21.0833 19.8521 19.8521 21.0833 18.3333 21.0833H3.66667C2.14788 21.0833 0.916667 19.8521 0.916667 18.3333Z" fill="#1F1814"/>
</svg>
