<svg width="24" height="22" viewBox="0 0 24 22" fill="none" xmlns="http://www.w3.org/2000/svg">
<path d="M3.69231 4.58333C3.69231 3.56999 4.51803 2.75 5.53846 2.75H18.4615C19.482 2.75 20.3077 3.56999 20.3077 4.58333V6.88216L7.85336 19.25H5.53846C4.51803 19.25 3.69231 18.43 3.69231 17.4167V4.58333Z" fill="#1F1814"/>
<path d="M9.15865 19.25L20.3077 8.17839V10.7708L11.7692 19.25H9.15865Z" fill="#1F1814"/>
<path d="M13.0745 19.25L20.3077 12.0671V14.6613L15.6851 19.25H13.0745Z" fill="#1F1814"/>
<path d="M16.9904 19.25L20.3077 15.9575V17.4167C20.3077 18.43 19.482 19.25 18.4615 19.25H16.9904Z" fill="#1F1814"/>
<path fill-rule="evenodd" clip-rule="evenodd" d="M24 14.6667C24 14.9388 23.881 15.1823 23.6899 15.3506C23.5276 15.4956 23.3113 15.5833 23.0769 15.5833V18.3333C23.0769 20.3582 21.4255 22 19.3846 22H4.61538C2.57452 22 0.923077 20.3582 0.923077 18.3333V15.5833C0.414663 15.5833 0 15.1733 0 14.6667V7.33333C0 6.82666 0.414663 6.41667 0.923077 6.41667V3.66667C0.923077 1.64176 2.57452 0 4.61538 0H19.3846C21.4255 0 23.0769 1.64176 23.0769 3.66667V6.41667C23.5853 6.41667 24 6.82666 24 7.33333V14.6667ZM22.1538 7.33333H23.0769V14.6667H22.1538V18.3333C22.1538 19.8516 20.9171 21.0833 19.3846 21.0833H4.61538C3.08293 21.0833 1.84615 19.8516 1.84615 18.3333V14.6667H0.923077V7.33333H1.84615V3.66667C1.84615 2.71598 2.33293 1.87988 3.07212 1.38574C3.51202 1.09033 4.04207 0.916667 4.61538 0.916667H19.3846C20.9171 0.916667 22.1538 2.14844 22.1538 3.66667V7.33333Z" fill="#1F1814"/>
</svg>
