<svg width="22" height="20" viewBox="0 0 22 20" fill="none" xmlns="http://www.w3.org/2000/svg">
<path fill-rule="evenodd" clip-rule="evenodd" d="M19.4024 0.526316C19.4024 0.23564 19.6372 0 19.9268 0H20.9756C21.2652 0 21.5 0.23564 21.5 0.526316V19.4737C21.5 19.7644 21.2652 20 20.9756 20H19.9268C19.6372 20 19.4024 19.7644 19.4024 19.4737V15.2555L15.4896 18.0343C15.1354 18.2859 14.7121 18.4211 14.2781 18.4211H13.1098V20H11.5366V18.4211H10.4878V20H8.91463V18.4211H7.86585V20H6.29268V18.4211H5.2439V20H3.67073V18.4211H2.09756C0.93911 18.4211 0 17.4785 0 16.3158V6.35479C0 5.74496 0.263464 5.1651 0.722218 4.76524L4.39002 1.56835C4.7716 1.23576 5.25999 1.05263 5.76536 1.05263H19.4024V0.526316ZM14.2781 17.8947C14.6036 17.8947 14.921 17.7934 15.1868 17.6047L19.4024 14.6107V13.1856L14.355 16.6577C14.1805 16.7778 13.9738 16.8421 13.7621 16.8421H2.62195C2.04273 16.8421 1.57317 16.3708 1.57317 15.7895V6.81157C1.57317 6.51014 1.70192 6.22317 1.9268 6.02338L5.44681 2.89602C5.63858 2.72564 5.88585 2.63158 6.14196 2.63158H19.4024V1.57895H5.76536C5.38633 1.57895 5.02004 1.7163 4.73386 1.96574L1.06605 5.16263C0.721988 5.46252 0.52439 5.89742 0.52439 6.35479V16.3158C0.52439 17.1878 1.22872 17.8947 2.09756 17.8947H14.2781ZM14.3918 5.01473H18.2664V6.12584H14.3918V5.01473ZM18.2664 7.23696H14.3918V8.34807H18.2664V7.23696ZM11.0706 10.5703C11.0706 12.4112 9.5837 13.9036 7.74949 13.9036C5.91528 13.9036 4.42835 12.4112 4.42835 10.5703C4.42835 8.72934 5.91528 7.23696 7.74949 7.23696C9.5837 7.23696 11.0706 8.72934 11.0706 10.5703Z" fill="#1F1814"/>
</svg>
