<svg width="16" height="12" viewBox="0 0 16 12" fill="none" xmlns="http://www.w3.org/2000/svg">
<path d="M1.75674 11.5834C1.38163 11.5834 1.06456 11.4538 0.805534 11.1946C0.546506 10.9354 0.416992 10.6181 0.416992 10.2428V1.75058C0.416992 1.37525 0.546506 1.05911 0.805534 0.802165C1.06456 0.54522 1.38163 0.416748 1.75674 0.416748H14.2439C14.619 0.416748 14.936 0.546346 15.1951 0.805541C15.4541 1.06474 15.5836 1.382 15.5836 1.75733V10.2495C15.5836 10.6249 15.4541 10.941 15.1951 11.198C14.936 11.4549 14.619 11.5834 14.2439 11.5834H1.75674ZM1.75674 10.5001H14.2439C14.308 10.5001 14.3667 10.4734 14.4202 10.4199C14.4736 10.3665 14.5003 10.3077 14.5003 10.2436V3.00006H1.5003V10.2436C1.5003 10.3077 1.52701 10.3665 1.58043 10.4199C1.63386 10.4734 1.69263 10.5001 1.75674 10.5001ZM5.1718 6.75006L3.86089 5.43914C3.75085 5.32912 3.69316 5.20012 3.68783 5.05214C3.68248 4.90417 3.7375 4.77185 3.85289 4.65517C3.96292 4.54643 4.09192 4.49473 4.23989 4.50008C4.38786 4.50541 4.51686 4.5631 4.62689 4.67314L6.23908 6.28533C6.37583 6.41703 6.4442 6.57067 6.4442 6.74627C6.4442 6.92187 6.37583 7.07804 6.23908 7.21479L4.61889 8.83498C4.5035 8.95037 4.37796 9.00192 4.24228 8.98962C4.1066 8.97735 3.98375 8.91619 3.87372 8.80614C3.75833 8.69076 3.70064 8.56442 3.70064 8.42715C3.70064 8.28987 3.75833 8.16353 3.87372 8.04814L5.1718 6.75006ZM8.75031 9.29171C8.59657 9.29171 8.46786 9.24029 8.36418 9.13746C8.2605 9.03461 8.20866 8.90694 8.20866 8.75446C8.20866 8.60196 8.2605 8.47283 8.36418 8.36706C8.46786 8.2613 8.59657 8.20842 8.75031 8.20842H12.2503C12.404 8.20842 12.5328 8.25983 12.6364 8.36267C12.7401 8.46551 12.792 8.59318 12.792 8.74567C12.792 8.89817 12.7401 9.0273 12.6364 9.13306C12.5328 9.23882 12.404 9.29171 12.2503 9.29171H8.75031Z" fill="white"/>
</svg>
