<svg width="24" height="24" viewBox="0 0 24 24" fill="none" xmlns="http://www.w3.org/2000/svg">
<path fill-rule="evenodd" clip-rule="evenodd" d="M2.91046 15.9445C2.53159 15.5656 2.53159 14.9514 2.91046 14.5725L14.5725 2.91046C14.9514 2.53159 15.5656 2.53159 15.9445 2.91046L21.0895 8.05548C21.4684 8.43435 21.4684 9.04862 21.0895 9.42749L9.42749 21.0895C9.04862 21.4684 8.43435 21.4684 8.05548 21.0895L2.91046 15.9445ZM7.58123 13.5342C7.3367 13.2892 6.89591 13.3329 6.59669 13.6317L5.51312 14.7139C5.2139 15.0127 5.16956 15.4536 5.41409 15.6986L8.29199 18.582C8.53652 18.827 8.97731 18.7834 9.27653 18.4846L10.3601 17.4024C10.6593 17.1036 10.7037 16.6627 10.4591 16.4177L7.58123 13.5342ZM10.2902 10.8288C10.0456 10.5838 9.60484 10.6274 9.30562 10.9263L8.22205 12.0084C7.92283 12.3073 7.87849 12.7481 8.12301 12.9931L11.0009 15.8766C11.2454 16.1216 11.6862 16.078 11.9855 15.7791L13.069 14.697C13.3682 14.3981 13.4126 13.9573 13.1681 13.7123L10.2902 10.8288ZM10.931 9.30303C10.6318 9.60186 10.5874 10.0427 10.8319 10.2877L13.7098 13.1712C13.9544 13.4162 14.3952 13.3726 14.6944 13.0737L15.778 11.9916C16.0772 11.6927 16.1215 11.2519 15.877 11.0069L12.9991 8.12339C12.7546 7.87839 12.3138 7.92203 12.0145 8.22086L10.931 9.30303ZM15.708 5.41797C15.4635 5.17297 15.0227 5.21661 14.7235 5.51544L13.6399 6.59761C13.3407 6.89644 13.2963 7.3373 13.5409 7.5823L16.4188 10.4658C16.6633 10.7108 17.1041 10.6671 17.4033 10.3683L18.4869 9.28613C18.7861 8.9873 18.8304 8.54644 18.5859 8.30144L15.708 5.41797Z" fill="#1F1814"/>
<path fill-rule="evenodd" clip-rule="evenodd" d="M6.68348 23.1475C7.82009 24.2842 9.66289 24.2842 10.7995 23.1475L11.4855 22.4615L12.5145 23.4905C12.8934 23.8694 13.5076 23.8694 13.8865 23.4905L23.4905 13.8865C23.8694 13.5076 23.8694 12.8934 23.4905 12.5145L22.4615 11.4855L23.1475 10.7995C24.2842 9.66289 24.2842 7.82009 23.1475 6.68348L17.3165 0.852455C16.1799 -0.284152 14.3371 -0.284152 13.2005 0.852455L0.852455 13.2005C-0.284152 14.3371 -0.284152 16.1799 0.852455 17.3165L6.68348 23.1475ZM13.8865 1.53846L1.53846 13.8865C0.78072 14.6442 0.78072 15.8728 1.53846 16.6305L7.36948 22.4615C8.12722 23.2193 9.35575 23.2193 10.1135 22.4615L22.4615 10.1135C23.2193 9.35575 23.2193 8.12722 22.4615 7.36948L16.6305 1.53846C15.8728 0.78072 14.6442 0.780719 13.8865 1.53846Z" fill="#1F1814"/>
</svg>
