<svg width="16" height="16" viewBox="0 0 16 16" fill="none" xmlns="http://www.w3.org/2000/svg">
<path fill-rule="evenodd" clip-rule="evenodd" d="M2 1.9C2 1.1268 2.6268 0.5 3.4 0.5H10V2.5C10 3.60457 10.8954 4.5 12 4.5H14V14.1C14 14.8732 13.3732 15.5 12.6 15.5H3.4C2.6268 15.5 2 14.8732 2 14.1V1.9ZM5 8.375C5 8.58211 5.16789 8.75 5.375 8.75H10.625C10.8321 8.75 11 8.58211 11 8.375C11 8.16789 10.8321 8 10.625 8H5.375C5.16789 8 5 8.16789 5 8.375ZM5.375 9.5C5.16789 9.5 5 9.66789 5 9.875C5 10.0821 5.16789 10.25 5.375 10.25H10.625C10.8321 10.25 11 10.0821 11 9.875C11 9.66789 10.8321 9.5 10.625 9.5H5.375ZM5 11.375C5 11.5821 5.16789 11.75 5.375 11.75H8.375C8.58211 11.75 8.75 11.5821 8.75 11.375C8.75 11.1679 8.58211 11 8.375 11H5.375C5.16789 11 5 11.1679 5 11.375Z" fill="#38AFFF"/>
<path d="M11.4 4.5H14L10 0.5V3.1C10 3.8732 10.6268 4.5 11.4 4.5Z" fill="#74C7FF"/>
</svg>
