<svg width="16" height="16" viewBox="0 0 16 16" fill="none" xmlns="http://www.w3.org/2000/svg">
<rect width="16" height="16" rx="8" fill="#E8F4FF"/>
<path d="M4.88921 4H5.7781V4.88889H4.88921V7.11111C4.88921 7.34686 4.79556 7.57295 4.62886 7.73965C4.46217 7.90635 4.23607 8 4.00033 8C4.23607 8 4.46217 8.09365 4.62886 8.26035C4.79556 8.42705 4.88921 8.65314 4.88921 8.88889V11.1111H5.7781V12H4.88921C4.41366 11.88 4.00033 11.6 4.00033 11.1111V9.33333C4.00033 9.2166 3.97733 9.10102 3.93266 8.99317C3.88799 8.88533 3.82252 8.78733 3.73998 8.70479C3.65743 8.62225 3.55944 8.55678 3.4516 8.51211C3.34375 8.46744 3.22817 8.44444 3.11144 8.44444H2.66699V7.55556H3.11144C3.34718 7.55556 3.57328 7.46191 3.73998 7.29521C3.90667 7.12851 4.00033 6.90241 4.00033 6.66667V4.88889C4.00033 4.65314 4.09398 4.42705 4.26068 4.26035C4.42737 4.09365 4.65347 4 4.88921 4ZM11.1114 4C11.3472 4 11.5733 4.09365 11.74 4.26035C11.9067 4.42705 12.0003 4.65314 12.0003 4.88889V6.66667C12.0003 6.90241 12.094 7.12851 12.2607 7.29521C12.4274 7.46191 12.6535 7.55556 12.8892 7.55556H13.3337V8.44444H12.8892C12.7725 8.44444 12.6569 8.46744 12.5491 8.51211C12.4412 8.55678 12.3432 8.62225 12.2607 8.70479C12.1781 8.78733 12.1127 8.88533 12.068 8.99317C12.0233 9.10102 12.0003 9.2166 12.0003 9.33333V11.1111C12.0003 11.3469 11.9067 11.573 11.74 11.7397C11.5733 11.9064 11.3472 12 11.1114 12H10.2225V11.1111H11.1114V8.88889C11.1114 8.65314 11.2051 8.42705 11.3718 8.26035C11.5385 8.09365 11.7646 8 12.0003 8C11.7646 8 11.5385 7.90635 11.3718 7.73965C11.2051 7.57295 11.1114 7.34686 11.1114 7.11111V4.88889H10.2225V4H11.1114ZM8.00033 9.33333C8.1182 9.33333 8.23125 9.38016 8.31459 9.46351C8.39794 9.54686 8.44477 9.6599 8.44477 9.77778C8.44477 9.89565 8.39794 10.0087 8.31459 10.092C8.23125 10.1754 8.1182 10.2222 8.00033 10.2222C7.88245 10.2222 7.7694 10.1754 7.68606 10.092C7.60271 10.0087 7.55588 9.89565 7.55588 9.77778C7.55588 9.6599 7.60271 9.54686 7.68606 9.46351C7.7694 9.38016 7.88245 9.33333 8.00033 9.33333ZM6.22255 9.33333C6.28091 9.33333 6.33871 9.34483 6.39263 9.36716C6.44655 9.3895 6.49555 9.42224 6.53682 9.46351C6.57809 9.50478 6.61083 9.55377 6.63316 9.6077C6.6555 9.66162 6.66699 9.71941 6.66699 9.77778C6.66699 9.89565 6.62017 10.0087 6.53682 10.092C6.45347 10.1754 6.34042 10.2222 6.22255 10.2222C6.10467 10.2222 5.99163 10.1754 5.90828 10.092C5.82493 10.0087 5.7781 9.89565 5.7781 9.77778C5.7781 9.6599 5.82493 9.54686 5.90828 9.46351C5.99163 9.38016 6.10467 9.33333 6.22255 9.33333ZM9.7781 9.33333C9.89598 9.33333 10.009 9.38016 10.0924 9.46351C10.1757 9.54686 10.2225 9.6599 10.2225 9.77778C10.2225 9.89565 10.1757 10.0087 10.0924 10.092C10.009 10.1754 9.89598 10.2222 9.7781 10.2222C9.66023 10.2222 9.54718 10.1754 9.46383 10.092C9.38048 10.0087 9.33366 9.89565 9.33366 9.77778C9.33366 9.6599 9.38048 9.54686 9.46383 9.46351C9.54718 9.38016 9.66023 9.33333 9.7781 9.33333Z" fill="#3377FF"/>
</svg>
