<svg width="23" height="16" viewBox="0 0 23 16" fill="none" xmlns="http://www.w3.org/2000/svg">
<path fill-rule="evenodd" clip-rule="evenodd" d="M20.7552 5.56906C21.9495 5.56906 22.5155 5.99267 22.5779 6.04319L22.8004 6.2103L22.7106 6.47845C22.5662 6.84765 22.3398 7.17799 22.051 7.45003C21.6178 7.87752 20.8294 8.38662 19.5492 8.38662H19.3423C18.8233 9.68853 18.1246 11.1575 16.9576 12.475C16.259 13.2639 15.4355 13.9324 14.5222 14.4609C13.4137 15.0866 12.2077 15.5219 10.9548 15.7511C10.0532 15.9183 9.13605 16.0038 8.21885 15.9999C6.18539 15.9999 4.39392 15.6151 3.29328 14.9428C2.30973 14.3443 1.55255 13.3689 1.04516 12.0397C0.604127 10.8311 0.38556 9.55251 0.401172 8.26615C0.401172 7.8814 0.71341 7.5705 1.09981 7.5705H15.857C16.0365 7.56661 16.9303 7.48889 17.4845 7.18187C17.024 6.45902 16.8952 5.61181 17.1098 4.71019C17.223 4.23606 17.4143 3.78914 17.6797 3.38108L17.8904 3.07795L18.2105 3.26449L18.2122 3.26549C18.2903 3.31202 19.5823 4.0818 19.8107 5.65067C20.1229 5.59238 20.4391 5.56906 20.7552 5.56906ZM4.44466 7.14689H2.46585C2.37218 7.14689 2.29412 7.07306 2.29412 6.9759V5.21929C2.29412 5.12602 2.37218 5.0483 2.46585 5.0483H4.44466C4.53833 5.05218 4.61639 5.12991 4.61639 5.22318V6.9759C4.61639 7.06917 4.53833 7.14689 4.44466 7.14689ZM7.17285 7.14689H5.19403C5.09646 7.14689 5.0184 7.07306 5.0184 6.9759V5.22318C5.0184 5.12602 5.09646 5.0483 5.19403 5.0483H7.17285C7.26652 5.05218 7.34458 5.12991 7.34458 5.22318V6.9759C7.34458 7.06917 7.26652 7.14689 7.17285 7.14689ZM9.93616 7.15078H7.95735C7.86368 7.14689 7.78561 7.07306 7.78561 6.97978V5.22318C7.78561 5.12991 7.86368 5.05218 7.95735 5.05218H9.93616C10.0298 5.05607 10.1079 5.13379 10.1079 5.22707V6.97978C10.1079 7.07306 10.0298 7.15078 9.93616 7.15078ZM12.6721 7.15078H10.6933C10.5958 7.15078 10.5216 7.07306 10.5216 6.97978V5.22318C10.5216 5.12991 10.5997 5.05218 10.6933 5.05218H12.6721C12.7697 5.05218 12.8478 5.12991 12.8478 5.22707V6.97978C12.8439 7.07306 12.7658 7.15078 12.6721 7.15078ZM7.16894 4.62469H5.19013C5.09646 4.62469 5.0184 4.54696 5.0145 4.44981V2.69709C5.0184 2.60382 5.09256 2.52609 5.19013 2.52609H7.16894C7.26262 2.52609 7.34067 2.60382 7.34067 2.69709V4.44981C7.34067 4.54696 7.26262 4.62469 7.16894 4.62469ZM9.93616 4.62469H7.95735C7.86368 4.62469 7.78561 4.54696 7.78561 4.44981V2.69709C7.78561 2.60382 7.86368 2.52609 7.95735 2.52609H9.93616C10.0298 2.52609 10.1079 2.60382 10.1079 2.69709V4.44981C10.1079 4.54696 10.0298 4.62469 9.93616 4.62469ZM12.6721 4.62469H10.6933C10.5958 4.62469 10.5216 4.54696 10.5216 4.44981V2.69709C10.5216 2.60382 10.5997 2.52609 10.6933 2.52609H12.6721C12.7697 2.52609 12.8478 2.59993 12.8478 2.69709V4.44981C12.8439 4.54696 12.7697 4.62469 12.6721 4.62469ZM12.6721 2.10249H10.6933C10.5958 2.10249 10.5216 2.02476 10.5216 1.9276V0.170997C10.5216 0.0777256 10.5997 0 10.6933 0H12.6721C12.7697 0 12.8478 0.0777256 12.8478 0.170997V1.9276C12.8478 2.02476 12.7697 2.10249 12.6721 2.10249ZM15.4277 7.15078H13.4488C13.3552 7.15078 13.2771 7.07306 13.2771 6.97978V5.22318C13.2771 5.12991 13.3552 5.05218 13.4488 5.05218H15.4277C15.5213 5.05607 15.5994 5.12991 15.5994 5.22707V6.97978C15.5994 7.07306 15.5213 7.15078 15.4277 7.15078ZM4.40039 12.8C4.84222 12.8 5.20039 12.4418 5.20039 12C5.20039 11.5582 4.84222 11.2 4.40039 11.2C3.95856 11.2 3.60039 11.5582 3.60039 12C3.60039 12.4418 3.95856 12.8 4.40039 12.8Z" fill="#226FFF"/>
</svg>
