<svg width="16" height="16" viewBox="0 0 16 16" fill="none" xmlns="http://www.w3.org/2000/svg">
<path d="M15.1332 14.2221H0.866703C0.485683 14.2221 0.177734 13.9488 0.177734 13.6108V3.62982C0.177734 3.29177 0.485683 3.01855 0.866703 3.01855H15.1332C15.5142 3.01855 15.8222 3.29177 15.8222 3.62982V13.6108C15.8222 13.9473 15.5125 14.2221 15.1332 14.2221Z" fill="#85C6FF"/>
<path d="M8.00871 5.9721H0.177734V2.46546C0.177734 2.08491 0.486033 1.77734 0.867474 1.77734H6.22688C6.53171 1.77734 6.79992 1.97544 6.88701 2.26736L8.00871 5.9721Z" fill="#4093E6"/>
<path d="M15.1332 14.2226H0.866703C0.485683 14.2226 0.177734 13.9153 0.177734 13.5351V4.65034C0.177734 4.27016 0.485683 3.96289 0.866703 3.96289H15.1332C15.5142 3.96289 15.8222 4.27016 15.8222 4.65034V13.5351C15.8222 13.9136 15.5125 14.2226 15.1332 14.2226Z" fill="#51AEFF"/>
</svg>
