<svg width="136" height="90" viewBox="0 0 136 90" fill="none" xmlns="http://www.w3.org/2000/svg">
<path d="M72.9588 29.0184L70 27.6807" stroke="#5C5551" stroke-width="0.888889"/>
<path d="M74.8533 24.826L72.6749 21.7623" stroke="#5C5551" stroke-width="0.888889"/>
<path d="M80.0253 23.8981L80.5998 20.0002" stroke="#5C5551" stroke-width="0.888889"/>
<path d="M33.509 42.2373C29.5402 45.1237 20.8451 51.7082 17.8145 54.9553" stroke="#5C5551" stroke-width="0.888889"/>
<path d="M11.3214 60.3672C7.08208 64.2457 -0.747134 73.3558 1.85058 78.7677C4.44829 84.1796 28.5491 75.9716 40.2748 71.191" stroke="#5C5551" stroke-width="0.888889"/>
<path d="M5.63867 86.886C7.35244 88.3292 12.0763 89.5945 18.3566 89.0508C30.5 87.9995 39.4631 82.8271 43.2514 80.1211" stroke="#5C5551" stroke-width="0.888889"/>
<path d="M90.875 10.0366C99.1732 6.51882 117.556 -0.191962 124.699 1.1069" stroke="#5C5551" stroke-width="0.888889"/>
<path d="M128.759 9.22461C127.136 14.6365 118.206 23.8368 103.594 34.1194" stroke="#5C5551" stroke-width="0.888889"/>
<path d="M133.63 11.6602C135.705 13.3739 136.065 20.1028 120.912 33.3078" stroke="#5C5551" stroke-width="0.888889"/>
<path d="M105.758 45.4845C108.013 44.0414 112.739 40.722 113.605 38.9902" stroke="#5C5551" stroke-width="0.888889"/>
<path d="M107.923 9.76675C111.441 8.59417 118.693 6.95256 119.558 9.76675C120.424 12.581 113.425 18.8768 109.817 21.6729" stroke="#5C5551" stroke-width="0.888889"/>
<path d="M78.9692 3.8125L35.1328 15.1775L52.1803 75.791" stroke="#5C5551" stroke-width="0.888889"/>
<path d="M76.2643 9.76562L85.7351 6.78906C87.379 12.6487 88.8416 17.8623 90.214 22.7542M59.2168 78.497L102.512 66.5908C101.934 64.5313 101.379 62.5516 100.842 60.6377" stroke="#5C5551" stroke-width="0.888889"/>
<path d="M30.5332 15.9893L45.6865 72.8144" stroke="#5C5551" stroke-width="0.888889"/>
<path d="M50.0166 43.8608L66.5229 39.5312" stroke="#5C5551" stroke-width="0.888889"/>
<path d="M51.0986 49.5434L68.4167 45.2139" stroke="#5C5551" stroke-width="0.888889"/>
<path d="M52.7227 54.9555L70.3113 50.626" stroke="#5C5551" stroke-width="0.888889"/>
<path d="M54.3457 60.9089L63.5459 58.7441" stroke="#5C5551" stroke-width="0.888889"/>
<path d="M57.3228 73.6268L55.6992 66.8619L72.7467 61.9912L74.9115 68.4855L57.3228 73.6268Z" fill="#64605D"/>
<path d="M54.3466 34.3899L51.6406 24.3778L62.1938 21.6719L64.6292 31.1427L54.3466 34.3899Z" fill="#ADADAD"/>
<path d="M58.7714 24.3784C58.7714 28.1528 55.5935 31.24 51.6392 31.24C47.6848 31.24 44.5069 28.1528 44.5069 24.3784C44.5069 20.6039 47.6848 17.5167 51.6392 17.5167C55.5935 17.5167 58.7714 20.6039 58.7714 24.3784Z" stroke="#5C5551" stroke-width="0.888889"/>
<path d="M29.1804 53.873C23.3175 58.2928 11.8623 67.944 12.9447 71.1912C14.027 74.4383 24.2195 71.101 29.1804 69.0264" stroke="#5C5551" stroke-width="0.888889"/>
<path d="M13.757 61.9912L10.2393 56.5793L16.1923 53.0615L19.1689 58.2028L13.757 61.9912Z" fill="#64605D"/>
<path d="M21.6031 74.168L19.9795 76.0621C20.8815 78.0465 23.2266 80.3917 24.0384 79.8505C24.8502 79.3093 24.4894 75.3406 24.0384 74.168H21.6031Z" fill="#ADADAD" stroke="white" stroke-width="0.811787"/>
<path d="M116.582 40.0726L114.417 35.2019L119.017 33.0371L116.582 40.0726Z" fill="#64605D"/>
<path d="M131.29 4.08327C131.29 5.93005 129.793 7.42716 127.947 7.42716C126.1 7.42716 124.603 5.93005 124.603 4.08327C124.603 2.23648 126.1 0.739366 127.947 0.739366C129.793 0.739366 131.29 2.23648 131.29 4.08327Z" stroke="#5C5551" stroke-width="0.888889"/>
</svg>
