<svg width="16" height="16" viewBox="0 0 16 16" fill="none" xmlns="http://www.w3.org/2000/svg">
<rect width="16" height="16" rx="8" fill="white"/>
<rect width="16" height="16" rx="8" fill="#FFF035"/>
<path d="M12.2734 3.10682C11.9591 3.20641 10.8188 4.70303 10.493 4.97754L10.3482 4.86889C10.2575 4.80085 10.1621 4.73948 10.0625 4.68526L7.78569 3.44544C7.64656 3.23675 7.11402 2.24001 6.70912 2.32994C6.30423 2.41987 6.1232 4.6245 6.06072 5.24898C5.84203 5.44257 5.43162 5.96986 5.61157 6.35954C4.84687 6.17805 3.70283 6.42866 3.10248 7.55921C2.27529 9.11691 3.63304 11.3241 5.8118 10.7432C5.43448 11.0515 5.1882 11.7236 5.62958 12.3407C5.1637 12.6648 5.14722 13.6106 5.59652 13.9531H12.3607C13.0309 12.8943 12.5347 11.4759 11.9293 10.9883C11.8435 10.9192 11.825 10.79 11.8896 10.7008C12.3673 10.0414 12.2787 9.2336 11.8757 8.66892C11.8245 8.59717 11.8267 8.49866 11.8817 8.42971C12.4405 7.72815 12.3014 6.92734 12.0706 6.50359C12.0445 6.45569 12.0379 6.39958 12.056 6.34812C12.5031 5.07422 12.658 2.98495 12.2734 3.10682Z" fill="white"/>
<path fill-rule="evenodd" clip-rule="evenodd" d="M12.1728 3.57856C12.1592 3.59201 12.1451 3.6061 12.1307 3.62081C11.9819 3.77186 11.8052 3.97044 11.6231 4.18038C11.5428 4.27296 11.4596 4.36994 11.3781 4.46493C11.28 4.57921 11.1844 4.69061 11.0993 4.78804C11.0506 4.84377 11.0024 4.89846 10.9559 4.94995L11.3213 5.24533C11.4553 5.35366 11.4761 5.55012 11.3678 5.68413C11.2595 5.81814 11.063 5.83896 10.929 5.73063L10.3011 5.22307L10.0247 5.0156C9.88683 4.91217 9.85894 4.71659 9.96238 4.57876C10.0658 4.44094 10.2614 4.41305 10.3992 4.51648L10.463 4.56437C10.5112 4.51165 10.5668 4.4491 10.6293 4.37753C10.7154 4.27899 10.8059 4.17344 10.9007 4.06303C10.9814 3.96893 11.0651 3.87131 11.1517 3.77149C11.3347 3.56051 11.5224 3.3491 11.686 3.18295C11.7676 3.10009 11.8478 3.02384 11.9215 2.96307C11.9859 2.91002 12.0779 2.84079 12.179 2.80873C12.2677 2.78063 12.3694 2.7801 12.4669 2.82381C12.5574 2.86443 12.6164 2.93071 12.653 2.98615C12.722 3.09051 12.7541 3.22056 12.7724 3.33157C12.8108 3.56582 12.8116 3.88366 12.7878 4.22514C12.741 4.89518 12.5929 5.73752 12.3682 6.39887C12.6198 6.89673 12.7559 7.77214 12.177 8.55643C12.5906 9.18754 12.6842 10.0641 12.1963 10.805C12.8532 11.3865 13.41 12.6192 12.656 13.8105C12.5638 13.9561 12.371 13.9994 12.2254 13.9073C12.0798 13.8151 12.0365 13.6224 12.1287 13.4768C12.6877 12.5936 12.2578 11.653 11.7335 11.2306C11.5209 11.0594 11.4728 10.7435 11.6368 10.5171C12.0243 9.98228 11.9589 9.32209 11.6216 8.84951C11.4901 8.66523 11.4951 8.41339 11.6375 8.23466C12.098 7.65662 11.9845 6.99742 11.7965 6.65217C11.7326 6.53473 11.7113 6.38708 11.7615 6.24413C11.9739 5.63897 12.1202 4.8266 12.1652 4.18167C12.182 3.94105 12.1839 3.73532 12.1728 3.57856Z" fill="black"/>
<path fill-rule="evenodd" clip-rule="evenodd" d="M7.98962 3.18196C8.01549 3.22443 8.03473 3.25604 8.04543 3.27208C8.14102 3.41546 8.10228 3.60918 7.9589 3.70477C7.81552 3.80036 7.6218 3.76161 7.52621 3.61823C7.49682 3.57415 7.46322 3.51885 7.42487 3.45575C7.34085 3.31751 7.23407 3.1418 7.099 2.9645C7.00481 2.84086 6.91535 2.74324 6.83822 2.68378C6.82737 2.67541 6.8177 2.6685 6.80916 2.66279C6.78925 2.70316 6.76656 2.75916 6.74248 2.83282C6.67524 3.03854 6.61573 3.32301 6.56465 3.63858C6.47781 4.17499 6.42157 4.75938 6.38715 5.11706C6.38124 5.17843 6.37598 5.23313 6.37131 5.27976C6.36349 5.35792 6.32647 5.43026 6.26766 5.48233C6.18286 5.55739 6.05071 5.70843 5.96306 5.87544C5.86956 6.0536 5.86725 6.16842 5.89497 6.22844C5.94504 6.33687 5.92883 6.46436 5.85321 6.5568C5.7776 6.64925 5.65585 6.69042 5.53965 6.66284C4.8884 6.50827 3.90073 6.72122 3.37817 7.70526C3.02789 8.36489 3.13512 9.17644 3.57912 9.765C4.01394 10.3414 4.76948 10.6979 5.73154 10.4414C6.64645 10.1975 6.98602 10.0765 7.40717 9.9264C7.46496 9.9058 7.52429 9.88466 7.58686 9.86258C7.74935 9.80523 7.92758 9.89046 7.98493 10.053C8.04228 10.2155 7.95704 10.3937 7.79455 10.451C7.73265 10.4729 7.67366 10.4939 7.61598 10.5144C7.19856 10.6632 6.84951 10.7875 5.9635 11.0253C5.71604 11.2647 5.57396 11.7262 5.88349 12.1589C5.93204 12.2268 5.95137 12.3113 5.93716 12.3936C5.92296 12.4758 5.87639 12.5489 5.80788 12.5966C5.51333 12.8015 5.50675 13.1831 5.78541 13.3955C5.92245 13.5 5.94885 13.6958 5.84438 13.8328C5.73991 13.9699 5.54412 13.9963 5.40708 13.8918C4.8688 13.4814 4.81839 12.7552 5.23157 12.2808C5.03917 11.8867 5.04701 11.4869 5.16663 11.1496C4.27571 11.1668 3.54272 10.7529 3.08095 10.1408C2.50819 9.38157 2.35013 8.31066 2.82703 7.41259C3.40435 6.32543 4.43261 5.95485 5.26743 5.99727C5.29214 5.84262 5.35028 5.70021 5.4105 5.58545C5.51024 5.3954 5.64387 5.22566 5.76147 5.10407C5.76279 5.09029 5.76416 5.07605 5.76557 5.06138C5.79974 4.70589 5.8582 4.09753 5.94864 3.53886C6.00124 3.21396 6.06681 2.89139 6.14934 2.63893C6.19021 2.51391 6.24002 2.39087 6.30312 2.28991C6.35922 2.20016 6.46487 2.06432 6.6416 2.02506C6.88078 1.97194 7.08722 2.0878 7.21921 2.18956C7.36015 2.29821 7.48845 2.44596 7.59539 2.58635C7.75248 2.79254 7.9058 3.04432 7.98962 3.18196ZM6.84873 2.59804C6.84875 2.59817 6.84773 2.59943 6.84559 2.60145C6.84764 2.59892 6.84871 2.59791 6.84873 2.59804Z" fill="black"/>
<path fill-rule="evenodd" clip-rule="evenodd" d="M5.79591 8.98289C5.68909 9.11816 5.71212 9.31435 5.84734 9.4211C5.96853 9.51676 6.12157 9.56094 6.25758 9.5785C6.39949 9.59681 6.55471 9.59041 6.70544 9.5589C6.99571 9.49821 7.34333 9.32473 7.48947 8.95956C7.5535 8.79955 7.47572 8.61799 7.31573 8.55404C7.15574 8.49008 6.97414 8.56794 6.9101 8.72794C6.87246 8.82199 6.76104 8.90983 6.57798 8.9481C6.49203 8.96607 6.40702 8.96857 6.33773 8.95962C6.26718 8.95052 6.23721 8.93303 6.23438 8.93138C6.23419 8.93127 6.23412 8.93123 6.23417 8.93126C6.09894 8.82451 5.90273 8.84763 5.79591 8.98289Z" fill="black"/>
<ellipse cx="4.18966" cy="7.46334" rx="0.869413" ry="0.971428" transform="rotate(32.8118 4.18966 7.46334)" fill="black"/>
<path d="M9.68731 3.30508C10.1923 3.3839 10.2502 4.28158 10.2131 4.76256L9.37934 5.46101C9.17619 5.5415 8.70652 5.6621 8.45298 5.5006C8.19944 5.33911 8.32247 5.02765 8.41568 4.89211C7.98756 4.97973 7.1512 5.04749 7.23078 4.61754C7.31036 4.1876 7.70926 4.091 7.89877 4.09644C7.73721 3.92982 7.52618 3.54567 7.9745 3.34203C8.42282 3.1384 8.90387 3.53138 9.08836 3.75332C9.13449 3.5544 9.18234 3.22627 9.68731 3.30508Z" fill="white"/>
<path fill-rule="evenodd" clip-rule="evenodd" d="M10.4565 3.80768C10.5403 4.14557 10.5444 4.52632 10.5244 4.78622C10.5112 4.95802 10.3612 5.08658 10.1893 5.07337C10.0175 5.06016 9.88895 4.91019 9.90218 4.73839C9.91921 4.51731 9.91294 4.20873 9.85076 3.95784C9.78152 3.67849 9.68662 3.62047 9.6393 3.61308C9.54492 3.59835 9.49643 3.60665 9.47669 3.61255C9.46189 3.61698 9.4585 3.62106 9.45589 3.6242L9.45568 3.62446C9.44967 3.63167 9.4391 3.64851 9.42705 3.68522C9.4168 3.71647 9.41019 3.74567 9.40108 3.78588C9.39847 3.79742 9.39566 3.80986 9.39249 3.82351C9.36571 3.93896 9.27582 4.02928 9.16049 4.05663C9.04515 4.08398 8.92428 4.04364 8.84852 3.9525C8.77756 3.86713 8.64344 3.74379 8.48997 3.6664C8.33719 3.58935 8.20949 3.57777 8.10369 3.62582C8.03353 3.65769 8.01829 3.68304 8.01788 3.68371L8.01788 3.68372C8.01779 3.68386 8.01773 3.68398 8.01767 3.68407C8.01754 3.6849 8.01707 3.68858 8.01795 3.69601C8.02013 3.71434 8.02926 3.74437 8.05104 3.78281C8.07229 3.82029 8.09926 3.85455 8.12299 3.87902C8.21135 3.97015 8.23567 4.10574 8.18449 4.22192C8.13331 4.33809 8.01683 4.41169 7.88992 4.40804C7.84318 4.4067 7.75531 4.41988 7.68005 4.46345C7.62708 4.49412 7.57917 4.53936 7.55208 4.61862C7.58091 4.62659 7.6184 4.63355 7.66481 4.6383C7.87239 4.65954 8.15324 4.62716 8.3533 4.58621C8.478 4.5607 8.60569 4.61345 8.67598 4.71952C8.74627 4.8256 8.74508 4.96373 8.67296 5.0686C8.66212 5.08437 8.64773 5.10947 8.6357 5.13902C8.62355 5.16886 8.61702 5.1953 8.61516 5.21528C8.61434 5.224 8.61456 5.22975 8.61489 5.2331C8.61625 5.23415 8.61817 5.23553 8.62083 5.23722C8.6541 5.25842 8.74373 5.27924 8.89967 5.26135C9.04255 5.24495 9.18399 5.20264 9.26457 5.17072C9.42479 5.10724 9.60613 5.18563 9.6696 5.34581C9.73308 5.506 9.65465 5.68731 9.49442 5.75079C9.37186 5.79936 9.17688 5.85759 8.97075 5.88125C8.77769 5.9034 8.50571 5.90378 8.28545 5.76348C8.07914 5.63207 8.00127 5.4399 7.99167 5.26282C7.86079 5.27125 7.72626 5.27182 7.60119 5.25903C7.45751 5.24432 7.28148 5.20809 7.141 5.10784C7.06563 5.05406 6.99526 4.97795 6.95284 4.8748C6.91024 4.77122 6.90514 4.663 6.9241 4.56056C6.98244 4.24537 7.16489 4.04072 7.36736 3.92349C7.386 3.9127 7.40478 3.90265 7.42363 3.89331C7.41205 3.85358 7.40328 3.81229 7.39823 3.76971C7.38298 3.64146 7.40149 3.49687 7.48406 3.36055C7.5653 3.22644 7.69202 3.12751 7.84562 3.05774C8.18815 2.90216 8.52513 2.98525 8.77107 3.10927C8.8424 3.14524 8.90979 3.18632 8.97229 3.22986C8.97357 3.22828 8.97487 3.22671 8.97617 3.22515C9.14737 3.01965 9.40995 2.94575 9.73564 2.99658C10.1933 3.06801 10.3798 3.49824 10.4565 3.80768ZM8.61211 5.23063C8.61212 5.23063 8.61224 5.23075 8.61244 5.231C8.61219 5.23076 8.61209 5.23063 8.61211 5.23063Z" fill="black"/>
<ellipse cx="7.01036" cy="6.69271" rx="0.401962" ry="0.501304" fill="black"/>
<ellipse cx="9.01003" cy="7.03553" rx="0.435811" ry="0.539432" fill="black"/>
</svg>
