<svg width="20" height="20" viewBox="0 0 20 20" fill="none" xmlns="http://www.w3.org/2000/svg">
<circle opacity="0.1" cx="10" cy="10" r="7.5" stroke="#00BE9E" stroke-width="4"/>
<path d="M15.3033 4.6967L16.7175 3.28249L16.7175 3.28249L15.3033 4.6967ZM4.6967 4.6967L3.28249 3.28248L4.6967 4.6967ZM0.5 10C0.5 11.1046 1.39543 12 2.5 12C3.60457 12 4.5 11.1046 4.5 10H0.5ZM19.5 10C19.5 7.48044 18.4991 5.06408 16.7175 3.28249L13.8891 6.11091C14.9205 7.14236 15.5 8.54131 15.5 10H19.5ZM16.7175 3.28249C14.9359 1.50089 12.5196 0.5 10 0.5V4.5C11.4587 4.5 12.8576 5.07946 13.8891 6.11091L16.7175 3.28249ZM10 0.5C7.48044 0.5 5.06408 1.50089 3.28249 3.28248L6.11091 6.11091C7.14236 5.07946 8.54131 4.5 10 4.5V0.5ZM3.28249 3.28248C1.50089 5.06408 0.5 7.48044 0.5 10H4.5C4.5 8.54131 5.07946 7.14236 6.11091 6.11091L3.28249 3.28248Z" fill="url(#paint0_linear_409_12937)"/>
<defs>
<linearGradient id="paint0_linear_409_12937" x1="2.5" y1="10" x2="16" y2="10" gradientUnits="userSpaceOnUse">
<stop stop-color="#00BE9E"/>
<stop offset="1" stop-color="#00BE9E" stop-opacity="0"/>
</linearGradient>
</defs>
</svg>
