<svg width="32" height="32" viewBox="0 0 32 32" fill="none" xmlns="http://www.w3.org/2000/svg">
<g id="&#232;&#135;&#170;&#229;&#174;&#154;&#228;&#185;&#137;&#230;&#149;&#176;&#230;&#141;&#174;&#229;&#164;&#132;&#231;&#144;&#134; 1">
<g id="Group 39994">
<path id="Vector" d="M24.3454 25.6H23.5428C23.361 25.6 23.1865 25.5277 23.0579 25.3991C22.9293 25.2705 22.8571 25.0961 22.8571 24.9142C22.8571 24.7324 22.9293 24.558 23.0579 24.4294C23.1865 24.3008 23.361 24.2285 23.5428 24.2285H24.3454C24.5072 23.771 24.8255 23.3854 25.2441 23.1399C25.6626 22.8943 26.1545 22.8047 26.6328 22.8867C27.1111 22.9688 27.545 23.2173 27.8578 23.5883C28.1705 23.9593 28.3421 24.429 28.3421 24.9142C28.3421 25.3995 28.1705 25.8692 27.8578 26.2402C27.545 26.6112 27.1111 26.8597 26.6328 26.9418C26.1545 27.0238 25.6626 26.9342 25.2441 26.6886C24.8255 26.4431 24.5072 26.0575 24.3454 25.6ZM7.65482 24.2285H8.4571C8.63897 24.2285 8.81338 24.3008 8.94198 24.4294C9.07057 24.558 9.14282 24.7324 9.14282 24.9142C9.14282 25.0961 9.07057 25.2705 8.94198 25.3991C8.81338 25.5277 8.63897 25.6 8.4571 25.6H7.65447C7.49272 26.0575 7.17443 26.4431 6.75586 26.6886C6.33729 26.9342 5.8454 27.0238 5.36711 26.9418C4.88883 26.8597 4.45496 26.6112 4.14217 26.2402C3.82939 25.8692 3.65784 25.3995 3.65784 24.9142C3.65784 24.429 3.82939 23.9593 4.14217 23.5883C4.45496 23.2173 4.88883 22.9688 5.36711 22.8867C5.8454 22.8047 6.33729 22.8943 6.75586 23.1399C7.17443 23.3854 7.49272 23.771 7.65447 24.2285H7.65482ZM24.3451 17.0285H23.5428C23.361 17.0285 23.1865 16.9563 23.0579 16.8277C22.9293 16.6991 22.8571 16.5247 22.8571 16.3428C22.8571 16.1609 22.9293 15.9865 23.0579 15.8579C23.1865 15.7293 23.361 15.6571 23.5428 15.6571H24.3454C24.5072 15.1996 24.8255 14.814 25.2441 14.5684C25.6626 14.3229 26.1545 14.2332 26.6328 14.3153C27.1111 14.3973 27.545 14.6458 27.8578 15.0168C28.1705 15.3879 28.3421 15.8575 28.3421 16.3428C28.3421 16.8281 28.1705 17.2977 27.8578 17.6687C27.545 18.0398 27.1111 18.2882 26.6328 18.3703C26.1545 18.4524 25.6626 18.3627 25.2441 18.1172C24.8255 17.8716 24.5072 17.486 24.3454 17.0285H24.3451ZM7.65482 15.6571H8.4571C8.63897 15.6571 8.81338 15.7293 8.94198 15.8579C9.07057 15.9865 9.14282 16.1609 9.14282 16.3428C9.14282 16.5247 9.07057 16.6991 8.94198 16.8277C8.81338 16.9563 8.63897 17.0285 8.4571 17.0285H7.65447C7.49272 17.486 7.17443 17.8716 6.75586 18.1172C6.33729 18.3627 5.8454 18.4524 5.36711 18.3703C4.88883 18.2882 4.45496 18.0398 4.14217 17.6687C3.82939 17.2977 3.65784 16.8281 3.65784 16.3428C3.65784 15.8575 3.82939 15.3879 4.14217 15.0168C4.45496 14.6458 4.88883 14.3973 5.36711 14.3153C5.8454 14.2332 6.33729 14.3229 6.75586 14.5684C7.17443 14.814 7.49272 15.1996 7.65447 15.6571H7.65482ZM24.3451 8.1142H23.5428C23.361 8.1142 23.1865 8.04196 23.0579 7.91336C22.9293 7.78477 22.8571 7.61035 22.8571 7.42849C22.8571 7.24663 22.9293 7.07221 23.0579 6.94361C23.1865 6.81502 23.361 6.74277 23.5428 6.74277H24.3454C24.5072 6.28525 24.8255 5.89965 25.2441 5.65411C25.6626 5.40857 26.1545 5.31891 26.6328 5.40097C27.1111 5.48303 27.545 5.73153 27.8578 6.10255C28.1705 6.47357 28.3421 6.94322 28.3421 7.42849C28.3421 7.91376 28.1705 8.38341 27.8578 8.75443C27.545 9.12545 27.1111 9.37395 26.6328 9.45601C26.1545 9.53807 25.6626 9.44841 25.2441 9.20287C24.8255 8.95733 24.5072 8.57172 24.3454 8.1142H24.3451ZM7.65482 6.74277H8.4571C8.63897 6.74277 8.81338 6.81502 8.94198 6.94361C9.07057 7.07221 9.14282 7.24663 9.14282 7.42849C9.14282 7.61035 9.07057 7.78477 8.94198 7.91336C8.81338 8.04196 8.63897 8.1142 8.4571 8.1142H7.65447C7.49272 8.57172 7.17443 8.95733 6.75586 9.20287C6.33729 9.44841 5.8454 9.53807 5.36711 9.45601C4.88883 9.37395 4.45496 9.12545 4.14217 8.75443C3.82939 8.38341 3.65784 7.91376 3.65784 7.42849C3.65784 6.94322 3.82939 6.47357 4.14217 6.10255C4.45496 5.73153 4.88883 5.48303 5.36711 5.40097C5.8454 5.31891 6.33729 5.40857 6.75586 5.65411C7.17443 5.89965 7.49272 6.28525 7.65447 6.74277H7.65482Z" fill="#4FE9CC"/>
<path id="Subtract" fill-rule="evenodd" clip-rule="evenodd" d="M19.4284 4H12.5713C11.1999 4 10.5142 4.68572 10.5142 6.05715V9.48572C10.5142 10.8572 11.1999 11.5429 12.5713 11.5429H19.4284C20.7999 11.5429 21.4856 10.8572 21.4856 9.48572V6.05715C21.4856 4.68572 20.7999 4 19.4284 4ZM18.2284 7.42871H13.7713C13.4284 7.42871 13.257 7.60014 13.257 7.943C13.257 8.28586 13.4284 8.45728 13.7713 8.45728H18.2284C18.5713 8.45728 18.7427 8.28586 18.7427 7.943C18.7427 7.60014 18.5713 7.42871 18.2284 7.42871Z" fill="#226FFF"/>
<path id="Subtract_2" fill-rule="evenodd" clip-rule="evenodd" d="M19.4284 12.2285H12.5713C11.1999 12.2285 10.5142 12.9142 10.5142 14.2857V17.7142C10.5142 19.0857 11.1999 19.7714 12.5713 19.7714H19.4284C20.7999 19.7714 21.4856 19.0857 21.4856 17.7142V14.2857C21.4856 12.9142 20.7999 12.2285 19.4284 12.2285ZM18.2284 15.6572H13.7713C13.4284 15.6572 13.257 15.8287 13.257 16.1715C13.257 16.5144 13.4284 16.6858 13.7713 16.6858H18.2284C18.5713 16.6858 18.7427 16.5144 18.7427 16.1715C18.7427 15.8287 18.5713 15.6572 18.2284 15.6572Z" fill="#226FFF"/>
<path id="Subtract_3" fill-rule="evenodd" clip-rule="evenodd" d="M19.4284 20.457H12.5713C11.1999 20.457 10.5142 21.1427 10.5142 22.5142V25.9428C10.5142 27.3142 11.1999 27.9999 12.5713 27.9999H19.4284C20.7999 27.9999 21.4856 27.3142 21.4856 25.9428V22.5142C21.4856 21.1427 20.7999 20.457 19.4284 20.457ZM18.2284 23.8857H13.7713C13.4284 23.8857 13.257 24.0572 13.257 24.4C13.257 24.7429 13.4284 24.9143 13.7713 24.9143H18.2284C18.5713 24.9143 18.7427 24.7429 18.7427 24.4C18.7427 24.0572 18.5713 23.8857 18.2284 23.8857Z" fill="#226FFF"/>
</g>
</g>
</svg>
