<svg width="32" height="32" viewBox="0 0 32 32" fill="none" xmlns="http://www.w3.org/2000/svg">
<rect width="32" height="32" rx="16" fill="#E8F4FF"/>
<path fill-rule="evenodd" clip-rule="evenodd" d="M26.7547 13.5691C27.9491 13.5691 28.515 13.9927 28.5774 14.0432L28.7999 14.2103L28.7101 14.4785C28.5657 14.8477 28.3393 15.178 28.0505 15.45C27.6173 15.8775 26.8289 16.3866 25.5487 16.3866H25.3419C24.8228 17.6885 24.1241 19.1575 22.9571 20.475C22.2585 21.2639 21.435 21.9324 20.5217 22.4609C19.4132 23.0866 18.2072 23.5219 16.9543 23.7511C16.0528 23.9183 15.1356 24.0038 14.2184 23.9999C12.1849 23.9999 10.3934 23.6151 9.29279 22.9428C8.30924 22.3443 7.55206 21.3689 7.04468 20.0397C6.60364 18.8311 6.38507 17.5525 6.40068 16.2661C6.40068 15.8814 6.71292 15.5705 7.09932 15.5705H21.8565C22.036 15.5666 22.9298 15.4889 23.484 15.1819C23.0235 14.459 22.8947 13.6118 23.1094 12.7102C23.2225 12.2361 23.4138 11.7891 23.6792 11.3811L23.8899 11.0779L24.21 11.2645L24.2117 11.2655C24.2898 11.312 25.5818 12.0818 25.8102 13.6507C26.1225 13.5924 26.4386 13.5691 26.7547 13.5691ZM10.4442 15.1469H8.46536C8.37169 15.1469 8.29363 15.0731 8.29363 14.9759V13.2193C8.29363 13.126 8.37169 13.0483 8.46536 13.0483H10.4442C10.5378 13.0522 10.6159 13.1299 10.6159 13.2232V14.9759C10.6159 15.0692 10.5378 15.1469 10.4442 15.1469ZM13.1724 15.1469H11.1935C11.096 15.1469 11.0179 15.0731 11.0179 14.9759V13.2232C11.0179 13.126 11.096 13.0483 11.1935 13.0483H13.1724C13.266 13.0522 13.3441 13.1299 13.3441 13.2232V14.9759C13.3441 15.0692 13.266 15.1469 13.1724 15.1469ZM15.9357 15.1508H13.9569C13.8632 15.1469 13.7851 15.0731 13.7851 14.9798V13.2232C13.7851 13.1299 13.8632 13.0522 13.9569 13.0522H15.9357C16.0293 13.0561 16.1074 13.1338 16.1074 13.2271V14.9798C16.1074 15.0731 16.0293 15.1508 15.9357 15.1508ZM18.6717 15.1508H16.6928C16.5953 15.1508 16.5211 15.0731 16.5211 14.9798V13.2232C16.5211 13.1299 16.5992 13.0522 16.6928 13.0522H18.6717C18.7692 13.0522 18.8473 13.1299 18.8473 13.2271V14.9798C18.8434 15.0731 18.7653 15.1508 18.6717 15.1508ZM13.1685 12.6247H11.1896C11.096 12.6247 11.0179 12.547 11.014 12.4498V10.6971C11.0179 10.6038 11.0921 10.5261 11.1896 10.5261H13.1685C13.2621 10.5261 13.3402 10.6038 13.3402 10.6971V12.4498C13.3402 12.547 13.2621 12.6247 13.1685 12.6247ZM15.9357 12.6247H13.9569C13.8632 12.6247 13.7851 12.547 13.7851 12.4498V10.6971C13.7851 10.6038 13.8632 10.5261 13.9569 10.5261H15.9357C16.0293 10.5261 16.1074 10.6038 16.1074 10.6971V12.4498C16.1074 12.547 16.0293 12.6247 15.9357 12.6247ZM18.6717 12.6247H16.6928C16.5953 12.6247 16.5211 12.547 16.5211 12.4498V10.6971C16.5211 10.6038 16.5992 10.5261 16.6928 10.5261H18.6717C18.7692 10.5261 18.8473 10.5999 18.8473 10.6971V12.4498C18.8434 12.547 18.7692 12.6247 18.6717 12.6247ZM18.6717 10.1025H16.6928C16.5953 10.1025 16.5211 10.0248 16.5211 9.9276V8.171C16.5211 8.07773 16.5992 8 16.6928 8H18.6717C18.7692 8 18.8473 8.07773 18.8473 8.171V9.9276C18.8473 10.0248 18.7692 10.1025 18.6717 10.1025ZM21.4272 15.1508H19.4484C19.3547 15.1508 19.2766 15.0731 19.2766 14.9798V13.2232C19.2766 13.1299 19.3547 13.0522 19.4484 13.0522H21.4272C21.5208 13.0561 21.5989 13.1299 21.5989 13.2271V14.9798C21.5989 15.0731 21.5208 15.1508 21.4272 15.1508ZM10.3999 20.8C10.8417 20.8 11.1999 20.4418 11.1999 20C11.1999 19.5582 10.8417 19.2 10.3999 19.2C9.95807 19.2 9.5999 19.5582 9.5999 20C9.5999 20.4418 9.95807 20.8 10.3999 20.8Z" fill="#226FFF"/>
</svg>
