<svg width="160" height="160" viewBox="0 0 160 160" fill="none" xmlns="http://www.w3.org/2000/svg">
<path d="M92.8643 37.0245V33.7773" stroke="#5C5551" stroke-width="0.888889"/>
<path d="M97.4648 37.0245L99.359 33.7773" stroke="#5C5551" stroke-width="0.888889"/>
<path d="M100.441 41.3539L104.229 40.2715" stroke="#5C5551" stroke-width="0.888889"/>
<path d="M45.5095 79.2373C41.5407 82.1237 32.8456 88.7082 29.8149 91.9553" stroke="#5C5551" stroke-width="0.888889"/>
<path d="M23.3214 97.3672C19.0821 101.246 11.2529 110.356 13.8506 115.768C16.4483 121.18 40.5491 112.972 52.2748 108.191" stroke="#5C5551" stroke-width="0.888889"/>
<path d="M17.6387 123.886C19.3524 125.329 24.0763 126.594 30.3566 126.051C42.5 125 51.4631 119.827 55.2514 117.121" stroke="#5C5551" stroke-width="0.888889"/>
<path d="M102.875 47.0366C111.174 43.5188 129.556 36.808 136.7 38.1069" stroke="#5C5551" stroke-width="0.888889"/>
<path d="M140.76 46.2246C139.136 51.6365 130.206 60.8368 115.594 71.1194" stroke="#5C5551" stroke-width="0.888889"/>
<path d="M145.63 48.6602C147.705 50.3739 148.065 57.1028 132.912 70.3078" stroke="#5C5551" stroke-width="0.888889"/>
<path d="M117.758 82.4845C120.013 81.0414 124.74 77.722 125.606 75.9902" stroke="#5C5551" stroke-width="0.888889"/>
<path d="M119.923 46.7668C123.441 45.5942 130.693 43.9526 131.559 46.7668C132.425 49.581 125.425 55.8768 121.818 58.6729" stroke="#5C5551" stroke-width="0.888889"/>
<path d="M90.9697 40.8125L47.1333 52.1775L64.1808 112.791" stroke="#5C5551" stroke-width="0.888889"/>
<path d="M88.2643 46.7656L97.7351 43.7891C99.379 49.6487 100.842 54.8623 102.214 59.7542M71.2168 115.497L114.512 103.591C113.934 101.531 113.379 99.5516 112.842 97.6377" stroke="#5C5551" stroke-width="0.888889"/>
<path d="M42.5337 52.9893L57.687 109.814" stroke="#5C5551" stroke-width="0.888889"/>
<path d="M62.0171 80.8608L78.5234 76.5312" stroke="#5C5551" stroke-width="0.888889"/>
<path d="M63.0986 86.5434L80.4167 82.2139" stroke="#5C5551" stroke-width="0.888889"/>
<path d="M64.7231 91.9555L82.3118 87.626" stroke="#5C5551" stroke-width="0.888889"/>
<path d="M66.3462 97.9089L75.5464 95.7441" stroke="#5C5551" stroke-width="0.888889"/>
<path d="M69.3228 110.627L67.6992 103.862L84.7467 98.9912L86.9115 105.486L69.3228 110.627Z" fill="#64605D"/>
<path d="M66.3466 71.3899L63.6406 61.3778L74.1938 58.6719L76.6292 68.1427L66.3466 71.3899Z" fill="#ADADAD"/>
<path d="M70.7719 61.3784C70.7719 65.1528 67.594 68.24 63.6397 68.24C59.6853 68.24 56.5074 65.1528 56.5074 61.3784C56.5074 57.6039 59.6853 54.5167 63.6397 54.5167C67.594 54.5167 70.7719 57.6039 70.7719 61.3784Z" stroke="#5C5551" stroke-width="0.888889"/>
<path d="M41.1804 90.873C35.3175 95.2928 23.8623 104.944 24.9447 108.191C26.027 111.438 36.2195 108.101 41.1804 106.026" stroke="#5C5551" stroke-width="0.888889"/>
<path d="M25.757 98.9912L22.2393 93.5793L28.1923 90.0615L31.1689 95.2028L25.757 98.9912Z" fill="#64605D"/>
<path d="M33.6036 111.168L31.98 113.062C32.882 115.047 35.2271 117.392 36.0389 116.85C36.8507 116.309 36.4899 112.341 36.0389 111.168H33.6036Z" fill="#ADADAD" stroke="white" stroke-width="0.811787"/>
<path d="M128.582 77.0726L126.417 72.2019L131.018 70.0371L128.582 77.0726Z" fill="#64605D"/>
<path d="M143.29 41.0833C143.29 42.9301 141.793 44.4272 139.947 44.4272C138.1 44.4272 136.603 42.9301 136.603 41.0833C136.603 39.2365 138.1 37.7394 139.947 37.7394C141.793 37.7394 143.29 39.2365 143.29 41.0833Z" stroke="#5C5551" stroke-width="0.888889"/>
<path d="M109.197 74.637C109.197 81.565 103.581 87.1812 96.6526 87.1812C89.7247 87.1812 84.1085 81.565 84.1085 74.637C84.1085 67.7091 89.7247 62.0929 96.6526 62.0929C103.581 62.0929 109.197 67.7091 109.197 74.637Z" stroke="#5C5551" stroke-width="0.888889"/>
<rect x="-0.628538" width="5.21842" height="20.0651" rx="2.60921" transform="matrix(0.707106 -0.707108 0.707106 0.707108 100.257 81.0429)" fill="#64605D" stroke="white" stroke-width="0.888889"/>
</svg>
