<svg xmlns="http://www.w3.org/2000/svg" width="160" height="160" viewBox="0 0 160 160" fill="none">
  <g clip-path="url(#clip0_27_133329)">
    <path d="M32 83.9644C19.3935 96.489 13.7214 108.912 18.4142 117.157C26.384 131.16 61.2306 127.811 96.2463 109.676C131.262 91.5406 153.187 65.4878 145.217 51.4849C144.312 49.8943 143.06 48.5276 141.5 47.381" stroke="#5C5C5C"/>
    <path d="M149.25 47.2978C150.81 48.4443 152.062 49.811 152.968 51.4016C155.923 56.5944 154.767 63.4444 150.358 70.9331" stroke="#5C5C5C" stroke-width="0.733333"/>
    <path d="M35.3571 89.3335C28.776 95.8718 24.0847 102.382 21.7713 108.286" stroke="#5C5C5C" stroke-width="0.733333"/>
    <path d="M51.9367 136.334C67.1126 148.966 91.7906 145.951 102.757 121.743C111.044 103.449 140.926 108.236 144.512 81.904C146.517 67.1785 137.122 45.82 100.603 44.7343C72.1144 43.8872 71.3043 25.3902 44.1043 30.3236C16.3851 35.3511 16.1901 66.4193 36.6388 90.1021C55.425 111.859 33.0274 120.595 51.9367 136.334Z" fill="#F6F6F6"/>
    <path d="M80.9357 109.203L50.6424 111.645C48.9451 111.781 47.4379 110.565 47.2133 108.877L39.9084 53.9731C39.6687 52.171 40.9765 50.5314 42.7868 50.3646L46.269 50.0437" stroke="#5C5C5C" stroke-width="0.952"/>
    <path d="M51.1866 40.0045C50.9797 38.4635 52.1024 37.0621 53.6515 36.9278L84.6568 34.2402L100.285 46.469L107.868 95.2577C108.111 96.8247 106.97 98.2677 105.389 98.3921L62.0801 101.8C60.638 101.913 59.3586 100.88 59.1662 99.4464L51.1866 40.0045Z" fill="white" stroke="#5C5C5C" stroke-width="0.951142"/>
    <path d="M64.2883 87.0608C64.1335 85.8358 65.0479 84.7357 66.2805 84.6637L92.6938 83.1218C93.7828 83.0582 94.7443 83.8264 94.9227 84.9026L95.4831 88.2825C95.6896 89.5284 94.7747 90.6799 93.5144 90.7604L66.987 92.4547C65.8623 92.5265 64.8758 91.7112 64.7345 90.5931L64.2883 87.0608Z" fill="#ADADAD"/>
    <path d="M61.3095 64.8386C61.1875 63.6311 62.0952 62.5562 63.3067 62.4854L89.847 60.9361C90.8978 60.8747 91.8272 61.6119 92.0068 62.649C92.2167 63.8619 91.328 64.9888 90.0995 65.0673L63.5688 66.7618C62.4235 66.8349 61.4248 65.9804 61.3095 64.8386Z" fill="#EBEBEB"/>
    <path d="M62.3752 73.0961C62.2534 71.8894 63.1605 70.8215 64.3711 70.7496L74.372 70.1561C75.4273 70.0935 76.3612 70.8334 76.5415 71.8751C76.7513 73.0864 75.8687 74.2138 74.6424 74.3011L64.6494 75.012C63.4987 75.0939 62.4911 74.2438 62.3752 73.0961Z" fill="#EBEBEB"/>
    <path d="M66.9086 48.7289C66.3281 48.7807 65.9071 49.3047 65.9816 49.8827L66.6685 55.2118C66.7393 55.761 67.2329 56.1551 67.7841 56.1026L74.44 55.4686C75.0339 55.412 75.4547 54.8629 75.3548 54.2747L74.46 49.0043C74.3703 48.4763 73.8899 48.1059 73.3565 48.1535L66.9086 48.7289Z" fill="#ADADAD" stroke="#5C5C5C" stroke-width="0.986667"/>
    <circle cx="64.2666" cy="48.5384" r="4.85776" stroke="#5C5C5C" stroke-width="0.951142"/>
    <path d="M86.2543 45.4642L84.6666 34.8003L100.267 46.9336L88.4272 47.2825C87.3469 47.3143 86.4134 46.5332 86.2543 45.4642Z" fill="#EBEBEB"/>
    <mask id="path-13-inside-1_27_133329" fill="white">
      <path fill-rule="evenodd" clip-rule="evenodd" d="M125.843 82.2878C124.18 92.1101 115.631 99.5905 105.336 99.5905C93.8481 99.5905 84.5357 90.278 84.5357 78.7905C84.5357 70.4533 89.4409 63.2617 96.5228 59.9443C87.5507 62.8669 81.0667 71.2999 81.0667 81.2472C81.0667 93.6184 91.0955 103.647 103.467 103.647C115.489 103.647 125.299 94.1759 125.843 82.2878Z"/>
    </mask>
    <path fill-rule="evenodd" clip-rule="evenodd" d="M125.843 82.2878C124.18 92.1101 115.631 99.5905 105.336 99.5905C93.8481 99.5905 84.5357 90.278 84.5357 78.7905C84.5357 70.4533 89.4409 63.2617 96.5228 59.9443C87.5507 62.8669 81.0667 71.2999 81.0667 81.2472C81.0667 93.6184 91.0955 103.647 103.467 103.647C115.489 103.647 125.299 94.1759 125.843 82.2878Z" fill="#ADADAD"/>
    <path d="M125.843 82.2878L126.793 82.3312L124.905 82.129L125.843 82.2878ZM96.5228 59.9443L96.9262 60.8057L96.2282 59.04L96.5228 59.9443ZM124.905 82.129C123.318 91.5015 115.16 98.6394 105.336 98.6394V100.542C116.103 100.542 125.042 92.7188 126.781 82.4465L124.905 82.129ZM105.336 98.6394C94.3734 98.6394 85.4868 89.7527 85.4868 78.7905H83.5845C83.5845 90.8033 93.3228 100.542 105.336 100.542V98.6394ZM85.4868 78.7905C85.4868 70.836 90.166 63.9723 96.9262 60.8057L96.1193 59.083C88.7157 62.551 83.5845 70.0706 83.5845 78.7905H85.4868ZM82.0178 81.2472C82.0178 71.7237 88.2252 63.6475 96.8174 60.8487L96.2282 59.04C86.8761 62.0863 80.1155 70.876 80.1155 81.2472H82.0178ZM103.467 102.696C91.6208 102.696 82.0178 93.0931 82.0178 81.2472H80.1155C80.1155 94.1437 90.5702 104.598 103.467 104.598V102.696ZM124.893 82.2443C124.372 93.6269 114.978 102.696 103.467 102.696V104.598C116 104.598 126.226 94.7249 126.793 82.3312L124.893 82.2443Z" fill="#5C5C5C" mask="url(#path-13-inside-1_27_133329)"/>
    <rect x="113.706" y="96.9833" width="7.92" height="21.2533" rx="3.69333" transform="rotate(-38.8016 113.706 96.9833)" fill="#ADADAD" stroke="#5C5C5C" stroke-width="0.986667"/>
    <circle cx="105.469" cy="78.8002" r="21.2578" fill="white" stroke="#5C5C5C" stroke-width="0.951142"/>
    <circle cx="105.467" cy="78.7188" r="18.2667" fill="#EBEBEB"/>
    <mask id="mask0_27_133329" style="mask-type:alpha" maskUnits="userSpaceOnUse" x="87" y="60" width="37" height="37">
      <circle cx="105.467" cy="78.7183" r="18.2667" fill="#EBEBEB"/>
    </mask>
    <g mask="url(#mask0_27_133329)">
      <path d="M113.183 97.3632C110.491 96.5545 85.5682 73.0974 73.4432 61.4699L75.8237 58.6353L120.475 99.1262L113.183 97.3632Z" fill="white" fill-opacity="0.8"/>
      <path d="M129.459 97.8934L83.4681 55.9722L103.183 59.5265L138.247 92.078L129.459 97.8934Z" fill="white" fill-opacity="0.8"/>
      <path d="M80.3842 71.8885L107.601 97.3632L96.8011 106.585L76.9289 82.1764L80.3842 71.8885Z" fill="white" fill-opacity="0.8"/>
    </g>
    <path d="M84.8 34.6714L86.271 45.4212C86.4198 46.5088 87.3697 47.3059 88.4666 47.2637L100.4 46.8047" stroke="#5C5C5C" stroke-width="0.951142"/>
    <path d="M92.4805 30.7312L92.1333 24.8047" stroke="#5C5C5C" stroke-width="0.5"/>
    <path d="M102.126 38.2569L108.267 37.338" stroke="#5C5C5C" stroke-width="0.5"/>
    <path d="M98.1763 33.3887L103.6 27.8712" stroke="#5C5C5C" stroke-width="0.5"/>
    <path d="M145.217 51.4852C153.187 65.4881 131.262 91.541 96.2463 109.676C61.2306 127.811 26.384 131.161 18.4142 117.158" stroke="#5C5C5C"/>
    <circle cx="2.44358" cy="2.44358" r="3.87177" transform="matrix(0.998833 -0.0483049 0.0411211 0.999154 15.7333 99.436)" fill="#ADADAD" stroke="white" stroke-width="2.85637"/>
    <path d="M103.867 130.4L105.487 134.779L109.867 136.4L105.487 138.02L103.867 142.4L102.246 138.02L97.8667 136.4L102.246 134.779L103.867 130.4Z" fill="#5C5C5C"/>
    <path d="M31.6583 24.5332L32.5024 26.8142L34.7833 27.6582L32.5024 28.5022L31.6583 30.7832L30.8143 28.5022L28.5333 27.6582L30.8143 26.8142L31.6583 24.5332Z" fill="#5C5C5C"/>
    <circle cx="131.151" cy="37.8621" r="5.06226" fill="#ADADAD"/>
    <path d="M134.713 34.2647C135.444 34.0736 136.075 33.9754 136.57 33.9706C136.89 33.9675 137.132 34.0037 137.3 34.0641C137.466 34.1234 137.536 34.1954 137.566 34.2528C137.615 34.3435 137.636 34.5468 137.43 34.9351C137.232 35.308 136.869 35.7607 136.348 36.2633C135.311 37.2644 133.717 38.3975 131.812 39.4134C129.907 40.4292 128.078 41.1212 126.668 41.4249C125.961 41.5773 125.382 41.6267 124.962 41.5832C124.525 41.538 124.368 41.4067 124.32 41.316C124.288 41.2566 124.267 41.153 124.317 40.9694C124.368 40.7832 124.486 40.5476 124.685 40.2678C125.008 39.8153 125.51 39.2943 126.165 38.7418C126.115 38.4561 126.089 38.1621 126.089 37.862C126.089 37.8229 126.089 37.7838 126.09 37.7449C125.19 38.4526 124.47 39.1559 124.017 39.7915C123.787 40.1152 123.612 40.4394 123.526 40.7521C123.439 41.0673 123.436 41.4016 123.596 41.702C123.841 42.161 124.354 42.3452 124.878 42.3993C125.419 42.4553 126.092 42.3882 126.841 42.227C128.344 41.9032 130.245 41.1785 132.198 40.1374C134.15 39.0962 135.812 37.9212 136.918 36.8537C137.469 36.322 137.9 35.8002 138.155 35.3197C138.402 34.8547 138.535 34.3257 138.29 33.8667C138.136 33.5782 137.872 33.3971 137.577 33.2915C137.284 33.187 136.937 33.1465 136.562 33.1501C135.841 33.1571 134.936 33.3286 133.934 33.6325C134.214 33.8173 134.475 34.0293 134.713 34.2647Z" fill="#F6F6F6"/>
  </g>
  <defs>
    <clipPath id="clip0_27_133329">
      <rect width="160" height="160" fill="white"/>
    </clipPath>
  </defs>
</svg>
