<svg width="160" height="160" viewBox="0 0 160 160" fill="none" xmlns="http://www.w3.org/2000/svg">
<g clip-path="url(#clip0_519_47784)">
<path d="M31.9998 83.9644C19.3933 96.489 13.7212 108.912 18.414 117.157C26.3838 131.16 61.2305 127.811 96.2461 109.676C131.262 91.5406 153.187 65.4878 145.217 51.4849C144.312 49.8943 143.06 48.5276 141.5 47.381" stroke="#5C5C5C"/>
<path d="M149.25 47.298C150.81 48.4446 152.062 49.8113 152.967 51.4018C155.923 56.5947 154.767 63.4446 150.357 70.9334" stroke="#5C5C5C" stroke-width="0.733333"/>
<path d="M35.357 89.3333C28.7759 95.8715 24.0846 102.382 21.7711 108.285" stroke="#5C5C5C" stroke-width="0.733333"/>
<path d="M51.9369 136.334C67.1127 148.966 91.7907 145.951 102.757 121.743C111.044 103.449 140.926 108.236 144.512 81.904C146.517 67.1785 137.122 45.82 100.603 44.7343C72.1145 43.8872 71.3044 25.3902 44.1044 30.3236C16.3852 35.3511 16.1902 66.4193 36.6389 90.1021C55.4251 111.859 33.0275 120.595 51.9369 136.334Z" fill="#F6F6F6"/>
<path d="M80.9358 109.203L50.6425 111.645C48.9452 111.781 47.438 110.565 47.2134 108.877L39.9086 53.9731C39.6688 52.171 40.9766 50.5314 42.7869 50.3646L46.2692 50.0437" stroke="#5C5C5C" stroke-width="0.952"/>
<path d="M51.1861 40.004C50.9793 38.463 52.102 37.0616 53.6511 36.9273L84.6563 34.2397L100.284 46.4686L107.867 95.2572C108.111 96.8242 106.97 98.2672 105.389 98.3916L62.0797 101.799C60.6376 101.913 59.3582 100.88 59.1657 99.4459L51.1861 40.004Z" fill="white" stroke="#5C5C5C" stroke-width="0.951142"/>
<path d="M64.2877 87.0606C64.1329 85.8356 65.0472 84.7354 66.2799 84.6635L92.6932 83.1215C93.7821 83.058 94.7437 83.8262 94.9221 84.9023L95.4825 88.2823C95.689 89.5281 94.7741 90.6797 93.5138 90.7602L66.9864 92.4545C65.8617 92.5263 64.8752 91.7109 64.7339 90.5929L64.2877 87.0606Z" fill="#ADADAD"/>
<path d="M61.3092 64.8386C61.1873 63.6311 62.0949 62.5562 63.3065 62.4854L89.8468 60.9361C90.8975 60.8747 91.827 61.6119 92.0065 62.649C92.2165 63.8619 91.3277 64.9888 90.0993 65.0673L63.5686 66.7618C62.4233 66.8349 61.4245 65.9804 61.3092 64.8386Z" fill="#EBEBEB"/>
<path d="M62.3752 73.0958C62.2534 71.8891 63.1605 70.8212 64.3711 70.7494L74.372 70.1558C75.4273 70.0932 76.3612 70.8332 76.5415 71.8748C76.7513 73.0862 75.8687 74.2136 74.6424 74.3008L64.6494 75.0118C63.4987 75.0937 62.4911 74.2436 62.3752 73.0958Z" fill="#EBEBEB"/>
<path d="M66.908 48.7286C66.3275 48.7804 65.9065 49.3045 65.981 49.8825L66.668 55.2116C66.7388 55.7608 67.2323 56.1549 67.7836 56.1024L74.4394 55.4683C75.0333 55.4118 75.4541 54.8626 75.3543 54.2744L74.4594 49.004C74.3698 48.4761 73.8894 48.1057 73.356 48.1533L66.908 48.7286Z" fill="#ADADAD" stroke="#5C5C5C" stroke-width="0.986667"/>
<circle cx="64.266" cy="48.5379" r="4.85776" stroke="#5C5C5C" stroke-width="0.951142"/>
<path d="M86.2537 45.464L84.666 34.8L100.266 46.9334L88.4266 47.2823C87.3463 47.3141 86.4128 46.533 86.2537 45.464Z" fill="#EBEBEB"/>
<mask id="path-13-inside-1_519_47784" fill="white">
<path fill-rule="evenodd" clip-rule="evenodd" d="M125.843 82.2875C124.18 92.1099 115.631 99.5903 105.335 99.5903C93.8479 99.5903 84.5354 90.2778 84.5354 78.7903C84.5354 70.453 89.4406 63.2614 96.5225 59.9441C87.5504 62.8667 81.0664 71.2996 81.0664 81.247C81.0664 93.6182 91.0952 103.647 103.466 103.647C115.489 103.647 125.299 94.1757 125.843 82.2875Z"/>
</mask>
<path fill-rule="evenodd" clip-rule="evenodd" d="M125.843 82.2875C124.18 92.1099 115.631 99.5903 105.335 99.5903C93.8479 99.5903 84.5354 90.2778 84.5354 78.7903C84.5354 70.453 89.4406 63.2614 96.5225 59.9441C87.5504 62.8667 81.0664 71.2996 81.0664 81.247C81.0664 93.6182 91.0952 103.647 103.466 103.647C115.489 103.647 125.299 94.1757 125.843 82.2875Z" fill="#ADADAD"/>
<path d="M125.843 82.2875L126.793 82.331L124.905 82.1287L125.843 82.2875ZM96.5225 59.9441L96.926 60.8054L96.2279 59.0397L96.5225 59.9441ZM124.905 82.1287C123.318 91.5012 115.159 98.6391 105.335 98.6391V100.541C116.103 100.541 125.041 92.7185 126.78 82.4463L124.905 82.1287ZM105.335 98.6391C94.3732 98.6391 85.4865 89.7525 85.4865 78.7903H83.5843C83.5843 90.8031 93.3226 100.541 105.335 100.541V98.6391ZM85.4865 78.7903C85.4865 70.8357 90.1658 63.9721 96.926 60.8054L96.1191 59.0828C88.7155 62.5508 83.5843 70.0703 83.5843 78.7903H85.4865ZM82.0175 81.247C82.0175 71.7235 88.225 63.6473 96.8171 60.8485L96.2279 59.0397C86.8759 62.0861 80.1153 70.8758 80.1153 81.247H82.0175ZM103.466 102.696C91.6205 102.696 82.0175 93.0929 82.0175 81.247H80.1153C80.1153 94.1435 90.5699 104.598 103.466 104.598V102.696ZM124.893 82.2441C124.372 93.6267 114.978 102.696 103.466 102.696V104.598C116 104.598 126.226 94.7246 126.793 82.331L124.893 82.2441Z" fill="#5C5C5C" mask="url(#path-13-inside-1_519_47784)"/>
<rect x="113.706" y="96.983" width="7.92" height="21.2533" rx="3.69333" transform="rotate(-38.8016 113.706 96.983)" fill="#ADADAD" stroke="#5C5C5C" stroke-width="0.986667"/>
<circle cx="105.469" cy="78.8" r="21.2578" fill="white" stroke="#5C5C5C" stroke-width="0.951142"/>
<circle cx="105.467" cy="78.7183" r="18.2667" fill="#EBEBEB"/>
<mask id="mask0_519_47784" style="mask-type:alpha" maskUnits="userSpaceOnUse" x="87" y="60" width="37" height="37">
<circle cx="105.467" cy="78.7178" r="18.2667" fill="#EBEBEB"/>
</mask>
<g mask="url(#mask0_519_47784)">
<path d="M113.183 97.3625C110.491 96.5537 85.5682 73.0966 73.4432 61.4692L75.8237 58.6346L120.475 99.1254L113.183 97.3625Z" fill="white" fill-opacity="0.8"/>
<path d="M129.459 97.8927L83.4681 55.9715L103.183 59.5257L138.247 92.0773L129.459 97.8927Z" fill="white" fill-opacity="0.8"/>
<path d="M80.3842 71.8877L107.601 97.3625L96.8011 106.584L76.9289 82.1757L80.3842 71.8877Z" fill="white" fill-opacity="0.8"/>
</g>
<path d="M84.7998 34.6714L86.2708 45.4212C86.4197 46.5088 87.3695 47.3059 88.4665 47.2637L100.4 46.8047" stroke="#5C5C5C" stroke-width="0.951142"/>
<path d="M92.4808 30.7312L92.1336 24.8047" stroke="#5C5C5C" stroke-width="0.5"/>
<path d="M102.125 38.2569L108.266 37.338" stroke="#5C5C5C" stroke-width="0.5"/>
<path d="M98.1768 33.3889L103.6 27.8715" stroke="#5C5C5C" stroke-width="0.5"/>
<path d="M145.217 51.4849C153.187 65.4878 131.262 91.5407 96.2462 109.676C61.2305 127.811 26.3839 131.16 18.4141 117.157" stroke="#5C5C5C"/>
<circle cx="2.44358" cy="2.44358" r="3.87177" transform="matrix(0.998833 -0.0483049 0.0411211 0.999154 15.7334 99.436)" fill="#ADADAD" stroke="white" stroke-width="2.85637"/>
<path d="M103.866 130.4L105.487 134.779L109.866 136.4L105.487 138.02L103.866 142.4L102.246 138.02L97.8662 136.4L102.246 134.779L103.866 130.4Z" fill="#5C5C5C"/>
<path d="M31.6582 24.5334L32.5022 26.8144L34.7832 27.6584L32.5022 28.5025L31.6582 30.7834L30.8142 28.5025L28.5332 27.6584L30.8142 26.8144L31.6582 24.5334Z" fill="#5C5C5C"/>
<circle cx="131.151" cy="37.8623" r="5.06226" fill="#ADADAD"/>
<path d="M134.713 34.2649C135.444 34.0738 136.075 33.9756 136.57 33.9708C136.89 33.9677 137.132 34.004 137.301 34.0644C137.466 34.1237 137.536 34.1957 137.566 34.253C137.615 34.3438 137.636 34.547 137.43 34.9353C137.232 35.3082 136.869 35.7609 136.348 36.2635C135.311 37.2647 133.717 38.3977 131.812 39.4136C129.907 40.4295 128.078 41.1214 126.668 41.4251C125.961 41.5776 125.382 41.6269 124.963 41.5835C124.525 41.5382 124.369 41.407 124.32 41.3162C124.289 41.2568 124.267 41.1532 124.317 40.9697C124.368 40.7835 124.486 40.5479 124.686 40.2681C125.008 39.8156 125.51 39.2945 126.165 38.742C126.115 38.4563 126.089 38.1623 126.089 37.8622C126.089 37.8231 126.089 37.7841 126.09 37.7452C125.19 38.4528 124.471 39.1561 124.017 39.7917C123.787 40.1155 123.612 40.4397 123.526 40.7523C123.439 41.0676 123.436 41.4019 123.596 41.7023C123.841 42.1613 124.354 42.3454 124.878 42.3996C125.419 42.4556 126.093 42.3885 126.841 42.2272C128.344 41.9034 130.245 41.1788 132.198 40.1376C134.151 39.0964 135.812 37.9214 136.918 36.854C137.469 36.3222 137.9 35.8005 138.155 35.32C138.402 34.855 138.535 34.326 138.29 33.8669C138.136 33.5784 137.872 33.3974 137.577 33.2918C137.284 33.1872 136.937 33.1467 136.562 33.1504C135.841 33.1574 134.936 33.3288 133.934 33.6327C134.214 33.8176 134.475 34.0296 134.713 34.2649Z" fill="#F6F6F6"/>
</g>
<defs>
<clipPath id="clip0_519_47784">
<rect width="160" height="160" fill="white"/>
</clipPath>
</defs>
</svg>
