<svg width="20" height="20" viewBox="0 0 20 20" fill="none" xmlns="http://www.w3.org/2000/svg">
<g clip-path="url(#clip0_1613_41062)">
<circle cx="10" cy="10" r="10" fill="#D5E9FC"/>
<path d="M11.9375 14C12.7237 14 13.493 13.7754 14.1521 13.3534C14.8111 12.9315 15.3317 12.3303 15.6507 11.6228C15.9696 10.9152 16.0732 10.1318 15.9489 9.36749C15.8246 8.60316 15.4777 7.89076 14.9503 7.3167C14.4229 6.74264 13.7377 6.33157 12.9778 6.13336C12.2178 5.93515 11.4158 5.95831 10.6689 6.20002C9.92205 6.44174 9.26246 6.89162 8.77015 7.49513C8.27784 8.09863 7.97395 8.82981 7.89533 9.6H6.25001C6.25001 9.28174 6.12161 8.97652 5.89305 8.75147C5.66449 8.52643 5.35449 8.4 5.03126 8.4H4.21875C3.89552 8.4 3.58553 8.52643 3.35696 8.75147C3.1284 8.97652 3 9.28174 3 9.6V10.4C3 10.7183 3.1284 11.0235 3.35696 11.2485C3.58553 11.4736 3.89552 11.6 4.21875 11.6H5.03126C5.35449 11.6 5.66449 11.4736 5.89305 11.2485C6.12161 11.0235 6.25001 10.7183 6.25001 10.4H7.89533C7.99604 11.3867 8.46538 12.3013 9.21228 12.9665C9.95919 13.6317 10.9304 14 11.9375 14Z" fill="#226FFF"/>
</g>
<defs>
<clipPath id="clip0_1613_41062">
<rect width="20" height="20" fill="white"/>
</clipPath>
</defs>
</svg>
