<svg width="24" height="24" viewBox="0 0 24 24" fill="none" xmlns="http://www.w3.org/2000/svg">
<g id="menu-button-wide (2) 1">
<path id="Vector" d="M0 2.25C0 1.65326 0.237053 1.08097 0.65901 0.65901C1.08097 0.237053 1.65326 0 2.25 0L21.75 0C22.3467 0 22.919 0.237053 23.341 0.65901C23.7629 1.08097 24 1.65326 24 2.25V5.25C24 5.84674 23.7629 6.41903 23.341 6.84099C22.919 7.26295 22.3467 7.5 21.75 7.5H2.25C1.65326 7.5 1.08097 7.26295 0.65901 6.84099C0.237053 6.41903 0 5.84674 0 5.25L0 2.25ZM2.25 1.5C2.05109 1.5 1.86032 1.57902 1.71967 1.71967C1.57902 1.86032 1.5 2.05109 1.5 2.25V5.25C1.5 5.44891 1.57902 5.63968 1.71967 5.78033C1.86032 5.92098 2.05109 6 2.25 6H21.75C21.9489 6 22.1397 5.92098 22.2803 5.78033C22.421 5.63968 22.5 5.44891 22.5 5.25V2.25C22.5 2.05109 22.421 1.86032 22.2803 1.71967C22.1397 1.57902 21.9489 1.5 21.75 1.5H2.25Z" fill="#226FFF"/>
<path id="Vector_2" d="M0 12C0 11.2044 0.316071 10.4413 0.87868 9.87868C1.44129 9.31607 2.20435 9 3 9H21C21.7957 9 22.5587 9.31607 23.1213 9.87868C23.6839 10.4413 24 11.2044 24 12V19.5C24 20.2956 23.6839 21.0587 23.1213 21.6213C22.5587 22.1839 21.7957 22.5 21 22.5H3C2.20435 22.5 1.44129 22.1839 0.87868 21.6213C0.316071 21.0587 0 20.2956 0 19.5V12ZM1.5 16.5V19.5C1.5 19.8978 1.65804 20.2794 1.93934 20.5607C2.22064 20.842 2.60218 21 3 21H21C21.3978 21 21.7794 20.842 22.0607 20.5607C22.342 20.2794 22.5 19.8978 22.5 19.5V16.5H1.5ZM22.5 15V12C22.5 11.6022 22.342 11.2206 22.0607 10.9393C21.7794 10.658 21.3978 10.5 21 10.5H3C2.60218 10.5 2.22064 10.658 1.93934 10.9393C1.65804 11.2206 1.5 11.6022 1.5 12V15H22.5Z" fill="#226FFF"/>
<g id="Vector_3">
<path d="M19.2345 4.2345L18.6405 3.6405C18.5879 3.58805 18.5521 3.52117 18.5376 3.44834C18.523 3.37551 18.5305 3.30001 18.5589 3.2314C18.5874 3.1628 18.6355 3.10418 18.6973 3.06299C18.7591 3.02179 18.8317 2.99987 18.906 3H20.094C20.1683 2.99987 20.2409 3.02179 20.3027 3.06299C20.3645 3.10418 20.4126 3.1628 20.4411 3.2314C20.4695 3.30001 20.477 3.37551 20.4624 3.44834C20.4479 3.52117 20.4121 3.58805 20.3595 3.6405L19.7655 4.2345C19.7307 4.26942 19.6893 4.29713 19.6437 4.31604C19.5982 4.33494 19.5493 4.34467 19.5 4.34467C19.4507 4.34467 19.4018 4.33494 19.3563 4.31604C19.3107 4.29713 19.2693 4.26942 19.2345 4.2345Z" fill="#226FFF"/>
<path d="M3 3.75C3 3.54289 3.16789 3.375 3.375 3.375H11.625C11.8321 3.375 12 3.54289 12 3.75C12 3.95711 11.8321 4.125 11.625 4.125H3.375C3.16789 4.125 3 3.95711 3 3.75Z" fill="#226FFF"/>
</g>
<path id="Rectangle 812" d="M3 12.875C3 12.6679 3.16789 12.5 3.375 12.5H17.625C17.8321 12.5 18 12.6679 18 12.875C18 13.0821 17.8321 13.25 17.625 13.25H3.375C3.16789 13.25 3 13.0821 3 12.875Z" fill="#226FFF"/>
<path id="Rectangle 811" d="M3 3.75C3 3.54289 3.16789 3.375 3.375 3.375H11.625C11.8321 3.375 12 3.54289 12 3.75C12 3.95711 11.8321 4.125 11.625 4.125H3.375C3.16789 4.125 3 3.95711 3 3.75Z" fill="#226FFF"/>
<path id="Rectangle 813" d="M3 18.775C3 18.5679 3.16789 18.4 3.375 18.4H13.125C13.3321 18.4 13.5 18.5679 13.5 18.775C13.5 18.9821 13.3321 19.15 13.125 19.15H3.375C3.16789 19.15 3 18.9821 3 18.775Z" fill="#226FFF"/>
</g>
</svg>
