<svg width="32" height="32" viewBox="0 0 32 32" fill="none" xmlns="http://www.w3.org/2000/svg">
<path d="M24.6842 21.2105C25.9637 21.2105 27 20.1742 27 18.8947V7.31579C27 6.03632 25.9637 5 24.6842 5H7.31579C6.03632 5 5 6.03632 5 7.31579V18.8947C5 20.1742 6.03632 21.2105 7.31579 21.2105H14.8421V22.9474H12.8158C12.3353 22.9474 11.9474 23.3353 11.9474 23.8158V24.1053H5.86842C5.38789 24.1053 5 24.4932 5 24.9737C5 25.4542 5.38789 25.8421 5.86842 25.8421H11.9474V26.1316C11.9474 26.6121 12.3353 27 12.8158 27H18.6053C19.0858 27 19.4737 26.6121 19.4737 26.1316V25.8421H26.1316C26.6121 25.8421 27 25.4542 27 24.9737C27 24.4932 26.6121 24.1053 26.1316 24.1053H19.4737V23.8158C19.4737 23.3353 19.0858 22.9474 18.6053 22.9474H16.5789V21.2105H24.6842ZM10.8705 16.5674C10.6968 16.77 10.4537 16.8684 10.2105 16.8684C10.0443 16.8697 9.88129 16.8229 9.74096 16.7339C9.60063 16.6448 9.48895 16.5172 9.4193 16.3663C9.34965 16.2154 9.32498 16.0476 9.34826 15.883C9.37153 15.7185 9.44176 15.5641 9.55053 15.4384L13.0242 11.3858C13.3195 11.0384 13.8289 10.9805 14.1995 11.2526L17.9047 13.9679L21.72 9.64316C21.8754 9.48051 22.0878 9.38439 22.3126 9.37495C22.5374 9.36552 22.757 9.4435 22.9256 9.59254C23.0941 9.74159 23.1983 9.95011 23.2164 10.1743C23.2345 10.3986 23.1651 10.6211 23.0226 10.7953L18.6805 15.7163C18.5374 15.8788 18.3387 15.982 18.1234 16.0055C17.9081 16.0291 17.6918 15.9714 17.5168 15.8437L13.8232 13.1342L10.8705 16.5674Z" fill="#E0E0E0"/>
</svg>
