<svg width="32" height="32" viewBox="0 0 32 32" fill="none" xmlns="http://www.w3.org/2000/svg">
<g id="&#228;&#184;&#173;&#233;&#151;&#180;&#228;&#187;&#182; 1">
<path id="Subtract" fill-rule="evenodd" clip-rule="evenodd" d="M24.6842 21.2105C25.9637 21.2105 27 20.1742 27 18.8947V7.31579C27 6.03632 25.9637 5 24.6842 5H7.31579C6.03632 5 5 6.03632 5 7.31579V18.8947C5 20.1742 6.03632 21.2105 7.31579 21.2105H14.8421H16.5789H24.6842ZM10.2105 16.8683C10.4537 16.8683 10.6968 16.7698 10.8705 16.5672L13.8231 13.134L17.5168 15.8435C17.6917 15.9712 17.9081 16.0289 18.1234 16.0054C18.3386 15.9818 18.5374 15.8787 18.6805 15.7162L23.0226 10.7951C23.165 10.621 23.2345 10.3984 23.2164 10.1742C23.1983 9.94994 23.0941 9.74143 22.9256 9.59238C22.757 9.44334 22.5373 9.36535 22.3126 9.37479C22.0878 9.38423 21.8754 9.48035 21.72 9.643L17.9047 13.9677L14.1995 11.2525C13.8289 10.9804 13.3195 11.0383 13.0242 11.3856L9.55051 15.4383C9.44174 15.5639 9.37151 15.7183 9.34824 15.8829C9.32496 16.0474 9.34963 16.2152 9.41928 16.3661C9.48893 16.517 9.60061 16.6447 9.74094 16.7337C9.88128 16.8228 10.0443 16.8695 10.2105 16.8683Z" fill="#226FFF"/>
<path id="Vector" d="M14.8421 22.9473V21.2104H16.5789V22.9473H18.6053C19.0858 22.9473 19.4737 23.3352 19.4737 23.8157V24.1052H26.1316C26.6121 24.1052 27 24.4931 27 24.9736C27 25.4541 26.6121 25.842 26.1316 25.842H19.4737V26.1315C19.4737 26.612 19.0858 26.9999 18.6053 26.9999H12.8158C12.3353 26.9999 11.9474 26.612 11.9474 26.1315V25.842H5.86842C5.38789 25.842 5 25.4541 5 24.9736C5 24.4931 5.38789 24.1052 5.86842 24.1052H11.9474V23.8157C11.9474 23.3352 12.3353 22.9473 12.8158 22.9473H14.8421Z" fill="#4FE9CC"/>
</g>
</svg>
