<svg width="32" height="32" viewBox="0 0 32 32" fill="none" xmlns="http://www.w3.org/2000/svg">
<path d="M7.4997 9.90996C7.4997 9.90996 9.08444 5.05465 14.5225 4.13591C14.5225 4.13591 13.69 5.33116 12.8961 7.23701C12.8961 7.23701 11.2281 7.05565 10.8387 8.75337C10.8387 8.75337 9.05768 9.07448 7.4997 9.90996ZM10.8773 9.7286C10.8773 9.7286 8.58196 10.2132 7.11021 11.2985C7.11021 11.2985 6.34311 14.5274 8.19544 17.5453C8.19544 17.5453 10.1013 17.9615 12.019 17.7683C12.019 17.7683 12.0071 16.57 12.7861 15.9724C12.7861 15.9724 11.8406 13.5403 12.0755 10.9536C12.0755 10.9506 11.1003 10.7157 10.8773 9.7286ZM8.95957 18.6721C8.95957 18.6721 11.3947 22.4273 17.0408 21.913C17.0408 21.913 15.0339 20.0071 14.6206 19.3976C14.6206 19.3976 13.0478 19.7871 12.5066 18.6751C12.5066 18.6721 10.4759 18.9784 8.95957 18.6721ZM15.4145 18.8119C15.4145 18.8119 15.804 18.6454 15.9467 17.6969C15.9467 17.6969 19.0835 16.5968 21.019 13.6503C21.019 13.6503 21.6315 13.6919 22.0626 13.3589C22.0626 13.3589 23.5255 14.7207 24.2182 16.5017C24.2182 16.5017 22.8535 20.3966 18.4323 21.6483C18.4323 21.6483 16.4432 20.355 15.4145 18.8119ZM23.4392 8.11412C23.4392 8.11412 25.7197 10.7276 24.691 15.1667C24.691 15.1667 23.4244 13.127 22.797 12.6543C22.797 12.6543 23.3619 11.5601 22.7138 10.7544C22.7108 10.7514 23.3144 9.57399 23.4392 8.11412ZM13.8268 7.53434C13.8268 7.53434 14.4957 8.0725 14.5225 8.56605C14.5225 8.56605 17.35 8.74148 19.8 10.2786C19.8 10.2786 20.8942 9.38073 21.9526 10.0467C21.9526 10.0467 22.5354 8.97042 22.6573 6.99618C22.6573 6.99618 20.469 4.12105 15.908 4.01996C15.9051 4.01996 14.1241 6.44018 13.8268 7.53434ZM13.0507 11.013C13.0507 11.013 14.3679 11.0963 14.5909 9.53831C14.5909 9.53831 17.1954 9.77914 19.2737 11.013C19.2737 11.013 18.7742 12.5889 20.0616 13.3589C20.0616 13.3589 18.7623 15.3124 15.8069 16.7157C15.8069 16.7157 15.2242 15.3629 13.693 15.6127C13.69 15.6097 13.0686 14.4174 13.0507 11.013Z" fill="#E0E0E0"/>
<path d="M26.7603 24.6395H17.7395C17.5611 24.3451 17.3143 24.0954 17.023 23.914V22.588H14.683V23.911C14.3916 24.0954 14.1449 24.3422 13.9665 24.6365H5.23109C4.55022 24.6365 3.99719 25.1895 3.99719 25.8704C3.99719 26.5513 4.55022 27.1043 5.23109 27.1043H14.0913C14.4927 27.6395 15.132 27.9844 15.8545 27.9844C16.577 27.9844 17.2132 27.6395 17.6176 27.1043H26.7633C27.4442 27.1043 27.9972 26.5513 27.9972 25.8704C27.9942 25.1925 27.4412 24.6395 26.7603 24.6395Z" fill="#E0E0E0"/>
</svg>
