<svg width="64" height="64" viewBox="0 0 64 64" fill="none" xmlns="http://www.w3.org/2000/svg">
<g id="padloc">
<path id="Vector" d="M37.7784 36.5957C37.1788 37.2165 36.4616 37.7117 35.6685 38.0524C34.8755 38.393 34.0226 38.5723 33.1595 38.5798C32.2964 38.5873 31.4405 38.4229 30.6417 38.096C29.8429 37.7692 29.1171 37.2866 28.5068 36.6763C27.8965 36.066 27.4139 35.3402 27.0871 34.5414C26.7602 33.7426 26.5958 32.8867 26.6033 32.0236C26.6108 31.1605 26.7901 30.3076 27.1307 29.5146C27.4714 28.7215 27.9666 28.0043 28.5874 27.4047C29.8133 26.2207 31.4552 25.5655 33.1595 25.5803C34.8638 25.5951 36.4941 26.2787 37.6992 27.4839C38.9044 28.689 39.588 30.3193 39.6028 32.0236C39.6176 33.7279 38.9624 35.3698 37.7784 36.5957Z" fill="#226FFF"/>
<path id="Vector_2" d="M15.5 8C14.3065 8 13.1619 8.47411 12.318 9.31802C11.4741 10.1619 11 11.3065 11 12.5V17H9.5C9.10218 17 8.72064 17.158 8.43934 17.4393C8.15804 17.7206 8 18.1022 8 18.5C8 18.8978 8.15804 19.2794 8.43934 19.5607C8.72064 19.842 9.10218 20 9.5 20H11V30.5H9.5C9.10218 30.5 8.72064 30.658 8.43934 30.9393C8.15804 31.2206 8 31.6022 8 32C8 32.3978 8.15804 32.7794 8.43934 33.0607C8.72064 33.342 9.10218 33.5 9.5 33.5H11V44H9.5C9.10218 44 8.72064 44.158 8.43934 44.4393C8.15804 44.7206 8 45.1022 8 45.5C8 45.8978 8.15804 46.2794 8.43934 46.5607C8.72064 46.842 9.10218 47 9.5 47H11V51.5C11 52.6935 11.4741 53.8381 12.318 54.682C13.1619 55.5259 14.3065 56 15.5 56H51.5C52.6935 56 53.8381 55.5259 54.682 54.682C55.5259 53.8381 56 52.6935 56 51.5V12.5C56 11.3065 55.5259 10.1619 54.682 9.31802C53.8381 8.47411 52.6935 8 51.5 8H15.5ZM24.608 21.392L27.878 24.662C29.4016 23.5807 31.2237 22.9999 33.092 22.9999C34.9603 22.9999 36.7824 23.5807 38.306 24.662L41.576 21.392C41.8577 21.1107 42.2395 20.9529 42.6376 20.9532C43.0356 20.9534 43.4172 21.1118 43.6985 21.3935C43.9798 21.6752 44.1376 22.057 44.1373 22.4551C44.1371 22.8531 43.9787 23.2347 43.697 23.516L40.427 26.786C42.647 29.897 42.647 34.106 40.427 37.214L43.697 40.484C43.9787 40.7653 44.1371 41.1469 44.1373 41.5449C44.1376 41.943 43.9798 42.3248 43.6985 42.6065C43.4172 42.8882 43.0356 43.0466 42.6376 43.0468C42.2395 43.0471 41.8577 42.8893 41.576 42.608L38.306 39.338C36.7826 40.4197 34.9604 41.0008 33.092 41.0008C31.2236 41.0008 29.4014 40.4197 27.878 39.338L24.608 42.608C24.4685 42.7475 24.303 42.8581 24.1208 42.9336C23.9385 43.009 23.7432 43.0479 23.546 43.0479C23.3488 43.0479 23.1535 43.009 22.9712 42.9336C22.789 42.8581 22.6235 42.7475 22.484 42.608C22.3445 42.4685 22.2339 42.303 22.1584 42.1208C22.083 41.9385 22.0441 41.7432 22.0441 41.546C22.0441 41.3488 22.083 41.1535 22.1584 40.9712C22.2339 40.789 22.3445 40.6235 22.484 40.484L25.754 37.214C24.6727 35.6904 24.0919 33.8683 24.0919 32C24.0919 30.1317 24.6727 28.3096 25.754 26.786L22.484 23.516C22.2023 23.2343 22.0441 22.8523 22.0441 22.454C22.0441 22.0557 22.2023 21.6737 22.484 21.392C22.7657 21.1103 23.1477 20.9521 23.546 20.9521C23.9443 20.9521 24.3263 21.1103 24.608 21.392ZM50 27.5V36.5C50 36.8978 49.842 37.2794 49.5607 37.5607C49.2794 37.842 48.8978 38 48.5 38C48.1022 38 47.7206 37.842 47.4393 37.5607C47.158 37.2794 47 36.8978 47 36.5V27.5C47 27.1022 47.158 26.7206 47.4393 26.4393C47.7206 26.158 48.1022 26 48.5 26C48.8978 26 49.2794 26.158 49.5607 26.4393C49.842 26.7206 50 27.1022 50 27.5Z" fill="#226FFF"/>
</g>
</svg>
