<svg width="16" height="16" viewBox="0 0 16 16" fill="none" xmlns="http://www.w3.org/2000/svg">
<g id="&#228;&#191;&#174;&#230;&#148;&#185;&#229;&#175;&#134;&#231;&#160;&#129; (2) 1">
<g id="Group 40008">
<path id="Vector" d="M4.95855 7.08368C4.7277 7.08368 4.53882 6.8948 4.53882 6.66396V5.69859C4.53882 4.12463 5.819 2.83398 7.40349 2.83398C8.74663 2.83398 9.92188 3.77836 10.2052 5.0795C10.2577 5.31035 10.1108 5.5307 9.87991 5.58317C9.64906 5.63563 9.4287 5.48873 9.37623 5.25788C9.17686 4.34499 8.34789 3.67343 7.393 3.67343C6.28071 3.67343 5.36779 4.57583 5.36779 5.69859V6.66396C5.37828 6.8948 5.1894 7.08368 4.95855 7.08368Z" fill="#226FFF"/>
<path id="Vector_2" d="M10.3625 13.1169H4.3603C3.69922 13.1169 3.16406 12.5922 3.16406 11.9521V7.44012C3.16406 6.80004 3.69922 6.27539 4.3603 6.27539H8.66255C8.8934 6.27539 9.08228 6.46427 9.08228 6.69511C9.08228 6.92596 8.8934 7.11484 8.66255 7.11484H4.3603C4.17142 7.11484 4.00353 7.27223 4.00353 7.44012V11.9521C4.00353 12.1305 4.17142 12.2774 4.3603 12.2774H10.3625C10.5513 12.2774 10.7192 12.12 10.7192 11.9521V8.56288C10.7192 8.33203 10.9081 8.14316 11.139 8.14316C11.3698 8.14316 11.5587 8.33203 11.5587 8.56288V11.9521C11.5587 12.5922 11.0235 13.1169 10.3625 13.1169Z" fill="#226FFF"/>
<path id="Vector_3" d="M7.43487 10.9551C7.32994 10.9551 7.225 10.9131 7.14106 10.8292C6.97316 10.6613 6.97316 10.399 7.14106 10.2311L12.4402 4.91107C12.6081 4.74318 12.8704 4.74318 13.0383 4.91107C13.2062 5.07896 13.2062 5.34129 13.0383 5.50918L7.73917 10.8292C7.64474 10.9131 7.5398 10.9551 7.43487 10.9551Z" fill="#226FFF"/>
</g>
</g>
</svg>
