<svg width="20" height="20" viewBox="0 0 20 20" fill="none" xmlns="http://www.w3.org/2000/svg">
<g id="&#233;&#128;&#137;&#230;&#139;&#169;&#229;&#186;&#148;&#231;&#148;&#168;&#230;&#168;&#161;&#229;&#157;&#151; 1">
<path id="Vector" d="M10.542 18.9265C10.2326 19.1056 9.85115 19.1059 9.54144 18.9274L2.56424 14.9044C2.2547 14.7259 2.0639 14.3959 2.06375 14.0385L2.06025 5.97794C2.06009 5.62035 2.25089 5.2899 2.56065 5.11125L9.53646 1.08808C9.84563 0.909781 10.2264 0.90976 10.5356 1.08803L17.5135 5.11141C17.8232 5.28997 18.014 5.62025 18.014 5.97772V14.0235C18.014 14.3803 17.8239 14.7101 17.5151 14.8889L10.542 18.9265Z" fill="#226FFF"/>
<path id="Vector_2" d="M10.04 10.934L5.63871 8.36516C5.2572 8.14249 5.12836 7.65275 5.35091 7.27117C5.57352 6.88947 6.06343 6.76053 6.44511 6.98319L10.036 9.07802L13.5771 6.9885C13.9576 6.76397 14.4481 6.89029 14.6728 7.27069C14.8977 7.65134 14.7712 8.14221 14.3905 8.36689L10.04 10.934Z" fill="white"/>
<path id="Vector_3" d="M9.23798 10.006H10.838V14.562C10.838 15.0038 10.4798 15.362 10.038 15.362C9.59615 15.362 9.23798 15.0038 9.23798 14.562V10.006Z" fill="white"/>
<path id="Rectangle 793" d="M14.5 17C14.5 15.6193 15.6193 14.5 17 14.5C18.3807 14.5 19.5 15.6193 19.5 17C19.5 18.3807 18.3807 19.5 17 19.5C15.6193 19.5 14.5 18.3807 14.5 17Z" fill="#4FE9CC" stroke="#4FE9CC"/>
</g>
</svg>
