<svg width="32" height="32" viewBox="0 0 32 32" fill="none" xmlns="http://www.w3.org/2000/svg">
<g id="search" style="mix-blend-mode:multiply">
<g id="switch_left">
<mask id="mask0_1075_10987" style="mask-type:alpha" maskUnits="userSpaceOnUse" x="6" y="6" width="20" height="20">
<rect id="Bounding box" x="6" y="26" width="20" height="20" transform="rotate(-90 6 26)" fill="#D9D9D9"/>
</mask>
<g mask="url(#mask0_1075_10987)">
<path id="switch_left_2" d="M20.0625 18.25C20.0625 18.3333 20.0451 18.4187 20.0104 18.5062C19.9757 18.5937 19.9236 18.675 19.8542 18.75L16.5656 22.4017C16.4941 22.4811 16.4097 22.5382 16.3125 22.5729C16.2153 22.6076 16.1111 22.625 16 22.625C15.8889 22.625 15.7847 22.6076 15.6875 22.5729C15.5903 22.5382 15.5059 22.4811 15.4344 22.4017L12.1458 18.75C12.0764 18.675 12.0243 18.5937 11.9896 18.5062C11.9549 18.4187 11.9375 18.3333 11.9375 18.25C11.9375 18.05 12.0035 17.875 12.1354 17.725C12.2674 17.575 12.4514 17.5 12.6875 17.5H19.3125C19.5486 17.5 19.7326 17.575 19.8646 17.725C19.9965 17.875 20.0625 18.05 20.0625 18.25ZM18.75 18.5H13.25L16 21.5L18.75 18.5ZM20.0625 13.75C20.0625 13.95 19.9965 14.125 19.8646 14.275C19.7326 14.425 19.5486 14.5 19.3125 14.5H12.6875C12.4514 14.5 12.2674 14.425 12.1354 14.275C12.0035 14.125 11.9375 13.95 11.9375 13.75C11.9375 13.6667 11.9549 13.5812 11.9896 13.4937C12.0243 13.4062 12.0764 13.325 12.1458 13.25L15.4344 9.59825C15.5059 9.51886 15.5903 9.46181 15.6875 9.42708C15.7847 9.39236 15.8889 9.375 16 9.375C16.1111 9.375 16.2153 9.39236 16.3125 9.42708C16.4097 9.46181 16.4941 9.51886 16.5656 9.59825L19.8542 13.25C19.9236 13.325 19.9757 13.4062 20.0104 13.4937C20.0451 13.5812 20.0625 13.6667 20.0625 13.75Z" fill="#adadad"/>
</g>
</g>
</g>
</svg>
