<svg width="32" height="32" viewBox="0 0 32 32" fill="none" xmlns="http://www.w3.org/2000/svg">
<path d="M22.4004 11.2004L29.3284 15.2004V23.2004L22.4004 27.2004L15.4724 23.2004V15.2004L22.4004 11.2004ZM22.4004 16.0004C21.5517 16.0004 20.7378 16.3376 20.1377 16.9377C19.5376 17.5378 19.2004 18.3517 19.2004 19.2004C19.2004 20.0491 19.5376 20.8631 20.1377 21.4632C20.7378 22.0633 21.5517 22.4004 22.4004 22.4004C23.2491 22.4004 24.063 22.0633 24.6632 21.4632C25.2633 20.8631 25.6004 20.0491 25.6004 19.2004C25.6004 18.3517 25.2633 17.5378 24.6632 16.9377C24.063 16.3376 23.2491 16.0004 22.4004 16.0004ZM22.4004 17.6004C22.8248 17.6004 23.2317 17.769 23.5318 18.0691C23.8318 18.3691 24.0004 18.7761 24.0004 19.2004C24.0004 19.6248 23.8318 20.0318 23.5318 20.3318C23.2317 20.6319 22.8248 20.8004 22.4004 20.8004C21.9761 20.8004 21.5691 20.6319 21.269 20.3318C20.969 20.0318 20.8004 19.6248 20.8004 19.2004C20.8004 18.7761 20.969 18.3691 21.269 18.0691C21.5691 17.769 21.9761 17.6004 22.4004 17.6004Z" fill="#E0E0E0"/>
<path d="M14.0872 24.0008L19.6296 27.2008H9.60078C9.17644 27.2008 8.76947 27.0322 8.46941 26.7322C8.16935 26.4321 8.00078 26.0251 8.00078 25.6008C8.00078 25.1764 8.16935 24.7695 8.46941 24.4694C8.76947 24.1694 9.17644 24.0008 9.60078 24.0008H14.0872ZM25.6008 4.80078C25.8109 4.80078 26.019 4.84217 26.2131 4.92257C26.4072 5.00298 26.5836 5.12084 26.7322 5.26941C26.8807 5.41798 26.9986 5.59437 27.079 5.78849C27.1594 5.98261 27.2008 6.19067 27.2008 6.40078V12.372L22.4008 9.60078L14.0872 14.4008L14.0856 22.4008H6.40078C6.19067 22.4008 5.98261 22.3594 5.78849 22.279C5.59437 22.1986 5.41798 22.0807 5.26941 21.9322C5.12084 21.7836 5.00298 21.6072 4.92257 21.4131C4.84217 21.219 4.80078 21.0109 4.80078 20.8008V6.40078C4.80078 5.97644 4.96935 5.56947 5.26941 5.26941C5.56947 4.96935 5.97644 4.80078 6.40078 4.80078H25.6008Z" fill="#E0E0E0"/>
</svg>
