<svg width="32" height="32" viewBox="0 0 32 32" fill="none" xmlns="http://www.w3.org/2000/svg">
<g id="topo-node-nslice-16 1">
<g id="Group 40000">
<path id="Vector" d="M9.53857 17.8466C9.53857 18.3363 9.73308 18.8059 10.0793 19.1521C10.4255 19.4983 10.8951 19.6928 11.3847 19.6928C11.8744 19.6928 12.3439 19.4983 12.6902 19.1521C13.0364 18.8059 13.2309 18.3363 13.2309 17.8466C13.2309 17.357 13.0364 16.8874 12.6902 16.5412C12.3439 16.195 11.8744 16.0005 11.3847 16.0005C10.8951 16.0005 10.4255 16.195 10.0793 16.5412C9.73308 16.8874 9.53857 17.357 9.53857 17.8466Z" fill="#226FFF"/>
<path id="Vector_2" d="M22.4615 16.9233H24.5538C24.8738 17.4741 25.4677 17.8464 26.1538 17.8464C27.1723 17.8464 28 17.0187 28 16.0003C28 14.9818 27.1723 14.1541 26.1538 14.1541C25.4708 14.1541 24.8738 14.5264 24.5538 15.0772H22.4615V5.84639H24.5538C24.8738 6.39716 25.4677 6.76947 26.1538 6.76947C27.1723 6.76947 28 5.94177 28 4.92331C28 3.90484 27.1723 3.07715 26.1538 3.07715C25.4708 3.07715 24.8738 3.44946 24.5538 4.00023H21.5385C21.0277 4.00023 20.6154 4.41254 20.6154 4.92331V15.0772H18.7692V4.92331C18.7692 4.41254 18.3569 4.00023 17.8462 4.00023H4.92308C4.41231 4.00023 4 4.41254 4 4.92331V27.0772C4 27.588 4.41231 28.0003 4.92308 28.0003H17.8462C18.3569 28.0003 18.7692 27.588 18.7692 27.0772V16.9233H20.6154V27.0772C20.6154 27.588 21.0277 28.0003 21.5385 28.0003C21.5785 28.0003 21.6154 27.9972 21.6554 27.9942C21.6923 28.0003 21.7323 28.0003 21.7723 28.0003H24.5538C24.8738 28.5511 25.4677 28.9234 26.1538 28.9234C27.1723 28.9234 28 28.0957 28 27.0772C28 26.0588 27.1723 25.2311 26.1538 25.2311C25.4708 25.2311 24.8738 25.6034 24.5538 26.1541H22.4615V16.9233ZM16.9231 26.1541H5.84615V5.84639H16.9231V26.1541Z" fill="#226FFF"/>
</g>
<rect id="Rectangle 814" x="8.29004" y="22.5" width="6.86" height="1" rx="0.5" fill="#226FFF"/>
<rect id="Rectangle 815" x="8.29004" y="11.5" width="6.86" height="1" rx="0.5" fill="#226FFF"/>
<rect id="Rectangle 816" x="8.29004" y="8.75" width="6.86" height="1" rx="0.5" fill="#226FFF"/>
</g>
</svg>
