<svg width="32" height="32" viewBox="0 0 32 32" fill="none" xmlns="http://www.w3.org/2000/svg">
<rect width="32" height="32" rx="16" fill="#E7F6FF"/>
<path d="M6.40039 18.56C6.40039 17.881 6.65325 17.2299 7.10333 16.7498C7.55342 16.2697 8.16387 16 8.80039 16H23.2004C23.8369 16 24.4474 16.2697 24.8974 16.7498C25.3475 17.2299 25.6004 17.881 25.6004 18.56V19.84C25.6004 20.5189 25.3475 21.1701 24.8974 21.6502C24.4474 22.1303 23.8369 22.4 23.2004 22.4H8.80039C8.16387 22.4 7.55342 22.1303 7.10333 21.6502C6.65325 21.1701 6.40039 20.5189 6.40039 19.84V18.56ZM9.40039 19.84C9.55952 19.84 9.71213 19.7725 9.82465 19.6525C9.93718 19.5325 10.0004 19.3697 10.0004 19.2C10.0004 19.0302 9.93718 18.8674 9.82465 18.7474C9.71213 18.6274 9.55952 18.56 9.40039 18.56C9.24126 18.56 9.08865 18.6274 8.97613 18.7474C8.86361 18.8674 8.80039 19.0302 8.80039 19.2C8.80039 19.3697 8.86361 19.5325 8.97613 19.6525C9.08865 19.7725 9.24126 19.84 9.40039 19.84ZM11.8004 19.84C11.9595 19.84 12.1121 19.7725 12.2247 19.6525C12.3372 19.5325 12.4004 19.3697 12.4004 19.2C12.4004 19.0302 12.3372 18.8674 12.2247 18.7474C12.1121 18.6274 11.9595 18.56 11.8004 18.56C11.6413 18.56 11.4886 18.6274 11.3761 18.7474C11.2636 18.8674 11.2004 19.0302 11.2004 19.2C11.2004 19.3697 11.2636 19.5325 11.3761 19.6525C11.4886 19.7725 11.6413 19.84 11.8004 19.84ZM7.49239 14.9811C7.90934 14.8079 8.35295 14.7193 8.80039 14.72H23.2004C23.6612 14.72 24.1028 14.8121 24.5084 14.9811L22.268 10.6009C22.1132 10.298 21.8847 10.0452 21.6066 9.86907C21.3285 9.69293 21.011 9.59997 20.6876 9.59998H11.3132C10.9898 9.59997 10.6723 9.69293 10.3942 9.86907C10.1161 10.0452 9.88761 10.298 9.73279 10.6009L7.49239 14.9811Z" fill="#4D69FF"/>
</svg>
