<svg width="64" height="64" viewBox="0 0 64 64" fill="none" xmlns="http://www.w3.org/2000/svg">
<g id="Configmaps" clip-path="url(#clip0_391_729)">
<circle id="Ellipse 55" cx="32" cy="32" r="32" fill="#F0F0F0"/>
<g id="Group 40004">
<g id="Group 40005">
<path id="Vector" d="M50.2878 32.3602C49.1242 33.3185 47.2076 34.8928 45.9756 35.9196L45.9071 35.988C45.6333 36.1934 45.2911 36.3303 45.0173 36.2618C44.6066 36.2618 44.3328 36.0565 44.059 35.7827L43.3745 35.0982L41.5264 33.2501C41.2526 33.0447 41.321 32.634 41.3895 32.2918C41.6633 31.6073 41.5948 30.7175 41.0472 30.1699L39.5414 28.664C39.4045 28.8009 39.2676 28.8694 39.1307 28.9378C38.5831 29.417 38.1039 29.9645 37.5563 30.4437C37.6932 31.1966 37.4879 31.9496 36.8719 32.5656C36.3927 33.0447 35.7767 33.2501 35.1606 33.2501V33.3185L18.1168 50.3622C17.7746 50.7729 17.1586 50.9098 16.611 50.7045C16.3372 50.5676 16.0634 50.3622 15.858 50.1569C15.0366 49.2671 14.1468 48.4457 13.257 47.5558C12.9832 47.282 12.7778 46.9398 12.7778 46.5291C12.7778 46.1184 12.9147 45.7762 13.1885 45.5024C16.9532 41.8062 23.1821 35.5773 26.9468 31.7442L29.9585 28.7325C29.7532 27.9111 29.9585 27.0897 30.5746 26.4737C31.1221 25.9261 31.8066 25.7207 32.4911 25.7892C32.8334 25.4469 33.2441 25.1047 33.5179 24.6256C33.5863 24.5571 33.6548 24.4202 33.6548 24.2833C33.8601 23.7357 33.7916 23.0512 33.5863 22.5036C33.2441 21.6138 32.628 20.7924 32.0804 20.0395C31.5328 19.4235 30.9852 18.8074 30.3692 18.2598L30.2323 18.1229C28.1104 16.2748 25.5778 15.0427 22.9767 14.0845C22.7029 13.9476 22.3607 13.9476 22.0184 13.8107C23.7981 13.8107 25.5778 13.8791 27.3575 14.016C28.0419 14.016 28.7264 14.1529 29.4109 14.2214C29.6163 14.2214 29.8216 14.2898 30.027 14.2898C31.259 14.4267 32.4227 14.6321 33.6548 14.9058C33.997 14.9743 34.2708 15.0427 34.613 15.1796C35.1606 15.3165 35.6398 15.5219 36.1189 15.7957C36.6665 16.001 37.0772 16.4802 37.4879 16.8909L39.7467 19.1497C40.7734 20.1764 41.8686 21.2031 42.8954 22.2298C43.1692 22.5036 43.5114 22.7774 43.6483 23.1881C43.7852 23.5304 43.7852 23.9411 43.5798 24.2833C43.4429 24.5571 43.2376 24.694 43.0323 24.9678C43.5114 25.4469 43.9905 25.9261 44.4012 26.4052C44.6066 26.6106 44.7435 26.8844 45.0173 26.9528C45.4964 27.5004 46.3862 27.5688 47.1392 27.3635C47.4814 27.295 47.8921 27.295 48.0975 27.5688L49.3296 29.0063L50.3563 30.2383C50.5616 30.5121 50.767 30.8544 50.767 31.2651C50.8354 31.6758 50.5616 32.0864 50.2878 32.3602Z" fill="#1830F4"/>
<path id="Vector_2" d="M45.9757 35.9197C47.2078 34.893 49.1244 33.3186 50.288 32.3604C50.5618 32.0866 50.8356 31.6759 50.7672 31.2652C50.7672 30.8545 50.5618 30.5123 50.3565 30.2385L49.3297 29.0064L48.0977 27.569C47.8923 27.2952 47.4816 27.2952 47.1394 27.3636C46.3864 27.569 45.4966 27.5005 45.0175 26.9529C44.7437 26.8845 44.6068 26.6107 44.4014 26.4053C43.9907 25.9262 43.5116 25.4471 43.0324 24.9679C43.2378 24.6941 43.4431 24.5572 43.58 24.2834C43.7854 23.9412 43.7854 23.5305 43.6485 23.1883C43.5116 22.7776 43.1693 22.5038 42.8955 22.23C41.8688 21.2032 40.7736 20.1765 39.7469 19.1498L37.4881 16.891C37.0774 16.4803 36.6667 16.0011 36.1191 15.7958C35.64 15.522 35.1608 15.3167 34.6132 15.1798C34.271 15.0429 33.9972 14.9744 33.6549 14.906C32.4229 14.6322 31.2592 14.4268 30.0271 14.2899C29.8218 14.2899 29.6164 14.2215 29.4111 14.2215C28.7266 14.153 28.0421 14.0161 27.3576 14.0161C25.578 13.8792 23.7983 13.8108 22.0186 13.8108C22.3609 13.9477 22.7031 13.9477 22.9769 14.0846C25.578 15.0429 28.1106 16.2749 30.2325 18.1231L30.3694 18.26C30.9854 18.8075 31.533 19.4236 32.0806 20.0396C32.6282 20.7926 33.2442 21.6139 33.5865 22.5038C33.7918 23.0514 33.8603 23.7358 33.6549 24.2834C33.6549 24.4203 33.5865 24.5572 33.518 24.6257C33.2442 25.1048 32.8335 25.4471 32.4913 25.7893L37.5565 30.4438C38.1041 29.9647 38.5833 29.4171 39.1308 28.9379C39.2677 28.8695 39.4046 28.801 39.5415 28.6641L41.0474 30.17C41.595 30.7176 41.6635 31.6074 41.3897 32.2919C41.3212 32.6342 41.2528 33.0449 41.5266 33.2502L43.3747 35.0983L44.0592 35.7828C44.333 36.0566 44.6068 36.2619 45.0175 36.2619C45.2913 36.3304 45.6335 36.1935 45.9073 35.9881L45.9757 35.9197Z" fill="#A1CAFB"/>
</g>
</g>
</g>
<defs>
<clipPath id="clip0_391_729">
<rect width="64" height="64" fill="white"/>
</clipPath>
</defs>
</svg>
