<svg width="32" height="32" viewBox="0 0 32 32" fill="none" xmlns="http://www.w3.org/2000/svg">
<path d="M12.5714 4H19.4285C20.8 4 21.4857 4.68572 21.4857 6.05715V9.48572C21.4857 10.8572 20.8 11.5429 19.4285 11.5429H12.5714C11.2 11.5429 10.5142 10.8572 10.5142 9.48572V6.05715C10.5142 4.68572 11.2 4 12.5714 4Z" fill="#E0E0E0"/>
<path d="M12.5714 12.2285H19.4285C20.8 12.2285 21.4857 12.9142 21.4857 14.2857V17.7142C21.4857 19.0857 20.8 19.7714 19.4285 19.7714H12.5714C11.2 19.7714 10.5142 19.0857 10.5142 17.7142V14.2857C10.5142 12.9142 11.2 12.2285 12.5714 12.2285Z" fill="#E0E0E0"/>
<path d="M12.5714 20.4571H19.4285C20.8 20.4571 21.4857 21.1428 21.4857 22.5142V25.9428C21.4857 27.3142 20.8 28 19.4285 28H12.5714C11.2 28 10.5142 27.3142 10.5142 25.9428V22.5142C10.5142 21.1428 11.2 20.4571 12.5714 20.4571Z" fill="#E0E0E0"/>
<path d="M24.3454 25.6H23.5428C23.3609 25.6 23.1865 25.5278 23.0579 25.3992C22.9293 25.2706 22.8571 25.0962 22.8571 24.9143C22.8571 24.7324 22.9293 24.558 23.0579 24.4294C23.1865 24.3008 23.3609 24.2286 23.5428 24.2286H24.3454C24.5072 23.7711 24.8255 23.3855 25.244 23.1399C25.6626 22.8944 26.1545 22.8047 26.6328 22.8868C27.1111 22.9688 27.545 23.2173 27.8577 23.5884C28.1705 23.9594 28.3421 24.429 28.3421 24.9143C28.3421 25.3996 28.1705 25.8692 27.8577 26.2402C27.545 26.6113 27.1111 26.8598 26.6328 26.9418C26.1545 27.0239 25.6626 26.9342 25.244 26.6887C24.8255 26.4431 24.5072 26.0575 24.3454 25.6ZM7.6548 24.2286H8.45709C8.63895 24.2286 8.81336 24.3008 8.94196 24.4294C9.07056 24.558 9.1428 24.7324 9.1428 24.9143C9.1428 25.0962 9.07056 25.2706 8.94196 25.3992C8.81336 25.5278 8.63895 25.6 8.45709 25.6H7.65446C7.4927 26.0575 7.17441 26.4431 6.75584 26.6887C6.33728 26.9342 5.84538 27.0239 5.3671 26.9418C4.88882 26.8598 4.45494 26.6113 4.14216 26.2402C3.82937 25.8692 3.65782 25.3996 3.65782 24.9143C3.65782 24.429 3.82937 23.9594 4.14216 23.5884C4.45494 23.2173 4.88882 22.9688 5.3671 22.8868C5.84538 22.8047 6.33728 22.8944 6.75584 23.1399C7.17441 23.3855 7.4927 23.7711 7.65446 24.2286H7.6548ZM24.3451 17.0286H23.5428C23.3609 17.0286 23.1865 16.9563 23.0579 16.8277C22.9293 16.6991 22.8571 16.5247 22.8571 16.3429C22.8571 16.161 22.9293 15.9866 23.0579 15.858C23.1865 15.7294 23.3609 15.6571 23.5428 15.6571H24.3454C24.5072 15.1996 24.8255 14.814 25.244 14.5685C25.6626 14.3229 26.1545 14.2333 26.6328 14.3153C27.1111 14.3974 27.545 14.6459 27.8577 15.0169C28.1705 15.3879 28.3421 15.8576 28.3421 16.3429C28.3421 16.8281 28.1705 17.2978 27.8577 17.6688C27.545 18.0398 27.1111 18.2883 26.6328 18.3704C26.1545 18.4524 25.6626 18.3628 25.244 18.1172C24.8255 17.8717 24.5072 17.4861 24.3454 17.0286H24.3451ZM7.6548 15.6571H8.45709C8.63895 15.6571 8.81336 15.7294 8.94196 15.858C9.07056 15.9866 9.1428 16.161 9.1428 16.3429C9.1428 16.5247 9.07056 16.6991 8.94196 16.8277C8.81336 16.9563 8.63895 17.0286 8.45709 17.0286H7.65446C7.4927 17.4861 7.17441 17.8717 6.75584 18.1172C6.33728 18.3628 5.84538 18.4524 5.3671 18.3704C4.88882 18.2883 4.45494 18.0398 4.14216 17.6688C3.82937 17.2978 3.65782 16.8281 3.65782 16.3429C3.65782 15.8576 3.82937 15.3879 4.14216 15.0169C4.45494 14.6459 4.88882 14.3974 5.3671 14.3153C5.84538 14.2333 6.33728 14.3229 6.75584 14.5685C7.17441 14.814 7.4927 15.1996 7.65446 15.6571H7.6548ZM24.3451 8.11427H23.5428C23.3609 8.11427 23.1865 8.04202 23.0579 7.91342C22.9293 7.78483 22.8571 7.61041 22.8571 7.42855C22.8571 7.24669 22.9293 7.07227 23.0579 6.94368C23.1865 6.81508 23.3609 6.74283 23.5428 6.74283H24.3454C24.5072 6.28532 24.8255 5.89971 25.244 5.65417C25.6626 5.40863 26.1545 5.31897 26.6328 5.40103C27.1111 5.48309 27.545 5.73159 27.8577 6.10261C28.1705 6.47363 28.3421 6.94328 28.3421 7.42855C28.3421 7.91382 28.1705 8.38347 27.8577 8.75449C27.545 9.12551 27.1111 9.37401 26.6328 9.45607C26.1545 9.53813 25.6626 9.44847 25.244 9.20293C24.8255 8.95739 24.5072 8.57178 24.3454 8.11427H24.3451ZM7.6548 6.74283H8.45709C8.63895 6.74283 8.81336 6.81508 8.94196 6.94368C9.07056 7.07227 9.1428 7.24669 9.1428 7.42855C9.1428 7.61041 9.07056 7.78483 8.94196 7.91342C8.81336 8.04202 8.63895 8.11427 8.45709 8.11427H7.65446C7.4927 8.57178 7.17441 8.95739 6.75584 9.20293C6.33728 9.44847 5.84538 9.53813 5.3671 9.45607C4.88882 9.37401 4.45494 9.12551 4.14216 8.75449C3.82937 8.38347 3.65782 7.91382 3.65782 7.42855C3.65782 6.94328 3.82937 6.47363 4.14216 6.10261C4.45494 5.73159 4.88882 5.48309 5.3671 5.40103C5.84538 5.31897 6.33728 5.40863 6.75584 5.65417C7.17441 5.89971 7.4927 6.28532 7.65446 6.74283H7.6548Z" fill="#E0E0E0"/>
<path d="M13.7714 7.42853H18.2285C18.5714 7.42853 18.7428 7.59996 18.7428 7.94281C18.7428 8.28567 18.5714 8.4571 18.2285 8.4571H13.7714C13.4285 8.4571 13.2571 8.28567 13.2571 7.94281C13.2571 7.59996 13.4285 7.42853 13.7714 7.42853Z" fill="white"/>
<path d="M13.7714 15.6571H18.2285C18.5714 15.6571 18.7428 15.8285 18.7428 16.1714C18.7428 16.5142 18.5714 16.6857 18.2285 16.6857H13.7714C13.4285 16.6857 13.2571 16.5142 13.2571 16.1714C13.2571 15.8285 13.4285 15.6571 13.7714 15.6571Z" fill="white"/>
<path d="M13.7714 23.8857H18.2285C18.5714 23.8857 18.7428 24.0571 18.7428 24.4C18.7428 24.7428 18.5714 24.9143 18.2285 24.9143H13.7714C13.4285 24.9143 13.2571 24.7428 13.2571 24.4C13.2571 24.0571 13.4285 23.8857 13.7714 23.8857Z" fill="white"/>
</svg>
