<svg width="64" height="64" viewBox="0 0 64 64" fill="none" xmlns="http://www.w3.org/2000/svg">
<g id="Daemonsets" clip-path="url(#clip0_391_711)">
<circle id="Ellipse 55" cx="32" cy="32" r="32" fill="#DAF9E1"/>
<g id="Group 40004">
<path id="Subtract" fill-rule="evenodd" clip-rule="evenodd" d="M24 22V18C24 16.8954 24.8954 16 26 16L46 16C47.1046 16 48 16.8954 48 18V38C48 39.1046 47.1046 40 46 40H42V24C42 22.8954 41.1046 22 40 22L24 22Z" fill="#8CE1AB"/>
<path id="Subtract_2" fill-rule="evenodd" clip-rule="evenodd" d="M18 24C16.8954 24 16 24.8954 16 26V46C16 47.1046 16.8954 48 18 48H38C39.1046 48 40 47.1046 40 46V26C40 24.8954 39.1046 24 38 24H18ZM25.4903 29.49C26.4203 29.2319 27.4086 29 28 29C28.5914 29 29.5797 29.2327 30.5097 29.4891C31.3404 29.7225 32.1655 29.9763 32.9843 30.2504C33.2202 30.33 33.4292 30.476 33.5875 30.6715C33.7458 30.8669 33.8469 31.104 33.8791 31.3555C34.39 35.2729 33.2046 38.1761 31.7663 40.0968C31.1564 40.9184 30.4291 41.6419 29.6089 42.2431C29.3252 42.4512 29.0247 42.6341 28.7106 42.79C28.4697 42.9055 28.2126 43 28 43C27.7874 43 27.5294 42.9055 27.2894 42.79C27.0289 42.6649 26.722 42.482 26.3911 42.2431C25.5709 41.6419 24.8436 40.9183 24.2337 40.0968C22.7954 38.1761 21.61 35.2729 22.1209 31.3555C22.1532 31.1041 22.2543 30.8672 22.4126 30.6719C22.5709 30.4765 22.7799 30.3307 23.0157 30.2512C23.5797 30.0631 24.5389 29.7525 25.4903 29.49ZM28.8299 33.6834C28.5976 33.4838 28.3036 33.3745 28 33.375C27.6964 33.3745 27.4024 33.4838 27.1701 33.6834C26.9378 33.883 26.7822 34.1601 26.7309 34.4656C26.6795 34.7711 26.7358 35.0853 26.8896 35.3525C27.0435 35.6197 27.285 35.8228 27.5714 35.9256L27.2423 37.6669C27.2303 37.7301 27.2321 37.7953 27.2477 37.8578C27.2632 37.9202 27.2921 37.9784 27.3322 38.0281C27.3723 38.0779 27.4227 38.1179 27.4798 38.1455C27.5369 38.173 27.5992 38.1874 27.6623 38.1875H28.3377C28.4009 38.1875 28.4633 38.1733 28.5205 38.1458C28.5776 38.1183 28.6281 38.0782 28.6684 38.0285C28.7086 37.9787 28.7375 37.9205 28.7531 37.858C28.7687 37.7955 28.7706 37.7302 28.7586 37.6669L28.4286 35.9256C28.715 35.8228 28.9565 35.6197 29.1104 35.3525C29.2642 35.0853 29.3205 34.7711 29.2691 34.4656C29.2178 34.1601 29.0622 33.883 28.8299 33.6834Z" fill="#56B174"/>
</g>
</g>
<defs>
<clipPath id="clip0_391_711">
<rect width="64" height="64" fill="white"/>
</clipPath>
</defs>
</svg>
