<svg width="20" height="20" viewBox="0 0 20 20" fill="none" xmlns="http://www.w3.org/2000/svg">
<g id="Default">
<rect width="20" height="20" fill="#EBEBEB"/>
<rect id="Rectangle 23058" x="4" y="4" width="12" height="12" rx="3" fill="url(#paint0_linear_3040_54372)"/>
<path id="&#230;&#164;&#173;&#229;&#156;&#134;_808" d="M14 7C14 7.55242 13.5524 8 13 8C12.4476 8 12 7.55242 12 7C12 6.44758 12.4476 6 13 6C13.5524 6 14 6.44758 14 7Z" fill="white"/>
<path id="&#232;&#183;&#175;&#229;&#190;&#132;_16915" d="M9.93528 13H14.0547C14.7839 12.9959 15.2341 12.4219 14.8726 11.9778L12.8337 9.5231C12.6629 9.31939 12.4004 9 12.0003 9C11.6075 9 11.41 9.29724 11.2159 9.5272L9.13503 11.9989C8.76164 12.4471 9.20612 13.0043 9.93528 13Z" fill="url(#paint1_linear_3040_54372)"/>
<path id="&#232;&#183;&#175;&#229;&#190;&#132;_16916" d="M6.09107 13H10.8969C11.7475 12.9946 12.273 12.2673 11.8516 11.7027L9.47363 8.58732C9.25729 8.30648 8.96729 8 8.5001 8C8.05756 8 7.79366 8.32456 7.58486 8.59392L5.15756 11.7306C4.72198 12.2981 5.24021 13.0063 6.09107 13Z" fill="url(#paint2_linear_3040_54372)"/>
</g>
<defs>
<linearGradient id="paint0_linear_3040_54372" x1="10" y1="4" x2="10" y2="16" gradientUnits="userSpaceOnUse">
<stop stop-color="#D9D9D9"/>
<stop offset="1" stop-color="#AFAFAF"/>
</linearGradient>
<linearGradient id="paint1_linear_3040_54372" x1="9.00803" y1="10.9948" x2="15.0127" y2="10.9948" gradientUnits="userSpaceOnUse">
<stop stop-color="white"/>
<stop offset="1" stop-color="white" stop-opacity="0.2"/>
</linearGradient>
<linearGradient id="paint2_linear_3040_54372" x1="5.0897" y1="10.4729" x2="12.0758" y2="10.4729" gradientUnits="userSpaceOnUse">
<stop stop-color="white"/>
<stop offset="1" stop-color="white" stop-opacity="0.7"/>
</linearGradient>
</defs>
</svg>
