<svg width="20" height="20" viewBox="0 0 20 20" fill="none" xmlns="http://www.w3.org/2000/svg">
<g clip-path="url(#clip0_1_61947)">
<circle cx="10.0112" cy="10.0112" r="10.0112" fill="#DAF9E1"/>
<path d="M6 12.5C6 12.2239 6.22386 12 6.5 12C6.77614 12 7 12.2239 7 12.5V14.5C7 14.7761 6.77614 15 6.5 15C6.22386 15 6 14.7761 6 14.5V12.5Z" fill="#53B171"/>
<path d="M9.5 12.5C9.5 12.2239 9.72386 12 10 12C10.2761 12 10.5 12.2239 10.5 12.5V14.5C10.5 14.7761 10.2761 15 10 15C9.72386 15 9.5 14.7761 9.5 14.5V12.5Z" fill="#53B171"/>
<path d="M13.5 12C13.2239 12 13 12.2239 13 12.5V14.5C13 14.7761 13.2239 15 13.5 15C13.7761 15 14 14.7761 14 14.5V12.5C14 12.2239 13.7761 12 13.5 12Z" fill="#53B171"/>
<path d="M4 7C4 6.44772 4.44772 6 5 6H15C15.5523 6 16 6.44772 16 7V12C16 12.5523 15.5523 13 15 13H5C4.44772 13 4 12.5523 4 12V7Z" fill="#53B171"/>
<path d="M6 10.9C6 10.9552 6.04477 11 6.1 11H13.9C13.9552 11 14 10.9552 14 10.9V8.1C14 8.04477 13.9552 8 13.9 8H6.1C6.04477 8 6 8.04477 6 8.1V10.9Z" fill="#8CE1AB"/>
<path fill-rule="evenodd" clip-rule="evenodd" d="M6.1 11.5H13.9C14.2314 11.5 14.5 11.2314 14.5 10.9V8.1C14.5 7.76863 14.2314 7.5 13.9 7.5H6.1C5.76863 7.5 5.5 7.76863 5.5 8.1V10.9C5.5 11.2314 5.76863 11.5 6.1 11.5ZM6.1 11C6.04477 11 6 10.9552 6 10.9V8.1C6 8.04477 6.04477 8 6.1 8H13.9C13.9552 8 14 8.04477 14 8.1V10.9C14 10.9552 13.9552 11 13.9 11H6.1Z" fill="#DAF9E1"/>
</g>
<defs>
<clipPath id="clip0_1_61947">
<rect width="20" height="20" fill="white"/>
</clipPath>
</defs>
</svg>
