<svg width="24" height="18" viewBox="0 0 24 18" fill="none" xmlns="http://www.w3.org/2000/svg">
<path d="M3 0C2.20435 0 1.44129 0.31607 0.87868 0.87868C0.316071 1.44129 0 2.20435 0 3L0 4.5C0 5.29565 0.316071 6.05871 0.87868 6.62132C1.44129 7.18393 2.20435 7.5 3 7.5H11.25V12C10.6533 12 10.081 12.2371 9.65901 12.659C9.23705 13.081 9 13.6533 9 14.25H0.75C0.551088 14.25 0.360322 14.329 0.21967 14.4697C0.0790176 14.6103 0 14.8011 0 15C0 15.1989 0.0790176 15.3897 0.21967 15.5303C0.360322 15.671 0.551088 15.75 0.75 15.75H9C9 16.3467 9.23705 16.919 9.65901 17.341C10.081 17.7629 10.6533 18 11.25 18H12.75C13.3467 18 13.919 17.7629 14.341 17.341C14.7629 16.919 15 16.3467 15 15.75H23.25C23.4489 15.75 23.6397 15.671 23.7803 15.5303C23.921 15.3897 24 15.1989 24 15C24 14.8011 23.921 14.6103 23.7803 14.4697C23.6397 14.329 23.4489 14.25 23.25 14.25H15C15 13.6533 14.7629 13.081 14.341 12.659C13.919 12.2371 13.3467 12 12.75 12V7.5H21C21.7957 7.5 22.5587 7.18393 23.1213 6.62132C23.6839 6.05871 24 5.29565 24 4.5V3C24 2.20435 23.6839 1.44129 23.1213 0.87868C22.5587 0.31607 21.7957 0 21 0H3Z" fill="#226FFF"/>
</svg>
