<svg width="24" height="16" viewBox="0 0 24 16" fill="none" xmlns="http://www.w3.org/2000/svg">
<path d="M16.5 15.5001C17.9514 15.5 19.3716 15.0789 20.5884 14.2877C21.8051 13.4965 22.7662 12.3693 23.355 11.0427C23.9438 9.71612 24.1351 8.24719 23.9056 6.81406C23.6761 5.38094 23.0357 4.04519 22.062 2.96882C21.0884 1.89245 19.8234 1.1217 18.4204 0.750055C17.0174 0.378406 15.5367 0.421822 14.1579 0.87504C12.7791 1.32826 11.5614 2.1718 10.6525 3.30337C9.74364 4.43494 9.18261 5.80592 9.03747 7.25003H5.99996C5.99996 6.65329 5.76291 6.08099 5.34095 5.65903C4.91899 5.23707 4.34669 5.00002 3.74995 5.00002H2.24995C1.65321 5.00002 1.08091 5.23707 0.658951 5.65903C0.236993 6.08099 -6.10352e-05 6.65329 -6.10352e-05 7.25003L-6.10352e-05 8.75003C-6.10352e-05 9.34677 0.236993 9.91907 0.658951 10.341C1.08091 10.763 1.65321 11 2.24995 11H3.74995C4.34669 11 4.91899 10.763 5.34095 10.341C5.76291 9.91907 5.99996 9.34677 5.99996 8.75003H9.03747C9.2234 10.6 10.0899 12.315 11.4688 13.5622C12.8477 14.8095 14.6407 15.5001 16.5 15.5001Z" fill="#226FFF"/>
</svg>
