<svg width="16" height="10" viewBox="0 0 16 10" fill="none" xmlns="http://www.w3.org/2000/svg">
<path d="M16 8C16 8.53043 15.7893 9.03914 15.4142 9.41421C15.0391 9.78929 14.5304 10 14 10H2C1.46957 10 0.960859 9.78929 0.585786 9.41421C0.210714 9.03914 0 8.53043 0 8V6.51C0 6.092 0.105 5.68 0.305 5.313L2.777 0.782C2.90602 0.545353 3.09641 0.347841 3.32816 0.210231C3.55992 0.0726216 3.82447 -8.8683e-07 4.094 0H11.906C12.1755 -8.8683e-07 12.4401 0.0726216 12.6718 0.210231C12.9036 0.347841 13.094 0.545353 13.223 0.782L15.695 5.312C15.895 5.68 16 6.092 16 6.51V8ZM3.655 1.26L1.592 5.043C1.724 5.014 1.86 5 2 5H14C14.14 5 14.276 5.014 14.408 5.042L12.345 1.26C12.3019 1.18124 12.2384 1.11554 12.1612 1.06979C12.0839 1.02404 11.9958 0.999934 11.906 1H4.094C4.00405 0.999754 3.91571 1.02378 3.83827 1.06953C3.76083 1.11529 3.69817 1.18109 3.655 1.26ZM1 7V8C1 8.26522 1.10536 8.51957 1.29289 8.70711C1.48043 8.89464 1.73478 9 2 9H14C14.2652 9 14.5196 8.89464 14.7071 8.70711C14.8946 8.51957 15 8.26522 15 8V7C15 6.73478 14.8946 6.48043 14.7071 6.29289C14.5196 6.10536 14.2652 6 14 6H2C1.73478 6 1.48043 6.10536 1.29289 6.29289C1.10536 6.48043 1 6.73478 1 7Z" fill="#414141"/>
</svg>
