<svg width="32" height="32" viewBox="0 0 32 32" fill="none" xmlns="http://www.w3.org/2000/svg">
<path d="M7.49969 9.91003C7.49969 9.91003 9.08443 5.05471 14.5225 4.13598C14.5225 4.13598 13.69 5.33122 12.8961 7.23707C12.8961 7.23707 11.2281 7.05571 10.8386 8.75343C10.8386 8.75343 9.05767 9.07454 7.49969 9.91003ZM10.8773 9.72866C10.8773 9.72866 8.58195 10.2133 7.11019 11.2985C7.11019 11.2985 6.3431 14.5275 8.19543 17.5453C8.19543 17.5453 10.1013 17.9616 12.019 17.7683C12.019 17.7683 12.0071 16.5701 12.7861 15.9725C12.7861 15.9725 11.8406 13.5404 12.0755 10.9536C12.0755 10.9507 11.1003 10.7158 10.8773 9.72866ZM8.95955 18.6722C8.95955 18.6722 11.3946 22.4274 17.0408 21.913C17.0408 21.913 15.0339 20.0072 14.6206 19.3977C14.6206 19.3977 13.0478 19.7872 12.5066 18.6752C12.5066 18.6722 10.4759 18.9784 8.95955 18.6722ZM15.4145 18.8119C15.4145 18.8119 15.804 18.6454 15.9467 17.697C15.9467 17.697 19.0834 16.5969 21.019 13.6504C21.019 13.6504 21.6315 13.692 22.0626 13.359C22.0626 13.359 23.5255 14.7207 24.2182 16.5017C24.2182 16.5017 22.8535 20.3967 18.4323 21.6484C18.4323 21.6484 16.4432 20.355 15.4145 18.8119ZM23.4392 8.11418C23.4392 8.11418 25.7197 10.7277 24.691 15.1667C24.691 15.1667 23.4244 13.1271 22.797 12.6543C22.797 12.6543 23.3619 11.5602 22.7138 10.7544C22.7108 10.7515 23.3144 9.57405 23.4392 8.11418ZM13.8267 7.5344C13.8267 7.5344 14.4957 8.07256 14.5225 8.56612C14.5225 8.56612 17.35 8.74154 19.8 10.2787C19.8 10.2787 20.8941 9.38079 21.9526 10.0468C21.9526 10.0468 22.5354 8.97048 22.6573 6.99624C22.6573 6.99624 20.469 4.12111 15.908 4.02002C15.905 4.02002 14.1241 6.44024 13.8267 7.5344ZM13.0507 11.0131C13.0507 11.0131 14.3679 11.0964 14.5909 9.53837C14.5909 9.53837 17.1954 9.7792 19.2737 11.0131C19.2737 11.0131 18.7742 12.5889 20.0616 13.359C20.0616 13.359 18.7623 15.3124 15.8069 16.7158C15.8069 16.7158 15.2242 15.363 13.693 15.6127C13.69 15.6097 13.0686 14.4175 13.0507 11.0131Z" fill="#226FFF"/>
<path d="M26.7603 24.6394H17.7395C17.5611 24.3451 17.3143 24.0953 17.023 23.914V22.5879H14.683V23.911C14.3916 24.0953 14.1449 24.3421 13.9665 24.6365H5.23109C4.55022 24.6365 3.99719 25.1895 3.99719 25.8704C3.99719 26.5512 4.55022 27.1043 5.23109 27.1043H14.0913C14.4927 27.6394 15.132 27.9843 15.8545 27.9843C16.577 27.9843 17.2132 27.6394 17.6176 27.1043H26.7633C27.4442 27.1043 27.9972 26.5512 27.9972 25.8704C27.9942 25.1925 27.4412 24.6394 26.7603 24.6394Z" fill="#4FE9CC"/>
</svg>
