<svg width="24" height="28" viewBox="0 0 24 28" fill="none" xmlns="http://www.w3.org/2000/svg">
<path d="M12.9235 20.1563V24.2256C15.4505 23.9965 17.8012 22.8201 19.5132 20.9277C21.2251 19.0354 22.1745 16.5641 22.1745 14C22.1745 11.4359 21.2251 8.96464 19.5132 7.07229C17.8012 5.17995 15.4505 4.00351 12.9235 3.7744V7.55627C14.3946 7.81053 15.7293 8.58238 16.6916 9.73531C17.6539 10.8882 18.1817 12.348 18.1817 13.8563C18.1817 15.3646 17.6539 16.8243 16.6916 17.9772C15.7293 19.1302 14.3946 19.902 12.9235 20.1563ZM11.0765 7.5152V3.7744C8.54951 4.00351 6.19883 5.17995 4.48684 7.07229C2.77486 8.96464 1.82549 11.4359 1.82549 14C1.82549 16.5641 2.77486 19.0354 4.48684 20.9277C6.19883 22.8201 8.54951 23.9965 11.0765 24.2256V20.1973C9.54861 20.0023 8.14366 19.2505 7.12523 18.083C6.1068 16.9156 5.54488 15.4127 5.54488 13.8563C5.54488 12.2999 6.1068 10.797 7.12523 9.62952C8.14366 8.46206 9.54861 7.71027 11.0765 7.5152ZM12.9235 1.90213C15.9377 2.13863 18.7527 3.51569 20.806 5.75823C22.8594 8.00077 24 10.9437 24 13.9991C24 17.0545 22.8594 19.9974 20.806 22.2399C18.7527 24.4824 15.9377 25.8595 12.9235 26.096V28H11.0765V26.0979C8.06229 25.8614 5.24735 24.4843 3.19398 22.2418C1.14061 19.9992 0 17.0563 0 14.0009C0 10.9455 1.14061 8.00263 3.19398 5.76009C5.24735 3.51755 8.06229 2.14049 11.0765 1.904V0H12.9235V1.90213ZM12 18.6667C13.2247 18.6667 14.3992 18.175 15.2651 17.2998C16.1311 16.4247 16.6176 15.2377 16.6176 14C16.6176 12.7623 16.1311 11.5753 15.2651 10.7002C14.3992 9.825 13.2247 9.33333 12 9.33333C10.7753 9.33333 9.60083 9.825 8.73487 10.7002C7.8689 11.5753 7.38241 12.7623 7.38241 14C7.38241 15.2377 7.8689 16.4247 8.73487 17.2998C9.60083 18.175 10.7753 18.6667 12 18.6667Z" fill="#226FFF"/>
</svg>
