<svg width="64" height="64" viewBox="0 0 64 64" fill="none" xmlns="http://www.w3.org/2000/svg">
<g id="Secrets" clip-path="url(#clip0_391_721)">
<circle id="Ellipse 55" cx="32" cy="32" r="32" fill="#FFE7D7"/>
<g id="Group 40004">
<path id="Vector" d="M15.1966 50.0002C14.8775 50.0002 14.5744 49.8726 14.351 49.6492C14.1276 49.4259 14 49.1227 14 48.8036V42.5017C14 42.1826 14.1276 41.8794 14.351 41.6561L27.6211 28.386C27.9123 28.0948 28.3311 27.9752 28.7299 28.0669C29.1288 28.1586 29.4558 28.4498 29.5954 28.8367C30.0462 30.1091 30.792 31.2897 31.7533 32.2509C32.7145 33.2122 33.8952 33.9581 35.1675 34.4088C35.5544 34.5444 35.8456 34.8715 35.9373 35.2743C36.0291 35.6732 35.9054 36.096 35.6182 36.3831L30.0023 41.9911C29.7789 42.2145 29.4718 42.3421 29.1567 42.3421H26.5242V44.9746C26.5242 45.6367 25.9897 46.1712 25.3276 46.1712H22.6952V48.8036C22.6952 49.4658 22.1607 50.0002 21.4986 50.0002H15.1966Z" fill="#FFCE6F"/>
<path id="Subtract" fill-rule="evenodd" clip-rule="evenodd" d="M30.3664 33.6336C32.5391 35.8023 35.428 37 38.5 37C41.572 37 44.4609 35.8023 46.6336 33.6336C48.8023 31.4609 50 28.572 50 25.5C50 22.428 48.8023 19.5391 46.6336 17.3664C44.4609 15.1978 41.572 14 38.5 14C35.428 14 32.5391 15.1978 30.3664 17.3664C28.1978 19.5391 27 22.428 27 25.5C27 28.572 28.1978 31.4609 30.3664 33.6336ZM34 25.5C34 27.9821 36.0179 30 38.5 30C40.9821 30 43 27.9821 43 25.5C43 23.0179 40.9821 21 38.5 21C36.0179 21 34 23.0179 34 25.5Z" fill="#FF8935"/>
</g>
</g>
<defs>
<clipPath id="clip0_391_721">
<rect width="64" height="64" fill="white"/>
</clipPath>
</defs>
</svg>
