<svg width="64" height="64" viewBox="0 0 64 64" fill="none" xmlns="http://www.w3.org/2000/svg">
<g clip-path="url(#clip0_391_704)">
<circle cx="32" cy="32" r="32" fill="#E0E9FA"/>
<path d="M47.2996 37.3327L51.587 39.4777C52.137 39.7526 52.137 40.5376 51.587 40.8126L32.6675 50.2749C32.4602 50.3783 32.2317 50.4322 32 50.4322C31.7683 50.4322 31.5398 50.3783 31.3325 50.2749L12.413 40.8126C12.2894 40.7503 12.1855 40.6549 12.113 40.5371C12.0404 40.4192 12.002 40.2835 12.002 40.1451C12.002 40.0067 12.0404 39.871 12.113 39.7532C12.1855 39.6353 12.2894 39.5399 12.413 39.4777L16.7029 37.3327L29.995 43.98C31.2575 44.61 32.745 44.61 34.0049 43.98L47.2971 37.3302L47.2996 37.3327Z" fill="#94ABFF"/>
<path d="M47.2995 28.3655L51.5869 30.5104C52.1368 30.7854 52.1368 31.5704 51.5869 31.8454L32.6673 41.3052C32.46 41.4086 32.2315 41.4625 31.9999 41.4625C31.7682 41.4625 31.5397 41.4086 31.3324 41.3052L12.4129 31.8454C12.2893 31.7831 12.1854 31.6877 12.1128 31.5699C12.0403 31.452 12.0018 31.3163 12.0018 31.1779C12.0018 31.0395 12.0403 30.9038 12.1128 30.786C12.1854 30.6681 12.2893 30.5727 12.4129 30.5104L16.7028 28.3655L29.9949 35.0128C31.2574 35.6428 32.7448 35.6428 34.0048 35.0128L47.2995 28.3655Z" fill="#94ABFF"/>
<path d="M31.3325 12.0833C31.5399 11.9799 31.7684 11.926 32 11.926C32.2317 11.926 32.4602 11.9799 32.6675 12.0833L51.587 21.5431C51.7105 21.6058 51.8142 21.7015 51.8867 21.8195C51.9591 21.9375 51.9975 22.0733 51.9975 22.2118C51.9975 22.3503 51.9591 22.4861 51.8867 22.6042C51.8142 22.7222 51.7105 22.8179 51.587 22.8806L32.6675 32.3378C32.4602 32.4413 32.2317 32.4951 32 32.4951C31.7684 32.4951 31.5399 32.4413 31.3325 32.3378L12.413 22.8806C12.2888 22.8185 12.1843 22.7231 12.1112 22.605C12.0382 22.4868 11.9995 22.3507 11.9995 22.2118C11.9995 22.073 12.0382 21.9368 12.1112 21.8187C12.1843 21.7006 12.2888 21.6051 12.413 21.5431L31.3325 12.0833Z" fill="#3D4EE4"/>
</g>
<defs>
<clipPath id="clip0_391_704">
<rect width="64" height="64" fill="white"/>
</clipPath>
</defs>
</svg>
