<svg width="64" height="64" viewBox="0 0 64 64" fill="none" xmlns="http://www.w3.org/2000/svg">
<g clip-path="url(#clip0_391_736)">
<circle cx="32" cy="32" r="32" fill="#F0F0F0"/>
<path d="M13.999 44.685C13.999 39.2259 17.0382 34.4757 21.381 32.3348C23.1165 33.2879 24.8548 33.997 27.0247 33.997C29.1987 33.997 30.9341 33.2879 32.6754 32.1024C37.0203 34.2393 40.0594 38.9856 40.0594 44.4527C40.0514 50.3884 13.999 50.3884 13.999 44.685Z" fill="#72B4F7"/>
<path d="M49.829 29.9023C49.6024 30.291 49.1923 30.5332 48.7391 30.5332H38.8989C38.2075 30.5332 37.6449 29.9697 37.6449 29.2753C37.6449 28.5829 38.2075 28.0204 38.8989 28.0204H48.739C49.1922 28.0204 49.6024 28.2587 49.8289 28.6474C50.0554 29.036 50.0555 29.5135 49.829 29.9023ZM48.739 37.4726H44.3795C43.684 37.4726 43.1256 36.9121 43.1256 36.2167C43.1256 35.5252 43.6841 34.9627 44.3795 34.9627H48.739C49.4344 34.9627 49.9968 35.5252 49.9968 36.2167C49.9968 36.9121 49.4344 37.4726 48.739 37.4726ZM48.739 45.5641H42.5747C41.8794 45.5641 41.3169 45.0015 41.3169 44.3081C41.3169 43.6149 41.8794 43.0503 42.5747 43.0503H48.739C49.4344 43.0503 49.9968 43.6148 49.9968 44.3081C49.9968 45.0015 49.4344 45.5641 48.739 45.5641Z" fill="#468DEC"/>
<path d="M31.2798 31.4141C28.5278 33.0187 25.1273 33.0187 22.3792 31.4141C19.6272 29.8076 17.9532 26.8475 17.9933 23.6608C18.0538 18.8217 21.9904 14.9319 26.8295 14.9319C31.6655 14.9319 35.6021 18.8218 35.6608 23.6608C35.7038 26.8475 34.0279 29.8076 31.2798 31.4141Z" fill="#97E4C0"/>
</g>
<defs>
<clipPath id="clip0_391_736">
<rect width="64" height="64" fill="white"/>
</clipPath>
</defs>
</svg>
