<svg width="15" height="11" viewBox="0 0 15 11" fill="none" xmlns="http://www.w3.org/2000/svg">
<path d="M3.50014 10.5C3.50014 10.6326 3.44746 10.7598 3.3537 10.8536C3.25993 10.9473 3.13275 11 3.00014 11C2.86754 11 2.74036 10.9473 2.64659 10.8536C2.55282 10.7598 2.50014 10.6326 2.50014 10.5V1.70703L1.35414 2.85403C1.30766 2.90052 1.25247 2.93739 1.19173 2.96255C1.13099 2.98771 1.06589 3.00066 1.00014 3.00066C0.934399 3.00066 0.869299 2.98771 0.80856 2.96255C0.74782 2.93739 0.692631 2.90052 0.646143 2.85403C0.599655 2.80754 0.562779 2.75235 0.53762 2.69161C0.512461 2.63087 0.499512 2.56577 0.499512 2.50003C0.499512 2.43428 0.512461 2.36918 0.53762 2.30844C0.562779 2.2477 0.599655 2.19252 0.646143 2.14603L2.64614 0.147028L2.65314 0.140028C2.74714 0.0487311 2.87334 -0.00183726 3.00438 -0.000714105C3.13541 0.000409047 3.26072 0.053133 3.35314 0.146028L5.35314 2.14603C5.39963 2.19245 5.43652 2.24757 5.4617 2.30825C5.48689 2.36893 5.49988 2.43398 5.49992 2.49967C5.49997 2.56537 5.48707 2.63044 5.46198 2.69115C5.43688 2.75186 5.40007 2.80704 5.35364 2.85353C5.30722 2.90002 5.2521 2.93691 5.19142 2.96209C5.13074 2.98727 5.06569 3.00026 5 3.00031C4.9343 3.00035 4.86924 2.98746 4.80852 2.96236C4.74781 2.93726 4.69263 2.90045 4.64614 2.85403L3.50014 1.70703V10.5ZM7.00014 1.50003C7.00014 1.36742 7.05282 1.24024 7.14659 1.14647C7.24036 1.05271 7.36754 1.00003 7.50014 1.00003H14.5001C14.6328 1.00003 14.7599 1.05271 14.8537 1.14647C14.9475 1.24024 15.0001 1.36742 15.0001 1.50003C15.0001 1.63264 14.9475 1.75981 14.8537 1.85358C14.7599 1.94735 14.6328 2.00003 14.5001 2.00003H7.50014C7.36754 2.00003 7.24036 1.94735 7.14659 1.85358C7.05282 1.75981 7.00014 1.63264 7.00014 1.50003ZM7.50014 4.00003C7.36754 4.00003 7.24036 4.05271 7.14659 4.14647C7.05282 4.24024 7.00014 4.36742 7.00014 4.50003C7.00014 4.63264 7.05282 4.75981 7.14659 4.85358C7.24036 4.94735 7.36754 5.00003 7.50014 5.00003H12.5001C12.6328 5.00003 12.7599 4.94735 12.8537 4.85358C12.9475 4.75981 13.0001 4.63264 13.0001 4.50003C13.0001 4.36742 12.9475 4.24024 12.8537 4.14647C12.7599 4.05271 12.6328 4.00003 12.5001 4.00003H7.50014ZM7.50014 7.00003C7.36754 7.00003 7.24036 7.05271 7.14659 7.14647C7.05282 7.24024 7.00014 7.36742 7.00014 7.50003C7.00014 7.63264 7.05282 7.75981 7.14659 7.85358C7.24036 7.94735 7.36754 8.00003 7.50014 8.00003H10.5001C10.6328 8.00003 10.7599 7.94735 10.8537 7.85358C10.9475 7.75981 11.0001 7.63264 11.0001 7.50003C11.0001 7.36742 10.9475 7.24024 10.8537 7.14647C10.7599 7.05271 10.6328 7.00003 10.5001 7.00003H7.50014ZM7.50014 10C7.36754 10 7.24036 10.0527 7.14659 10.1465C7.05282 10.2402 7.00014 10.3674 7.00014 10.5C7.00014 10.6326 7.05282 10.7598 7.14659 10.8536C7.24036 10.9473 7.36754 11 7.50014 11H8.50014C8.63275 11 8.75993 10.9473 8.8537 10.8536C8.94746 10.7598 9.00014 10.6326 9.00014 10.5C9.00014 10.3674 8.94746 10.2402 8.8537 10.1465C8.75993 10.0527 8.63275 10 8.50014 10H7.50014Z" fill="#414141"/>
</svg>
