<svg width="20" height="20" viewBox="0 0 20 20" fill="none" xmlns="http://www.w3.org/2000/svg">
<g id="user-system" clip-path="url(#clip0_121_876)">
<circle id="Ellipse 55" cx="10" cy="10" r="10" fill="#FFE7D7"/>
<circle id="Ellipse 56" cx="10" cy="6.875" r="2.8125" fill="#FF8935"/>
<path id="Rectangle 794" d="M5.3125 14.0625C5.3125 11.6463 7.27125 9.6875 9.6875 9.6875H10.3125C12.7287 9.6875 14.6875 11.6463 14.6875 14.0625V15.9375H5.3125V14.0625Z" fill="#FF8935"/>
<path id="Vector" d="M16.3545 14.3321C16.3745 14.348 16.3938 14.3658 16.4121 14.3855C16.5255 14.5076 16.5596 14.6596 16.5609 14.7943L16.5609 14.7945C16.5634 15.0697 16.5625 15.344 16.5613 15.6165L16.5613 15.6167C16.5605 15.7568 16.5382 15.9441 16.3976 16.0849C16.2566 16.2263 16.0692 16.2482 15.9294 16.2482C15.4446 16.2488 14.9595 16.2486 14.4747 16.2484C14.2324 16.2483 13.9903 16.2482 13.7483 16.2482C13.5076 16.2482 13.2669 16.2483 13.0261 16.2484C12.5445 16.2486 12.0626 16.2488 11.581 16.2482C11.4416 16.2482 11.2492 16.2298 11.1049 16.0883C10.959 15.9453 10.9391 15.7523 10.9386 15.613M16.3545 14.3321L11.5593 10.6259C11.4155 10.626 11.2399 10.6559 11.1054 10.7897C10.9708 10.9236 10.9402 11.0991 10.939 11.242L11.2515 11.2444M16.3545 14.3321C16.3683 14.3209 16.3818 14.3088 16.3949 14.2956C16.5333 14.1568 16.5605 13.9739 16.5613 13.8292L16.5613 13.8289C16.5621 13.6433 16.5618 13.4568 16.5616 13.2712C16.5614 13.179 16.5613 13.087 16.5613 12.9955C16.5613 12.868 16.5276 12.7325 16.4325 12.6197C16.4085 12.5913 16.3826 12.5665 16.3552 12.5451M16.3545 14.3321L11.6304 12.6722L11.6304 12.7231H11.5872L11.5441 12.7239C11.3421 12.7344 11.2519 12.8279 11.2507 13.0311C11.2501 13.2002 11.2503 13.3693 11.2505 13.5383C11.2506 13.6227 11.2507 13.7071 11.2507 13.7914C11.2511 14.0706 11.3303 14.1502 11.6082 14.1502H15.9265C16.157 14.1494 16.2475 14.058 16.2488 13.8275C16.2496 13.6428 16.2493 13.4579 16.2491 13.273C16.2489 13.1805 16.2488 13.088 16.2488 12.9955C16.2488 12.8488 16.1733 12.7637 16.0334 12.7357C15.9818 12.7266 15.9294 12.7226 15.877 12.7239M10.9386 15.613C10.9373 15.3446 10.9369 15.0756 10.9386 14.8067L10.9386 14.8066C10.9395 14.6697 10.9708 14.5089 11.0917 14.3812C11.1086 14.3633 11.1263 14.3471 11.1445 14.3325C11.1306 14.3213 11.1171 14.3092 11.104 14.2961C10.9534 14.1449 10.9384 13.9377 10.9382 13.7919L10.9382 13.7914C10.9382 13.7078 10.9381 13.6238 10.938 13.5396C10.9378 13.3702 10.9376 13.1999 10.9382 13.0301L10.9382 13.0292C10.9391 12.8875 10.9708 12.7203 11.0963 12.5892C11.1118 12.573 11.1278 12.5583 11.1443 12.5449C11.1307 12.5341 11.1174 12.5224 11.1046 12.5097C10.9507 12.358 10.9382 12.1477 10.9382 12.0055C10.9382 11.9342 10.9381 11.8624 10.9379 11.7903C10.9376 11.6083 10.9372 11.4244 10.939 11.2413L11.2515 11.2444M10.9386 15.613C10.9386 15.6129 10.9386 15.6129 10.9386 15.6128L11.2511 15.6117L10.9386 15.6132C10.9386 15.6131 10.9386 15.6131 10.9386 15.613ZM11.2515 11.2444C11.2532 11.0308 11.3449 10.9386 11.5595 10.9384L13.7537 12.4106H13.7537V12.4109C14.4603 12.4109 15.1669 12.411 15.8736 12.4114C15.8789 12.4113 15.8843 12.4112 15.8896 12.4112C15.956 12.4108 16.0222 12.4164 16.0876 12.4279L16.0948 12.4292L16.0948 12.4293C16.183 12.447 16.2751 12.4821 16.3552 12.5451M11.2515 11.2444C11.2497 11.4255 11.2501 11.6066 11.2504 11.7878C11.2505 11.8604 11.2507 11.9329 11.2507 12.0055C11.2507 12.2847 11.3261 12.3593 11.6103 12.3597H15.8896C16.1738 12.3597 16.2488 12.2843 16.2492 12.0055C16.2492 11.9331 16.2493 11.8607 16.2495 11.7882C16.2498 11.6071 16.2502 11.4259 16.2484 11.2444M16.2484 11.2444L16.5609 11.2413C16.5609 11.2413 16.5609 11.2413 16.5609 11.2413M16.2484 11.2444L16.5609 11.2413M16.2484 11.2444C16.2463 11.0311 16.1541 10.9384 15.9395 10.9384M16.5609 11.2413C16.5627 11.4247 16.5623 11.6088 16.562 11.7907C16.5618 11.8627 16.5617 11.9344 16.5617 12.0055V12.006C16.5615 12.1478 16.5488 12.3578 16.3955 12.5094C16.3825 12.5223 16.369 12.5341 16.3552 12.5451M16.5609 11.2413C16.5594 11.0982 16.5282 10.9233 16.3939 10.7898C16.2594 10.6561 16.084 10.626 15.9397 10.6259M16.3552 12.5451C16.2606 12.6201 16.1498 12.6512 16.0478 12.6638C16.0472 12.6639 16.0466 12.664 16.046 12.664C15.9897 12.6709 15.9362 12.6722 15.8896 12.6722H15.8771L15.877 12.7239M15.877 12.7239L15.8758 12.6722H13.7537L13.7538 12.7234C14.4614 12.7234 15.1692 12.7235 15.877 12.7239ZM15.9397 10.6259L15.9395 10.9384M15.9397 10.6259C14.4798 10.6247 13.0198 10.6247 11.5595 10.6259H11.5599L11.56 10.6259H11.56L13.7498 10.6251L13.7499 10.9375C14.4798 10.9375 15.2096 10.9378 15.9395 10.9384M15.9397 10.6259C15.9397 10.6259 15.9396 10.6259 15.9395 10.6259V10.9384" fill="#F9C500" stroke="#FFE7D7" stroke-width="0.625"/>
<path id="Vector_2" d="M15.6122 14.8648V15.5681H14.8464V14.8644H15.6118L15.6122 14.8648ZM15.6139 13.089V13.7872H14.8473V13.089H15.6139ZM15.6097 11.3094V11.9992H14.851V11.3094H15.6097Z" fill="#F9C500"/>
</g>
<defs>
<clipPath id="clip0_121_876">
<rect width="20" height="20" fill="white"/>
</clipPath>
</defs>
</svg>
