<svg width="25" height="30" viewBox="0 0 25 30" fill="none" xmlns="http://www.w3.org/2000/svg">
<g clip-path="url(#clip0_310_24631)">
<path d="M12.5003 16.9566C16.7739 16.9566 20.2384 13.6863 20.2384 9.65225C20.2384 5.61817 16.7739 2.3479 12.5003 2.3479C8.22667 2.3479 4.76221 5.61817 4.76221 9.65225C4.76221 13.6863 8.22667 16.9566 12.5003 16.9566Z" fill="#A4C639" stroke="white" stroke-width="14.4"/>
<path d="M18.3676 7.82617H6.63296C5.59977 7.82617 4.76221 8.68267 4.76221 9.73922V21.7392C4.76221 22.7958 5.59977 23.6523 6.63296 23.6523H18.3676C19.4008 23.6523 20.2384 22.7958 20.2384 21.7392V9.73922C20.2384 8.68267 19.4008 7.82617 18.3676 7.82617Z" fill="#A4C639" stroke="white" stroke-width="14.4"/>
<path d="M7.2147 1.17887C7.0667 0.905848 7.16317 0.561836 7.43015 0.410497C7.69714 0.259159 8.03355 0.357803 8.18154 0.630825L11.191 6.18276C11.339 6.45578 11.2425 6.79979 10.9755 6.95113C10.7085 7.10247 10.3721 7.00383 10.2241 6.7308L7.2147 1.17887Z" fill="#A4C639"/>
<path fill-rule="evenodd" clip-rule="evenodd" d="M7.57886 0.684315C7.69798 0.616795 7.84807 0.660805 7.9141 0.782615L10.9235 6.33455C10.9896 6.45636 10.9465 6.60984 10.8274 6.67736C10.7083 6.74488 10.5582 6.70087 10.4922 6.57906L7.48274 1.02713C7.41671 0.905318 7.45975 0.751835 7.57886 0.684315ZM8.44958 0.479082C8.21962 0.0548475 7.6969 -0.0984301 7.28204 0.136727C6.86719 0.371884 6.7173 0.906426 6.94726 1.33066L9.9567 6.88259C10.1867 7.30683 10.7094 7.46011 11.1242 7.22495C11.5391 6.98979 11.689 6.45525 11.459 6.03102L8.44958 0.479082Z" fill="white"/>
<path d="M20.5785 11.7391C20.5785 10.5865 21.4922 9.6521 22.6193 9.6521C23.7465 9.6521 24.6602 10.5865 24.6602 11.7391V19.1304C24.6602 20.283 23.7465 21.2173 22.6193 21.2173C21.4922 21.2173 20.5785 20.283 20.5785 19.1304V11.7391Z" fill="#A4C639"/>
<path fill-rule="evenodd" clip-rule="evenodd" d="M22.6194 9.9652C23.5774 9.9652 24.3541 10.7594 24.3541 11.7391V19.1304C24.3541 20.1101 23.5774 20.9043 22.6194 20.9043C21.6613 20.9043 20.8847 20.1101 20.8847 19.1304V11.7391C20.8847 10.7594 21.6613 9.9652 22.6194 9.9652ZM24.9663 11.7391C24.9663 10.4136 23.9155 9.33911 22.6194 9.33911C21.3232 9.33911 20.2724 10.4136 20.2724 11.7391V19.1304C20.2724 20.4559 21.3232 21.5304 22.6194 21.5304C23.9155 21.5304 24.9663 20.4559 24.9663 19.1304V11.7391Z" fill="white"/>
<path d="M13.3505 20.1739C13.3505 19.0213 14.2642 18.0869 15.3913 18.0869C16.5184 18.0869 17.4321 19.0213 17.4321 20.1739V27.5652C17.4321 28.7178 16.5184 29.6521 15.3913 29.6521C14.2642 29.6521 13.3505 28.7178 13.3505 27.5652V20.1739Z" fill="#A4C639"/>
<path fill-rule="evenodd" clip-rule="evenodd" d="M15.3913 18.4C16.3494 18.4 17.126 19.1942 17.126 20.1739V27.5652C17.126 28.5449 16.3494 29.3391 15.3913 29.3391C14.4333 29.3391 13.6566 28.5449 13.6566 27.5652V20.1739C13.6566 19.1942 14.4333 18.4 15.3913 18.4ZM17.7383 20.1739C17.7383 18.8484 16.6875 17.7739 15.3913 17.7739C14.0952 17.7739 13.0444 18.8484 13.0444 20.1739V27.5652C13.0444 28.8907 14.0952 29.9652 15.3913 29.9652C16.6875 29.9652 17.7383 28.8907 17.7383 27.5652V20.1739Z" fill="white"/>
<path d="M17.7858 1.17887C17.9338 0.905848 17.8373 0.561836 17.5703 0.410497C17.3033 0.259159 16.9669 0.357803 16.8189 0.630825L13.8095 6.18276C13.6615 6.45578 13.758 6.79979 14.025 6.95113C14.2919 7.10247 14.6284 7.00383 14.7763 6.7308L17.7858 1.17887Z" fill="#A4C639"/>
<path fill-rule="evenodd" clip-rule="evenodd" d="M17.4216 0.684315C17.3025 0.616795 17.1524 0.660805 17.0864 0.782615L14.0769 6.33455C14.0109 6.45636 14.054 6.60984 14.1731 6.67736C14.2922 6.74488 14.4423 6.70087 14.5083 6.57906L17.5178 1.02713C17.5838 0.905318 17.5407 0.751835 17.4216 0.684315ZM16.5509 0.479082C16.7809 0.0548475 17.3036 -0.0984301 17.7184 0.136727C18.1333 0.371884 18.2832 0.906426 18.0532 1.33066L15.0438 6.88259C14.8138 7.30683 14.2911 7.46011 13.8762 7.22495C13.4614 6.98979 13.3115 6.45525 13.5415 6.03102L16.5509 0.479082Z" fill="white"/>
<path d="M4.42196 11.7391C4.42196 10.5865 3.50826 9.6521 2.38115 9.6521C1.25404 9.6521 0.340332 10.5865 0.340332 11.7391V19.1304C0.340332 20.283 1.25404 21.2173 2.38115 21.2173C3.50826 21.2173 4.42196 20.283 4.42196 19.1304V11.7391Z" fill="#A4C639"/>
<path fill-rule="evenodd" clip-rule="evenodd" d="M2.38112 9.9652C1.42307 9.9652 0.646425 10.7594 0.646425 11.7391V19.1304C0.646425 20.1101 1.42307 20.9043 2.38112 20.9043C3.33916 20.9043 4.11581 20.1101 4.11581 19.1304V11.7391C4.11581 10.7594 3.33916 9.9652 2.38112 9.9652ZM0.0341797 11.7391C0.0341797 10.4136 1.08494 9.33911 2.38112 9.33911C3.6773 9.33911 4.72806 10.4136 4.72806 11.7391V19.1304C4.72806 20.4559 3.6773 21.5304 2.38112 21.5304C1.08494 21.5304 0.0341797 20.4559 0.0341797 19.1304V11.7391Z" fill="white"/>
<path d="M11.65 20.1739C11.65 19.0213 10.7363 18.0869 9.60918 18.0869C8.48206 18.0869 7.56836 19.0213 7.56836 20.1739V27.5652C7.56836 28.7178 8.48206 29.6521 9.60918 29.6521C10.7363 29.6521 11.65 28.7178 11.65 27.5652V20.1739Z" fill="#A4C639"/>
<path fill-rule="evenodd" clip-rule="evenodd" d="M9.60915 18.4C8.6511 18.4 7.87445 19.1942 7.87445 20.1739V27.5652C7.87445 28.5449 8.6511 29.3391 9.60915 29.3391C10.5672 29.3391 11.3438 28.5449 11.3438 27.5652V20.1739C11.3438 19.1942 10.5672 18.4 9.60915 18.4ZM7.26221 20.1739C7.26221 18.8484 8.31297 17.7739 9.60915 17.7739C10.9053 17.7739 11.9561 18.8484 11.9561 20.1739V27.5652C11.9561 28.8907 10.9053 29.9652 9.60915 29.9652C8.31297 29.9652 7.26221 28.8907 7.26221 27.5652V20.1739Z" fill="white"/>
<path d="M12.5003 16.9566C16.7739 16.9566 20.2384 13.6863 20.2384 9.65225C20.2384 5.61817 16.7739 2.3479 12.5003 2.3479C8.22667 2.3479 4.76221 5.61817 4.76221 9.65225C4.76221 13.6863 8.22667 16.9566 12.5003 16.9566Z" fill="#A4C639"/>
<path d="M18.3676 7.82617H6.63296C5.59977 7.82617 4.76221 8.68267 4.76221 9.73922V21.7392C4.76221 22.7958 5.59977 23.6523 6.63296 23.6523H18.3676C19.4008 23.6523 20.2384 22.7958 20.2384 21.7392V9.73922C20.2384 8.68267 19.4008 7.82617 18.3676 7.82617Z" fill="#A4C639"/>
<path fill-rule="evenodd" clip-rule="evenodd" d="M20.5783 10.2694H4.42188V9.64331H20.5783V10.2694Z" fill="white"/>
<path fill-rule="evenodd" clip-rule="evenodd" d="M8.92849 5.42603C8.57157 5.42603 8.28223 5.72191 8.28223 6.08689C8.28223 6.45188 8.57157 6.74776 8.92849 6.74776C9.2854 6.74776 9.57474 6.45188 9.57474 6.08689C9.57474 5.72191 9.2854 5.42603 8.92849 5.42603ZM16.0713 5.42603C15.7144 5.42603 15.4251 5.72191 15.4251 6.08689C15.4251 6.45188 15.7144 6.74776 16.0713 6.74776C16.4283 6.74776 16.7176 6.45188 16.7176 6.08689C16.7176 5.72191 16.4283 5.42603 16.0713 5.42603Z" fill="white"/>
</g>
<defs>
<clipPath id="clip0_310_24631">
<rect width="25" height="30" fill="white"/>
</clipPath>
</defs>
</svg>
