<svg width="30" height="30" viewBox="0 0 30 30" fill="none" xmlns="http://www.w3.org/2000/svg">
<g clip-path="url(#clip0_310_24725)">
<path d="M15 22.4966C19.1421 22.4966 22.5 19.1387 22.5 14.9966C22.5 10.8544 19.1421 7.49658 15 7.49658C10.8579 7.49658 7.5 10.8544 7.5 14.9966C7.5 19.1387 10.8579 22.4966 15 22.4966Z" fill="white"/>
<path d="M14.9999 7.50003H27.9882C26.6721 5.21964 24.7787 3.32596 22.4986 2.0094C20.2185 0.692846 17.6319 -0.000183669 14.9989 3.65124e-08C12.366 0.000183742 9.77952 0.693575 7.49956 2.01045C5.21961 3.32733 3.32655 5.22127 2.01074 7.50184L8.50487 18.75L8.51068 18.7485C7.85006 17.6093 7.50143 16.3161 7.49995 14.9992C7.49847 13.6823 7.84419 12.3883 8.50225 11.2476C9.16031 10.1069 10.1075 9.15986 11.2482 8.50192C12.389 7.84398 13.683 7.4984 14.9999 7.50003Z" fill="url(#paint0_linear_310_24725)"/>
<path d="M15 20.9375C18.2792 20.9375 20.9375 18.2792 20.9375 15C20.9375 11.7208 18.2792 9.0625 15 9.0625C11.7208 9.0625 9.0625 11.7208 9.0625 15C9.0625 18.2792 11.7208 20.9375 15 20.9375Z" fill="#1A73E8"/>
<path d="M21.4944 18.7518L15.0002 30C17.6332 30.0004 20.2198 29.3075 22.5 27.9911C24.7802 26.6747 26.6737 24.7812 27.99 22.5009C29.3063 20.2207 29.999 17.634 29.9986 15.0011C29.9981 12.3682 29.3044 9.78176 27.9873 7.50195H14.9991L14.9976 7.50777C16.3145 7.50523 17.6088 7.84991 18.75 8.50707C19.8912 9.16423 20.839 10.1106 21.4978 11.2509C22.1567 12.3911 22.5032 13.6849 22.5026 15.0018C22.502 16.3187 22.1543 17.6122 21.4944 18.7518Z" fill="url(#paint1_linear_310_24725)"/>
<path d="M8.5053 18.7519L2.01118 7.50366C0.694379 9.78366 0.00107469 12.3702 0.000976573 15.0031C0.000878451 17.636 0.69399 20.2226 2.01062 22.5027C3.32724 24.7828 5.22098 26.6761 7.5014 27.9921C9.78182 29.3082 12.3686 30.0007 15.0015 29.9999L21.4956 18.7517L21.4914 18.7475C20.8352 19.8892 19.8895 20.8377 18.7498 21.4975C17.61 22.1572 16.3165 22.5048 14.9996 22.5052C13.6827 22.5057 12.389 22.159 11.2488 21.5C10.1086 20.841 9.16234 19.8931 8.5053 18.7519Z" fill="url(#paint2_linear_310_24725)"/>
</g>
<defs>
<linearGradient id="paint0_linear_310_24725" x1="2.01074" y1="9.37503" x2="27.9882" y2="9.37503" gradientUnits="userSpaceOnUse">
<stop stop-color="#D93025"/>
<stop offset="1" stop-color="#EA4335"/>
</linearGradient>
<linearGradient id="paint1_linear_310_24725" x1="12.951" y1="29.7995" x2="25.9397" y2="7.30233" gradientUnits="userSpaceOnUse">
<stop stop-color="#FCC934"/>
<stop offset="1" stop-color="#FBBC04"/>
</linearGradient>
<linearGradient id="paint2_linear_310_24725" x1="16.6237" y1="29.0634" x2="3.63499" y2="6.56616" gradientUnits="userSpaceOnUse">
<stop stop-color="#1E8E3E"/>
<stop offset="1" stop-color="#34A853"/>
</linearGradient>
<clipPath id="clip0_310_24725">
<rect width="30" height="30" fill="white"/>
</clipPath>
</defs>
</svg>
