<svg width="30" height="30" viewBox="0 0 30 30" fill="none" xmlns="http://www.w3.org/2000/svg">
<g clip-path="url(#clip0_310_24846)">
<path d="M27.082 22.3242C26.6797 22.5333 26.2649 22.7172 25.8398 22.875C24.494 23.3759 23.0688 23.63 21.6328 23.625C16.0898 23.625 11.2617 19.8164 11.2617 14.918C11.2689 14.262 11.4508 13.6199 11.7886 13.0576C12.1264 12.4953 12.6079 12.0332 13.1836 11.7188C8.16797 11.9297 6.87891 17.1563 6.87891 20.2148C6.87891 28.8867 14.8594 29.7539 16.582 29.7539C17.5078 29.7539 18.9023 29.4844 19.7461 29.2148L19.8984 29.168C23.1274 28.0521 25.8801 25.8698 27.7031 22.9805C27.7561 22.8927 27.7788 22.7899 27.7678 22.688C27.7569 22.586 27.7127 22.4905 27.6423 22.416C27.5718 22.3416 27.4788 22.2923 27.3776 22.2757C27.2764 22.2591 27.1726 22.2761 27.082 22.3242Z" fill="url(#paint0_linear_310_24846)"/>
<path opacity="0.35" d="M27.082 22.3242C26.6797 22.5333 26.2649 22.7172 25.8398 22.875C24.494 23.3759 23.0688 23.63 21.6328 23.625C16.0898 23.625 11.2617 19.8164 11.2617 14.918C11.2689 14.262 11.4508 13.6199 11.7886 13.0576C12.1264 12.4953 12.6079 12.0332 13.1836 11.7188C8.16797 11.9297 6.87891 17.1563 6.87891 20.2148C6.87891 28.8867 14.8594 29.7539 16.582 29.7539C17.5078 29.7539 18.9023 29.4844 19.7461 29.2148L19.8984 29.168C23.1274 28.0521 25.8801 25.8698 27.7031 22.9805C27.7561 22.8927 27.7788 22.7899 27.7678 22.688C27.7569 22.586 27.7127 22.4905 27.6423 22.416C27.5718 22.3416 27.4788 22.2923 27.3776 22.2757C27.2764 22.2591 27.1726 22.2761 27.082 22.3242Z" fill="url(#paint1_radial_310_24846)"/>
<path d="M12.3869 28.2773C11.3437 27.6295 10.4396 26.7811 9.7267 25.7812C8.91264 24.667 8.35229 23.3881 8.08496 22.0344C7.81764 20.6806 7.84981 19.2847 8.17924 17.9447C8.50866 16.6046 9.12735 15.3529 9.99188 14.2774C10.8564 13.2019 11.9458 12.3285 13.1837 11.7188C13.5587 11.543 14.1798 11.2383 15.0119 11.25C15.5973 11.2545 16.1738 11.3944 16.6963 11.6587C17.2188 11.923 17.673 12.3045 18.0236 12.7734C18.4951 13.4075 18.7535 14.1747 18.7619 14.9648C18.7619 14.9414 21.6329 5.63672 9.38685 5.63672C4.24232 5.63672 0.0118528 10.5117 0.0118528 14.8008C-0.00860984 17.0664 0.475772 19.3082 1.42982 21.3633C2.99225 24.6903 5.72186 27.3278 9.10049 28.7751C12.4791 30.2225 16.2716 30.379 19.7579 29.2148C18.5365 29.6006 17.2459 29.7166 15.9753 29.5547C14.7046 29.3928 13.4843 28.957 12.3986 28.2773H12.3869Z" fill="url(#paint2_linear_310_24846)"/>
<path opacity="0.41" d="M12.3869 28.2773C11.3437 27.6295 10.4396 26.7811 9.7267 25.7812C8.91264 24.667 8.35229 23.3881 8.08496 22.0344C7.81764 20.6806 7.84981 19.2847 8.17924 17.9447C8.50866 16.6046 9.12735 15.3529 9.99188 14.2774C10.8564 13.2019 11.9458 12.3285 13.1837 11.7188C13.5587 11.543 14.1798 11.2383 15.0119 11.25C15.5973 11.2545 16.1738 11.3944 16.6963 11.6587C17.2188 11.923 17.673 12.3045 18.0236 12.7734C18.4951 13.4075 18.7535 14.1747 18.7619 14.9648C18.7619 14.9414 21.6329 5.63672 9.38685 5.63672C4.24232 5.63672 0.0118528 10.5117 0.0118528 14.8008C-0.00860984 17.0664 0.475772 19.3082 1.42982 21.3633C2.99225 24.6903 5.72186 27.3278 9.10049 28.7751C12.4791 30.2225 16.2716 30.379 19.7579 29.2148C18.5365 29.6006 17.2459 29.7166 15.9753 29.5547C14.7046 29.3928 13.4843 28.957 12.3986 28.2773H12.3869Z" fill="url(#paint3_radial_310_24846)"/>
<path d="M17.8594 17.4375C17.7539 17.5547 17.4609 17.7305 17.4609 18.0938C17.4609 18.3984 17.6602 18.7031 18.0234 18.9492C19.6992 20.1211 22.875 19.957 22.8867 19.957C24.136 19.9562 25.3622 19.6203 26.4375 18.9844C27.5201 18.3512 28.4184 17.446 29.0432 16.3586C29.6681 15.2712 29.998 14.0393 30 12.7852C30.0352 10.1602 29.0625 8.41406 28.6758 7.64062C26.1797 2.78906 20.8242 7.34346e-08 15 7.34346e-08C11.058 -0.000389715 7.27434 1.55097 4.46728 4.31856C1.66023 7.08615 0.0554339 10.8475 0 14.7891C0.0585938 10.5117 4.3125 7.05469 9.375 7.05469C9.78516 7.05469 12.1289 7.08984 14.2969 8.22656C15.82 8.98342 17.0813 10.1794 17.918 11.6602C18.6328 12.9023 18.7617 14.4844 18.7617 15.1172C18.7617 15.75 18.4453 16.6758 17.8477 17.4492L17.8594 17.4375Z" fill="url(#paint4_radial_310_24846)"/>
<path d="M17.8594 17.4375C17.7539 17.5547 17.4609 17.7305 17.4609 18.0938C17.4609 18.3984 17.6602 18.7031 18.0234 18.9492C19.6992 20.1211 22.875 19.957 22.8867 19.957C24.136 19.9562 25.3622 19.6203 26.4375 18.9844C27.5201 18.3512 28.4184 17.446 29.0432 16.3586C29.6681 15.2712 29.998 14.0393 30 12.7852C30.0352 10.1602 29.0625 8.41406 28.6758 7.64062C26.1797 2.78906 20.8242 7.34346e-08 15 7.34346e-08C11.058 -0.000389715 7.27434 1.55097 4.46728 4.31856C1.66023 7.08615 0.0554339 10.8475 0 14.7891C0.0585938 10.5117 4.3125 7.05469 9.375 7.05469C9.78516 7.05469 12.1289 7.08984 14.2969 8.22656C15.82 8.98342 17.0813 10.1794 17.918 11.6602C18.6328 12.9023 18.7617 14.4844 18.7617 15.1172C18.7617 15.75 18.4453 16.6758 17.8477 17.4492L17.8594 17.4375Z" fill="url(#paint5_radial_310_24846)"/>
</g>
<defs>
<linearGradient id="paint0_linear_310_24846" x1="6.87891" y1="20.7422" x2="27.7852" y2="20.7422" gradientUnits="userSpaceOnUse">
<stop stop-color="#0C59A4"/>
<stop offset="1" stop-color="#114A8B"/>
</linearGradient>
<radialGradient id="paint1_radial_310_24846" cx="0" cy="0" r="1" gradientUnits="userSpaceOnUse" gradientTransform="translate(18.4219 20.8998) scale(11.1797 10.6207)">
<stop offset="0.7" stop-opacity="0"/>
<stop offset="0.9" stop-opacity="0.5"/>
<stop offset="1"/>
</radialGradient>
<linearGradient id="paint2_linear_310_24846" x1="17.8947" y1="11.6719" x2="4.8517" y2="25.8867" gradientUnits="userSpaceOnUse">
<stop stop-color="#1B9DE2"/>
<stop offset="0.2" stop-color="#1595DF"/>
<stop offset="0.7" stop-color="#0680D7"/>
<stop offset="1" stop-color="#0078D4"/>
</linearGradient>
<radialGradient id="paint3_radial_310_24846" cx="0" cy="0" r="1" gradientUnits="userSpaceOnUse" gradientTransform="translate(8.2683 23.3129) rotate(-81.3844) scale(16.8031 13.5752)">
<stop offset="0.8" stop-opacity="0"/>
<stop offset="0.9" stop-opacity="0.5"/>
<stop offset="1"/>
</radialGradient>
<radialGradient id="paint4_radial_310_24846" cx="0" cy="0" r="1" gradientUnits="userSpaceOnUse" gradientTransform="translate(3.03398 5.54484) rotate(92.2906) scale(23.7377 50.5564)">
<stop stop-color="#35C1F1"/>
<stop offset="0.1" stop-color="#34C1ED"/>
<stop offset="0.2" stop-color="#2FC2DF"/>
<stop offset="0.3" stop-color="#2BC3D2"/>
<stop offset="0.7" stop-color="#36C752"/>
</radialGradient>
<radialGradient id="paint5_radial_310_24846" cx="0" cy="0" r="1" gradientUnits="userSpaceOnUse" gradientTransform="translate(28.132 9.05859) rotate(73.7398) scale(11.4023 9.27239)">
<stop stop-color="#66EB6E"/>
<stop offset="1" stop-color="#66EB6E" stop-opacity="0"/>
</radialGradient>
<clipPath id="clip0_310_24846">
<rect width="30" height="30" fill="white"/>
</clipPath>
</defs>
</svg>
