<svg width="28" height="32" viewBox="0 0 28 32" fill="none" xmlns="http://www.w3.org/2000/svg">
<path d="M13.1963 8.13124C13.1963 8.23381 13.0937 8.23381 13.0937 8.23381H12.9911C12.8886 8.23381 12.8886 8.13124 12.786 8.02868C12.786 8.02868 12.6834 7.92611 12.6834 7.82355C12.6834 7.72099 12.6834 7.72099 12.786 7.72099L12.9911 7.82355C13.0937 7.92611 13.1963 8.02868 13.1963 8.13124ZM11.3501 7.1056C11.3501 6.59278 11.145 6.28509 10.8373 6.28509C10.8373 6.28509 10.8373 6.38765 10.7347 6.38765V6.59278H11.0424C11.0424 6.79791 11.145 6.90047 11.145 7.1056H11.3501ZM14.9399 6.59278C15.145 6.59278 15.2475 6.79791 15.3501 7.1056H15.5552C15.4527 7.00304 15.4527 6.90047 15.4527 6.79791C15.4527 6.69534 15.4527 6.59278 15.3501 6.49022C15.2475 6.38765 15.145 6.28509 15.0424 6.28509C15.0424 6.28509 14.9399 6.38765 14.8373 6.38765C14.8373 6.49022 14.9399 6.49022 14.9399 6.59278ZM11.8629 8.23381C11.7604 8.23381 11.7604 8.23381 11.7604 8.13124C11.7604 8.02868 11.7604 7.92611 11.8629 7.82355C12.0681 7.82355 12.1706 7.72099 12.1706 7.72099C12.2732 7.72099 12.2732 7.82355 12.2732 7.82355C12.2732 7.92611 12.1706 8.02868 11.9655 8.23381H11.8629ZM10.7347 8.13124C10.3245 7.92611 10.2219 7.61842 10.2219 7.1056C10.2219 6.79791 10.2219 6.59278 10.427 6.38765C10.5296 6.18252 10.7347 6.07996 10.9399 6.07996C11.145 6.07996 11.2475 6.18252 11.4527 6.38765C11.5552 6.69534 11.6578 7.00304 11.6578 7.31073V7.51586H11.7604V7.41329C11.8629 7.41329 11.8629 7.20817 11.8629 6.79791C11.8629 6.49022 11.8629 6.18252 11.6578 5.87483C11.4527 5.56714 11.2475 5.36201 10.8373 5.36201C10.5296 5.36201 10.2219 5.56714 10.1193 5.87483C9.91421 6.28509 9.87319 6.59278 9.87319 7.1056C9.87319 7.51586 10.0168 7.92611 10.427 8.33637C10.5296 8.23381 10.6322 8.23381 10.7347 8.13124ZM23.5552 22.5928C23.6578 22.5928 23.6578 22.5518 23.6578 22.4594C23.6578 22.2338 23.5552 21.9671 23.2475 21.6697C22.9399 21.362 22.427 21.1671 21.8116 21.0851C21.7091 21.0748 21.6065 21.0748 21.6065 21.0748C21.504 21.0543 21.504 21.0543 21.4014 21.0543C21.2988 21.0441 21.0937 21.0236 20.9911 21.003C21.2988 20.0492 21.4014 19.2082 21.4014 18.4697C21.4014 17.4441 21.1963 16.7261 20.786 16.1107C20.3757 15.4953 19.9655 15.1877 19.4527 15.0851C19.3501 15.1877 19.3501 15.1877 19.3501 15.2902C19.8629 15.4953 20.3757 15.9056 20.6834 16.521C20.9911 17.2389 21.0937 17.8543 21.0937 18.5723C21.0937 19.1466 20.9911 19.9979 20.5809 21.0851C20.1706 21.2492 19.7604 21.6287 19.4527 22.2236C19.4527 22.3159 19.4527 22.3671 19.5552 22.3671C19.5552 22.3671 19.6578 22.2748 19.7604 22.1005C19.9655 21.9261 20.0681 21.7518 20.2732 21.5774C20.5809 21.403 20.786 21.3107 21.0937 21.3107C21.6065 21.3107 22.1193 21.3825 22.427 21.5261C22.8373 21.6594 23.0424 21.803 23.145 21.9671C23.2475 22.121 23.3501 22.2646 23.4527 22.3979C23.4527 22.5312 23.5552 22.5928 23.5552 22.5928ZM14.1193 7.72099C14.0168 7.61842 14.0168 7.41329 14.0168 7.20817C14.0168 6.79791 14.0168 6.59278 14.2219 6.28509C14.427 6.07996 14.6322 5.9774 14.8373 5.9774C15.145 5.9774 15.3501 6.18252 15.5552 6.38765C15.6578 6.69534 15.7604 6.90047 15.7604 7.20817C15.7604 7.72099 15.5552 8.02868 15.145 8.13124C15.145 8.13124 15.2475 8.23381 15.3501 8.23381C15.5552 8.23381 15.6578 8.33637 15.8629 8.43893C15.9655 7.82355 16.0681 7.41329 16.0681 6.90047C16.0681 6.28509 15.9655 5.87483 15.7604 5.56714C15.4527 5.25945 15.145 5.15688 14.7347 5.15688C14.427 5.15688 14.1193 5.25945 13.8116 5.46458C13.6065 5.77227 13.504 5.9774 13.504 6.28509C13.504 6.79791 13.6065 7.20817 13.8116 7.61842C13.9142 7.61842 14.0168 7.72099 14.1193 7.72099ZM15.3501 9.36201C14.0168 10.2851 12.9911 10.6953 12.1706 10.6953C11.4527 10.6953 10.7347 10.3877 10.1193 9.87483C10.2219 10.08 10.3245 10.2851 10.427 10.3877L11.0424 11.003C11.4527 11.4133 11.9655 11.6184 12.4783 11.6184C13.1963 11.6184 14.0168 11.2082 15.0424 10.4902L15.9655 9.87483C16.1706 9.6697 16.3757 9.46458 16.3757 9.15688C16.3757 9.05432 16.3757 8.95175 16.2732 8.95175C16.1706 8.74663 15.6578 8.43893 14.6322 8.13124C13.7091 7.72099 12.9911 7.51586 12.5809 7.51586C12.2732 7.51586 11.7604 7.72099 11.0424 8.13124C10.427 8.5415 10.0168 8.95175 10.0168 9.36201C10.0168 9.36201 10.1193 9.46458 10.2219 9.6697C10.8373 10.1825 11.4527 10.4902 12.0681 10.4902C12.8886 10.4902 13.9142 10.08 15.2475 9.05432V9.25945C15.3501 9.25945 15.3501 9.36201 15.3501 9.36201ZM17.7091 30.08C18.1193 30.8512 18.8373 31.2389 19.6578 31.2389C19.8629 31.2389 20.0681 31.2082 20.2732 31.1466C20.4783 31.1056 20.6834 31.0338 20.786 30.9518C20.8886 30.88 20.9911 30.8082 21.0937 30.7261C21.2988 30.6543 21.2988 30.603 21.4014 30.5518L23.145 29.0441C23.5552 28.7169 23.9655 28.4307 24.4783 28.1825C24.8886 27.9364 25.2988 27.7723 25.504 27.68C25.8116 27.5979 26.0168 27.4748 26.2219 27.3107C26.3245 27.1569 26.427 26.962 26.427 26.7159C26.427 26.4184 26.2219 26.1928 26.0168 26.0287C25.8116 25.8646 25.6065 25.7518 25.4014 25.68C25.1963 25.6082 24.9911 25.4441 24.6834 25.1671C24.4783 24.9005 24.2732 24.5312 24.1706 24.0492L24.0681 23.4543C23.9655 23.1774 23.9655 22.9723 23.8629 22.8594C23.8629 22.8287 23.8629 22.8184 23.7604 22.8184C23.6578 22.8184 23.4527 22.9107 23.3501 23.0851C23.145 23.2594 22.9399 23.4543 22.7347 23.6594C22.6322 23.8646 22.3245 24.0492 22.1193 24.2236C21.8116 24.3979 21.504 24.4902 21.2988 24.4902C20.4783 24.4902 20.0681 24.2646 19.7604 23.8236C19.5552 23.4953 19.4527 23.1159 19.3501 22.6851C19.145 22.5107 19.0424 22.4184 18.8373 22.4184C18.3245 22.4184 18.1193 22.9518 18.1193 24.0287V27.2184C18.1193 27.3107 18.0168 27.5159 18.0168 27.8338C17.9142 28.1518 17.9142 28.5128 17.9142 28.921L17.7091 30.0594V30.0769M2.83729 29.5343C3.79113 29.6738 4.88857 29.9723 6.1296 30.4277C7.37062 30.8789 8.1296 31.1148 8.40652 31.1148C9.12447 31.1148 9.71934 30.7969 10.2116 30.1825C10.3142 29.9835 10.3142 29.7497 10.3142 29.481C10.3142 28.5118 9.7296 27.2861 8.56037 25.7989L7.86293 24.8656C7.71934 24.6707 7.54498 24.3733 7.31934 23.9733C7.10396 23.5733 6.90908 23.2656 6.75524 23.0502C6.6219 22.8143 6.40652 22.5784 6.1296 22.3425C5.86293 22.1066 5.55524 21.9528 5.21678 21.8707C4.78601 21.9528 4.48857 22.0964 4.34498 22.2912C4.20139 22.4861 4.11934 22.7015 4.09883 22.9271C4.06806 23.1425 4.00652 23.2861 3.90396 23.3579C3.80139 23.4194 3.62703 23.4707 3.39113 23.522C3.33985 23.522 3.24755 23.522 3.11421 23.5323H2.83729C2.2937 23.5323 1.92447 23.5938 1.7296 23.6964C1.47319 23.9938 1.33985 24.3323 1.33985 24.6912C1.33985 24.8553 1.38088 25.1323 1.46293 25.522C1.54498 25.9015 1.58601 26.2092 1.58601 26.4246C1.58601 26.8451 1.46293 27.2656 1.20652 27.6861C0.950109 28.1271 0.816776 28.4553 0.816776 28.6892C0.91934 29.0871 1.59626 29.3671 2.83729 29.5312M6.25267 20.2082C6.25267 19.5005 6.43729 18.721 6.81678 17.7979C7.18601 16.8748 7.55524 16.2594 7.91421 15.8492C7.8937 15.7466 7.84242 15.7466 7.76037 15.7466L7.6578 15.6441C7.36037 15.9518 7.00139 16.6697 6.57062 17.6953C6.13985 18.6184 5.91421 19.4697 5.91421 20.0953C5.91421 20.5569 6.02703 20.9569 6.23216 21.3056C6.4578 21.6441 7.00139 22.1364 7.86293 22.762L8.95011 23.4697C10.1091 24.4748 10.7245 25.1723 10.7245 25.5825C10.7245 25.7979 10.6219 26.0133 10.3142 26.2492C10.1091 26.4953 9.83216 26.6184 9.59626 26.6184C9.57575 26.6184 9.56549 26.6389 9.56549 26.6902C9.56549 26.7005 9.66806 26.9056 9.88344 27.3056C10.3142 27.8902 11.2373 28.1774 12.4681 28.1774C14.7245 28.1774 16.4681 27.2543 17.8014 25.4082C17.8014 24.8953 17.8014 24.5774 17.6988 24.4441V24.0646C17.6988 23.3979 17.8014 22.8953 18.0065 22.5671C18.2116 22.2389 18.4168 22.0851 18.7245 22.0851C18.9296 22.0851 19.1347 22.1569 19.3399 22.3107C19.4424 21.521 19.4424 20.8338 19.4424 20.2184C19.4424 19.2851 19.4424 18.5159 19.2373 17.7979C19.1347 17.1825 18.9296 16.6697 18.7245 16.2594L18.1091 15.3364C17.904 15.0287 17.8014 14.721 17.5963 14.4133C17.4937 14.003 17.3911 13.6953 17.3911 13.1825C17.0834 12.6697 16.8783 12.1569 16.5706 11.6441C16.3655 11.1312 16.1604 10.6184 15.9552 10.2082L15.0322 10.9261C14.0065 11.6441 13.186 11.9518 12.4681 11.9518C11.8527 11.9518 11.3399 11.8492 11.0322 11.4389L10.4168 10.9261C10.4168 11.2338 10.3142 11.6441 10.1091 12.0543L9.46293 13.2851C9.17575 14.003 9.0219 14.4133 8.99114 14.721C8.95011 14.9261 8.91934 15.1312 8.89883 15.1312L8.1296 16.6697C7.29883 18.2082 6.87831 19.6338 6.87831 20.8133C6.87831 21.0492 6.89883 21.2953 6.93985 21.5415C6.47831 21.2236 6.25267 20.7825 6.25267 20.2082ZM13.5963 29.9107C12.2629 29.9107 11.2373 30.0912 10.5193 30.4492V30.4184C10.0065 31.0338 9.43216 31.3518 8.63216 31.3518C8.1296 31.3518 7.33985 31.1569 6.27319 30.7671C5.19626 30.3979 4.24242 30.1148 3.41165 29.9282C3.3296 29.9046 3.14498 29.8697 2.84755 29.8225C2.56037 29.7764 2.2937 29.7292 2.0578 29.682C1.84242 29.6359 1.59626 29.5661 1.3296 29.4718C1.07319 29.3907 0.868058 29.2851 0.714212 29.1569C0.572673 29.0277 0.50293 28.882 0.50293 28.7189C0.50293 28.5548 0.537802 28.3794 0.607545 28.1928C0.673186 28.08 0.744981 27.9671 0.816776 27.8646C0.888571 27.7518 0.950109 27.6492 0.991135 27.5466C1.05267 27.4543 1.0937 27.362 1.13472 27.2594C1.17575 27.1671 1.21678 27.0748 1.23729 26.962C1.2578 26.8594 1.27831 26.7569 1.27831 26.6543C1.27831 26.5518 1.23729 26.2441 1.15524 25.7005C1.07319 25.1671 1.03216 24.8287 1.03216 24.6851C1.03216 24.2338 1.13472 23.8748 1.36037 23.6184C1.58601 23.362 1.80139 23.2287 2.02703 23.2287H3.20652C3.29883 23.2287 3.44242 23.1774 3.6578 23.0543C3.7296 22.8902 3.79113 22.7569 3.83216 22.6338C3.88344 22.5107 3.90396 22.4184 3.92447 22.3774C3.94498 22.3159 3.96549 22.2543 3.98601 22.203C4.02703 22.1312 4.07831 22.0492 4.15011 21.9671C4.06806 21.8646 4.02703 21.7312 4.02703 21.5671C4.02703 21.4543 4.02703 21.3518 4.04754 21.2902C4.04754 20.921 4.2219 20.3979 4.59114 19.7107L4.95011 19.0646C5.24755 18.5107 5.47319 18.1005 5.63729 17.6902C5.81165 17.28 5.99626 16.6646 6.20139 15.8441C6.36549 15.1261 6.75524 14.4082 7.37062 13.6902L8.13985 12.7671C8.67319 12.1518 9.0219 11.6389 9.21678 11.2287C9.41165 10.8184 9.51421 10.3056 9.51421 9.89534C9.51421 9.69022 9.46293 9.07483 9.35011 8.04919C9.24755 7.02355 9.19626 5.99791 9.19626 5.07483C9.19626 4.35688 9.2578 3.84406 9.39114 3.33124C9.52447 2.81842 9.76037 2.3056 10.1091 1.89535C10.4168 1.48509 10.827 1.07483 11.4424 0.869704C12.0578 0.664576 12.7758 0.562012 13.5963 0.562012C13.904 0.562012 14.2116 0.562012 14.5193 0.664576C14.827 0.664576 15.2373 0.76714 15.7501 0.972268C16.1604 1.1774 16.5706 1.38252 16.8783 1.69022C17.2886 1.99791 17.5963 2.51073 17.904 3.02355C18.1091 3.63893 18.3142 4.25432 18.4168 5.07483C18.5193 5.58765 18.5193 6.10047 18.6219 6.81842C18.6219 7.43381 18.7245 7.84406 18.7245 8.15176C18.827 8.45945 18.827 8.8697 18.9296 9.38252C19.0322 9.79278 19.1347 10.203 19.3399 10.5107C19.545 10.921 19.7501 11.3312 20.0578 11.7415C20.3655 12.2543 20.7757 12.7671 21.186 13.3825C22.1091 14.4082 22.827 15.5364 23.2373 16.6646C23.7501 17.6902 24.0578 19.0236 24.0578 20.4492C24.0578 21.1569 23.9552 21.8441 23.7501 22.5107C23.9552 22.5107 24.0578 22.5928 24.1604 22.7364C24.2629 22.88 24.3655 23.1877 24.4681 23.6697L24.5706 24.4287C24.6732 24.6543 24.7757 24.8697 25.0834 25.0543C25.2886 25.2389 25.4937 25.3928 25.8014 25.5159C26.0065 25.6184 26.3142 25.762 26.5193 25.9466C26.7245 26.1518 26.827 26.3671 26.827 26.5928C26.827 26.9415 26.7245 27.1979 26.5193 27.3825C26.3142 27.5877 26.1091 27.7312 25.8014 27.8235C25.5963 27.9261 25.186 28.1312 24.5706 28.4205C24.0578 28.7241 23.545 29.0923 23.0322 29.5282L22.0065 30.401C21.5963 30.801 21.186 31.0882 20.8783 31.2625C20.5706 31.4471 20.1604 31.5394 19.7501 31.5394L19.0322 31.4574C18.2116 31.242 17.6988 30.8318 17.3911 30.2061C15.7501 30.0071 14.4168 29.9087 13.5963 29.9087" fill="black"/>
</svg>
