<svg width="30" height="30" viewBox="0 0 30 30" fill="none" xmlns="http://www.w3.org/2000/svg">
<g clip-path="url(#clip0_310_24876)">
<path d="M13.9412 18.2118C13.9412 20.7353 12.6265 22.3235 10.5265 22.3235C8.42647 22.3235 7.11176 20.7265 7.11176 18.2118C7.11176 15.6794 8.42647 14.0912 10.5265 14.0912C12.6265 14.0912 13.9412 15.6794 13.9412 18.2118ZM16.8706 9.30882L15.9529 9.37059C15.4324 9.40588 15.2029 9.59118 15.2029 9.92647C15.2029 10.2794 15.4941 10.4735 15.9 10.4735C16.4559 10.4735 16.8706 10.1118 16.8706 9.62647V9.30882ZM30 15C30 23.3735 23.3735 30 15 30C6.62647 30 0 23.3735 0 15C0 6.62647 6.62647 0 15 0C23.3735 0 30 6.62647 30 15ZM18.4765 9.12353C18.4765 10.3412 19.1471 11.0824 20.2412 11.0824C21.1676 11.0824 21.75 10.5618 21.8471 9.82059H21.1235C21.0265 10.2265 20.7088 10.4471 20.2412 10.4471C19.6235 10.4471 19.2441 9.94412 19.2441 9.12353C19.2441 8.31176 19.6235 7.82647 20.2412 7.82647C20.7353 7.82647 21.0441 8.10882 21.1235 8.47059H21.8471C21.75 7.74706 21.1853 7.2 20.2412 7.2C19.1471 7.19118 18.4765 7.93235 18.4765 9.12353ZM8.39118 7.27059V11.0118H9.13235V8.71765C9.13235 8.23235 9.47647 7.84412 9.92647 7.84412C10.3676 7.84412 10.65 8.10882 10.65 8.53235V11.0118H11.3735V8.64706C11.3735 8.19706 11.6824 7.84412 12.1676 7.84412C12.6529 7.84412 12.8912 8.09118 12.8912 8.61176V11.0118H13.6324V8.42647C13.6324 7.65 13.1912 7.19118 12.4324 7.19118C11.9118 7.19118 11.4794 7.45588 11.2941 7.86176H11.2324C11.0647 7.45588 10.7118 7.19118 10.2 7.19118C9.69706 7.19118 9.31765 7.43824 9.15882 7.86176H9.10588V7.26176L8.39118 7.27059ZM15.2559 18.2118C15.2559 14.9559 13.4382 12.9088 10.5265 12.9088C7.61471 12.9088 5.79706 14.9559 5.79706 18.2118C5.79706 21.4676 7.61471 23.5059 10.5265 23.5059C13.4382 23.5059 15.2559 21.4588 15.2559 18.2118ZM15.7147 11.0735C16.2088 11.0735 16.6147 10.8618 16.8441 10.4824H16.9059V11.0118H17.6206V8.45294C17.6206 7.66765 17.0912 7.2 16.1471 7.2C15.2912 7.2 14.6912 7.61471 14.6118 8.24118H15.3265C15.4059 7.96765 15.6971 7.81765 16.1118 7.81765C16.6147 7.81765 16.8794 8.04706 16.8794 8.46177V8.78824L15.8647 8.85C14.9735 8.90294 14.4706 9.29118 14.4706 9.97059C14.4618 10.6412 14.9912 11.0735 15.7147 11.0735ZM23.8059 20.4176C23.8059 18.9618 22.9588 18.1147 20.8235 17.6471L19.6853 17.4C18.2824 17.0912 17.7353 16.5353 17.7353 15.7324C17.7353 14.6912 18.7235 14.0647 20.0029 14.0647C21.3441 14.0647 22.2265 14.7529 22.3412 15.8824H23.6206C23.5588 14.1441 22.0853 12.9176 20.0382 12.9176C17.9118 12.9176 16.4206 14.1088 16.4206 15.7941C16.4206 17.25 17.3118 18.1853 19.3676 18.6353L20.5059 18.8824C21.9265 19.1912 22.5 19.7647 22.5 20.6206C22.5 21.6265 21.4853 22.3588 20.1 22.3588C18.6265 22.3588 17.6029 21.6882 17.4529 20.5853H16.1735C16.2971 22.3588 17.7882 23.5059 20.0294 23.5059C22.3147 23.5059 23.8059 22.3147 23.8059 20.4176Z" fill="#1D1D1F"/>
</g>
<defs>
<clipPath id="clip0_310_24876">
<rect width="30" height="30" fill="white"/>
</clipPath>
</defs>
</svg>
